<svg viewBox="0 0 512 512" xmlns="http://www.w3.org/2000/svg"><path d="m210.851562 30h90v181h-90zm0 0" fill="#68544f"/><path d="m255.851562 30h45v181h-45zm0 0" fill="#53433f"/><path d="m493.253906 55.800781c-31.199218-16.5-117.699218-54.902343-237.402344-55.800781h-.296874c-115.199219.898438-198.402344 35.398438-237.101563 55.800781-16.199219 8.398438-23.699219 27-14.398437 42.597657l34.496093 59.402343c3.601563 6.296875 11.402344 9 18.300781 6.597657l83.101563-32.097657c5.699219-2.101562 9.699219-7.800781 9.699219-14.101562v-49.800781c26.699218-5.398438 71.699218-8.398438 101.699218-8.398438h9c29.703126 0 75.101563 3 101.800782 8.398438.300781 7.5 0 36 0 49.800781 0 6.300781 3.902344 12 9.601562 14.101562l82.800782 32.097657c6.898437 2.402343 14.699218 0 18.296874-6.597657l34.800782-59.402343c9.300781-15.597657 1.5-34.199219-14.398438-42.597657zm0 0" fill="#cb75f6"/><path d="m507.652344 98.398438-34.800782 59.402343c-3.597656 6.597657-11.398437 9-18.296874 6.597657l-82.800782-32.097657c-5.699218-2.101562-9.601562-7.800781-9.601562-14.101562 0-13.800781.300781-42.300781 0-49.800781-26.699219-5.398438-72.097656-8.398438-101.800782-8.398438h-4.5v-60c119.699219.898438 206.203126 39.300781 237.398438 55.800781 15.902344 8.398438 23.703125 27 14.402344 42.597657zm0 0" fill="#b760ea"/><path d="m435.554688 496.699219c-8.402344 9.601562-20.703126 15.300781-33.601563 15.300781h-292.199219c-12.902344 0-25.203125-5.699219-33.601562-15.300781-8.699219-9.597657-12.597656-22.5-11.097656-35.398438l20.699218-165.101562c8.097656-64.199219 60-108.601563 107.398438-115.199219h127.800781c51.898437 10.5 97.796875 55.5 105 115.199219l20.699219 165.101562c1.5 12.898438-2.398438 25.796875-11.097656 35.398438zm0 0" fill="#cb75f6"/><path d="m446.652344 461.300781c1.5 12.898438-2.398438 25.800781-11.101563 35.398438-8.398437 9.601562-20.699219 15.300781-33.597656 15.300781h-146.101563v-331h65.097657c51.902343 10.5 97.800781 55.5 105 115.199219zm0 0" fill="#b760ea"/><path d="m255.851562 241c-57.898437 0-105 47.101562-105 105s47.101563 105 105 105c57.902344 0 105-47.101562 105-105s-47.097656-105-105-105zm0 0" fill="#ececf1"/><path d="m360.851562 346c0 57.898438-47.097656 105-105 105v-210c57.902344 0 105 47.101562 105 105zm0 0" fill="#e2e2e7"/><path d="m255.851562 301c-24.898437 0-45 20.097656-45 45 0 24.898438 20.101563 45 45 45 24.902344 0 45-20.101562 45-45 0-24.902344-20.097656-45-45-45zm0 0" fill="#cb75f6"/><path d="m300.851562 346c0 24.898438-20.097656 45-45 45v-90c24.902344 0 45 20.097656 45 45zm0 0" fill="#b760ea"/></svg>