<svg viewBox="0 0 512 512" xmlns="http://www.w3.org/2000/svg"><path d="m450 181v316l-135 15h-105l-30-75h-60l-30 75h-45c-8.402344 0-15-6.601562-15-15v-316zm0 0" fill="#ffd400"/><path d="m450 181v316l-135 15h-75v-331zm0 0" fill="#fdbf00"/><path d="m405 362h-120c-8.289062 0-15-6.710938-15-15v-60c0-8.289062 6.710938-15 15-15h120c8.289062 0 15 6.710938 15 15v60c0 8.289062-6.710938 15-15 15zm0 0" fill="#e2e2e7"/><path d="m512 467v30c0 8.398438-6.597656 15-15 15h-182c-8.402344 0-15-6.601562-15-15v-15c0-16.5 13.5-30 30-30h167c8.402344 0 15 6.597656 15 15zm0 0" fill="#ececf1"/><path d="m405 422c0 16.5-13.5 30-30 30s-30-13.5-30-30 13.5-30 30-30 30 13.5 30 30zm0 0" fill="#a8d32a"/><path d="m512 467v30c0 8.398438-6.597656 15-15 15h-92v-60h92c8.402344 0 15 6.597656 15 15zm0 0" fill="#d3d3d8"/><path d="m405 422c0 16.5-13.5 30-30 30v-60c16.5 0 30 13.5 30 30zm0 0" fill="#93bf00"/><path d="m465 422c0 16.5-13.5 30-30 30s-30-13.5-30-30 13.5-30 30-30 30 13.5 30 30zm0 0" fill="#a8d32a"/><path d="m465 422c0 16.5-13.5 30-30 30v-60c16.5 0 30 13.5 30 30zm0 0" fill="#93bf00"/><path d="m210 317v195h-120v-195c0-8.402344 6.597656-15 15-15h90c8.402344 0 15 6.597656 15 15zm0 0" fill="#68544f"/><path d="m210 317v195h-60v-210h45c8.402344 0 15 6.597656 15 15zm0 0" fill="#53433f"/><path d="m420 15v61c0 8.398438-6.597656 15-15 15h-330c-8.402344 0-15-6.601562-15-15v-61c0-8.402344 6.597656-15 15-15h330c8.402344 0 15 6.597656 15 15zm0 0" fill="#68544f"/><path d="m420 15v61c0 8.398438-6.597656 15-15 15h-165v-91h165c8.402344 0 15 6.597656 15 15zm0 0" fill="#53433f"/><path d="m97 151-48.25 30-48.75-30 60-90h67.5l15 45zm0 0" fill="#cb75f6"/><path d="m195 151-48.75 30-49.25-30 30.5-90h82.5l22.5 45zm0 0" fill="#e2e2e7"/><path d="m0 151h97v41.25c0 26.925781-21.324219 48.75-48.25 48.75s-48.75-21.824219-48.75-48.75zm0 0" fill="#da90f8"/><path d="m97 151h98v41.25c0 26.925781-21.824219 48.75-48.75 48.75s-49.25-21.824219-49.25-48.75zm0 0" fill="#ececf1"/><path d="m480 151-48.75 30-49.25-30-44.5-45 15-45h67.5zm0 0" fill="#b760ea"/><path d="m270 61h82.5l29.5 90-48.25 30-48.75-30-37.5-45zm0 0" fill="#d3d3d8"/><path d="m285 151h97v41.25c0 26.925781-21.324219 48.75-48.25 48.75s-48.75-21.824219-48.75-48.75zm0 0" fill="#e2e2e7"/><path d="m382 151h98v41.25c0 26.925781-21.824219 48.75-48.75 48.75s-49.25-21.824219-49.25-48.75zm0 0" fill="#cb75f6"/><path d="m285 151-45 30-45-30 15-90h60zm0 0" fill="#cb75f6"/><path d="m285 151-45 30v-120h30zm0 0" fill="#b760ea"/><path d="m285 151v45c0 24.898438-20.097656 45-45 45s-45-20.101562-45-45v-45zm0 0" fill="#da90f8"/><path d="m240 151h45v45c0 24.898438-20.097656 45-45 45zm0 0" fill="#cb75f6"/></svg>