<svg viewBox="0 -31 512 512" xmlns="http://www.w3.org/2000/svg"><path d="m512 90v315c0 24.902344-20.097656 45-45 45h-422c-24.902344 0-45-20.097656-45-45v-315l30-30h452zm0 0" fill="#ececf1"/><path d="m512 90v315c0 24.902344-20.097656 45-45 45h-211v-390h226zm0 0" fill="#e2e2e7"/><path d="m95.390625 154.390625c-2.714844 2.714844-4.390625 6.464844-4.390625 10.609375v180c0 4.144531 1.675781 7.894531 4.390625 10.609375l106.648437-30.855469 27.382813-75.558594zm0 0" fill="#fdbf00"/><path d="m421 345v-180c0-4.144531-1.675781-7.894531-4.390625-10.609375l-134.03125 94.804687 27.382813 75.558594 106.648437 30.855469c2.714844-2.714844 4.390625-6.464844 4.390625-10.609375zm0 0" fill="#ff9f00"/><path d="m416.5 355.5c-2.699219 2.699219-6.300781 4.5-10.5 4.5h-300c-4.199219 0-7.800781-1.800781-10.5-4.5l133.800781-106.199219 16.5 11.699219h20.402344l16.5-11.699219zm0 0" fill="#ffd400"/><path d="m416.5 355.5c-2.699219 2.699219-6.300781 4.5-10.5 4.5h-150v-99h10.199219l16.5-11.699219zm0 0" fill="#fdbf00"/><path d="m416.5 154.5-150.300781 136.5c-3 2.402344-6.597657 3.898438-10.199219 3.898438s-7.199219-1.5-10.199219-3.898438l-150.300781-136.5c2.699219-2.699219 6.300781-4.5 10.5-4.5h300c4.199219 0 7.800781 1.800781 10.5 4.5zm0 0" fill="#ffe470"/><path d="m266.199219 291c-3 2.402344-6.597657 3.898438-10.199219 3.898438v-144.898438h150c4.199219 0 7.800781 1.800781 10.5 4.5zm0 0" fill="#ffd400"/><path d="m421 30v30l-30 30h-391v-45c0-24.902344 20.097656-45 45-45h346zm0 0" fill="#cb75f6"/><path d="m421 30v30l-30 30h-135v-90h135zm0 0" fill="#b760ea"/><path d="m467 0h-76v90h121v-45c0-24.8125-20.1875-45-45-45zm0 0" fill="#53433f"/></svg>