<svg height="511pt" viewBox="-25 0 511 511.92932" width="511pt" xmlns="http://www.w3.org/2000/svg"><path d="m419.34375 503.394531h-376.898438c-37.035156 0-46.6875-52.90625-11.554687-64.664062l.855469-.273438c-21.191406-30.199219-16.382813-71.480469 11.175781-96-23.773437-28.496093-20.492187-70.746093 7.390625-95.234375-14.417969-20.503906-18.5625-46.523437-11.222656-70.496094 7.339844-23.96875 25.339844-43.207031 48.769531-52.125-.890625-4.527343-1.347656-9.128906-1.363281-13.738281-.074219-34.722656 25.980468-63.945312 60.480468-67.839843 2.980469-12.460938 12.722657-22.175782 25.191407-25.117188 12.464843-2.941406 25.527343 1.394531 33.757812 11.207031.089844-.554687.230469-1.097656.417969-1.621093.070312-.6875.273438-1.355469.597656-1.964844.09375-.507813.265625-.996094.511719-1.449219.277344-.699219.585937-1.382813.929687-2.046875.429688-.769531.855469-1.539062 1.359376-2.304688l.765624-1.023437c.722657-.972656 1.519532-1.882813 2.382813-2.730469l.171875-.171875c.992188-1 2.074219-1.914062 3.222656-2.730469.460938-.316406.945313-.601562 1.441406-.855468.238282-.199219.496094-.371094.769532-.511719.128906-.101563.273437-.1875.425781-.253906.660156-.347657 1.339844-.660157 2.03125-.9375 1.363281-.621094 2.796875-1.082031 4.265625-1.367188.460938-.175781.953125-.261719 1.445312-.257812.519532-.160157 1.0625-.246094 1.613282-.253907.851562-.085937 1.78125-.171874 2.636718-.171874.851563 0 1.78125.085937 2.636719.171874.546875.007813 1.089844.09375 1.609375.253907.496094-.003907.984375.082031 1.445313.257812 1.46875.285157 2.902343.746094 4.265625 1.367188.691406.277343 1.371094.589843 2.03125.9375.152344.066406.296875.152343.425781.253906.296875.152344.582031.324219.855469.511719l1.269531.769531.085937.085937c.578126.371094 1.117188.800782 1.613282 1.28125h.085937c.550781.433594 1.0625.917969 1.527344 1.449219l.167969.171875c.511718.511719 1.023437 1.023438 1.527344 1.621094.257812.253906.429687.597656.683593.851562.339844.425782.597657.855469.9375 1.28125.417969.683594.855469 1.449219 1.273438 2.132813s.671875 1.449219 1.015625 2.21875c.34375.707031.601562 1.449219.765625 2.21875.046875.046875.078125.105469.085937.171875.085938.167969.085938.339844.171875.511719.085938.167969.085938.339843.171875.511719.085938.339843.167969.679687.246094 1.109374 0 .167969.085938.339844.085938.511719 8.230468-9.8125 21.292968-14.148437 33.757812-11.207031 12.46875 2.941406 22.210938 12.65625 25.191406 25.117188 34.488282 3.910156 60.523438 33.128906 60.449219 67.839843-.019531 4.609375-.476563 9.210938-1.367187 13.738281 23.429687 8.917969 41.429687 28.15625 48.769531 52.125 7.339843 23.972657 3.199219 49.992188-11.222657 70.496094 27.886719 24.488282 31.164063 66.738282 7.390626 95.234375 27.570312 24.511719 32.394531 65.792969 11.214843 96l.851563.273438c35.097656 11.757812 25.445312 64.664062-11.589844 64.664062zm0 0" fill="#e5e8eb"/><path d="m307.695312 196.195312v230.398438c0 42.417969-34.382812 76.800781-76.800781 76.800781-42.414062 0-76.800781-34.382812-76.800781-76.800781v-230.398438zm0 0" fill="#5ec4e8"/><path d="m341.828125 170.59375c0 14.140625-11.460937 25.601562-25.597656 25.601562h-170.667969c-14.140625 0-25.601562-11.460937-25.601562-25.601562 0-14.136719 11.460937-25.597656 25.601562-25.597656h170.667969c14.136719 0 25.597656 11.460937 25.597656 25.597656zm0 0" fill="#74d7f1"/><path d="m230.894531 260.195312c0 11.78125-9.550781 21.332032-21.332031 21.332032s-21.332031-9.550782-21.332031-21.332032 9.550781-21.332031 21.332031-21.332031 21.332031 9.550781 21.332031 21.332031zm0 0" fill="#4ab1d9"/><path d="m273.5625 336.996094c0 11.78125-9.550781 21.332031-21.332031 21.332031-11.785157 0-21.335938-9.550781-21.335938-21.332031s9.550781-21.335938 21.335938-21.335938c11.78125 0 21.332031 9.554688 21.332031 21.335938zm0 0" fill="#4ab1d9"/><path d="m209.5625 290.0625c16.496094 0 29.867188-13.371094 29.867188-29.867188 0-16.496093-13.371094-29.867187-29.867188-29.867187s-29.867188 13.371094-29.867188 29.867187c0 16.496094 13.371094 29.867188 29.867188 29.867188zm0-42.667969c7.070312 0 12.800781 5.730469 12.800781 12.800781 0 7.070313-5.730469 12.800782-12.800781 12.800782s-12.800781-5.730469-12.800781-12.800782c0-7.070312 5.730469-12.800781 12.800781-12.800781zm0 0"/><path d="m252.230469 307.128906c-16.496094 0-29.867188 13.371094-29.867188 29.867188 0 16.492187 13.371094 29.867187 29.867188 29.867187 16.492187 0 29.863281-13.375 29.863281-29.867187 0-16.496094-13.371094-29.867188-29.863281-29.867188zm0 42.667969c-7.070313 0-12.800781-5.734375-12.800781-12.800781 0-7.070313 5.730468-12.800782 12.800781-12.800782 7.066406 0 12.796875 5.730469 12.796875 12.800782 0 7.066406-5.730469 12.800781-12.796875 12.800781zm0 0"/><path d="m383.351562 119.308594c.3125-2.804688.472657-5.625.476563-8.445313.15625-36.960937-26.144531-68.746093-62.480469-75.511719-4.628906-11.773437-14.273437-20.863281-26.300781-24.792968-12.023437-3.929688-25.175781-2.285156-35.863281 4.480468l-.554688-.792968c-.121094-.167969-.726562-.988282-.855468-1.152344l-.175782-.210938c-.207031-.273437-.53125-.667968-.640625-.804687-.617187-.722656-1.222656-1.347656-1.828125-1.96875l-.1875-.171875c-.691406-.769531-1.441406-1.480469-2.242187-2.132812-.179688-.128907-.324219-.246094-.46875-.367188-.515625-.433594-1.015625-.808594-1.46875-1.125-.269531-.226562-.554688-.429688-.855469-.617188l-.851562-.46875c-.496094-.347656-1.011719-.664062-1.546876-.953124-.269531-.171876-.527343-.316407-.773437-.445313-.984375-.488281-1.964844-.957031-2.46875-1.136719-1.761719-.785156-3.601563-1.394531-5.484375-1.816406-.761719-.226562-1.542969-.375-2.332031-.453125-.675781-.210937-1.382813-.308594-2.089844-.289063-2.03125-.1757808-4.070313-.1757808-6.101563 0-.976562-.003906-1.949218.105469-2.902343.324219-.792969.070313-1.578125.222657-2.34375.453125-1.726563.351563-3.410157.878906-5.027344 1.578125-1.042969.40625-2.0625.871094-3.054687 1.390625-.265626.136719-.570313.316406-.855469.519532-.28125.207031-.484375.308593-.765625.496093-.597656.324219-1.179688.691407-1.945313 1.203125-1.613281 1.148438-3.121093 2.429688-4.507812 3.839844-1.285157 1.289062-2.472657 2.679688-3.539063 4.15625-.09375.128906-.5625.769531-.648437.851562-10.707031-6.785156-23.882813-8.433593-35.929688-4.480468-12.042969 3.949218-21.691406 13.078125-26.296875 24.886718-36.335937 6.765626-62.636718 38.550782-62.480468 75.511719.019531 5.15625.527343 10.296875 1.511718 15.359375.570313 2.996094 2.695313 5.457032 5.578125 6.460938 2.878907 1 6.074219.390625 8.382813-1.601563 2.308594-1.992187 3.378906-5.066406 2.804687-8.058593-.785156-4.007813-1.191406-8.078126-1.210937-12.160157-.160156-30.414062 22.675781-56.035156 52.90625-59.359375 3.589844-.386718 6.550781-2.988281 7.390625-6.503906 2.6875-11.414062 12.875-19.476562 24.601562-19.472656 7.511719.023437 14.636719 3.347656 19.480469 9.089844 2.203125 2.523437 5.675781 3.523437 8.882812 2.558593 3.246094-.957031 5.648438-3.703125 6.164063-7.046875.128906-.382812.226563-.773437.289063-1.171875.203124-.441406.363281-.898437.476562-1.371093.09375-.195313.179688-.394532.25-.597657.144531-.394531.347656-.777343.382812-.855469.316407-.5625.632813-1.140624.996094-1.707031l-7.105468-4.71875 7.679687 3.953125c.519531-.667968 1.089844-1.292968 1.707031-1.871094.71875-.722656 1.515625-1.367187 2.371094-1.925781.492188-.238281.957031-.523437 1.390625-.855469l.164063-.09375c.433593-.222656.882812-.421874 1.339843-.597656.742188-.347656 1.523438-.609375 2.328125-.785156.226563-.035156.453125-.082031.675782-.144531.574218-.039063 1.144531-.128907 1.703124-.273438 1.253907-.109375 2.511719-.109375 3.765626 0 .496093.128907 1 .222657 1.507812.273438.234375.0625.472656.117187.710938.15625.960937.21875 1.898437.546875 2.789062.972656.378906.152344.75.328125 1.109375.519531.324219.230469.632813.417969.855469.546875l.894531.535157.316406.222656c.367188.375.769531.710937 1.203125 1.007812l.714844.742188c.316406.324218.640625.648437 1.546875 1.636718l1.074219-.996093.390625.066406-1.378907 1.160156c0 .070313.1875.273438.339844.480469l1.449219 2.746094.386719.929687c.117187.515625.28125 1.023438.484375 1.511719v.117188l.078125.230468c-.003906.082032-.003906.160156 0 .242188v.21875c.515625 3.300781 2.914062 5.996094 6.128906 6.894531 3.21875.902344 6.664062-.160156 8.820312-2.710937 4.867188-5.765626 12.03125-9.09375 19.574219-9.089844 11.742188-.027344 21.957031 8.042968 24.644531 19.472656.839844 3.515625 3.800782 6.117188 7.390626 6.503906 30.214843 3.34375 53.027343 28.960938 52.863281 59.359375-.019531 4.074219-.425781 8.140625-1.210938 12.140625-.777343 4.085938 1.5 8.136719 5.394531 9.59375 20.941407 7.992188 37.023438 25.203125 43.582032 46.636719s2.859375 44.695313-10.019532 63.039063c-2.523437 3.574218-1.9375 8.472656 1.355469 11.351562 12.964844 11.34375 20.390625 27.742188 20.359375 44.96875-.027344 14.03125-4.949218 27.613281-13.917968 38.402344-2.945313 3.542968-2.546876 8.789062.90625 11.84375 24.3125 21.625 28.570312 58.035156 9.898437 84.683594-1.421875 2.308593-1.695313 5.144531-.734375 7.679687 1 2.636719 3.128906 4.679687 5.800781 5.574219 11.347657 3.535156 18.140625 15.125 15.6875 26.75-1.589843 12.292968-12.121093 21.457031-24.519531 21.335937h-137.46875c21.589844-16.050781 34.328125-41.363281 34.355469-68.269531v-136.53125c0-4.714844-3.824219-8.535156-8.535157-8.535156-4.714843 0-8.535156 3.820312-8.535156 8.535156v136.53125c0 37.703125-30.5625 68.269531-68.265625 68.269531s-68.265625-30.566406-68.265625-68.269531v-221.867188h136.53125v25.601563c0 4.714844 3.820313 8.535156 8.535156 8.535156 4.710938 0 8.535157-3.820312 8.535157-8.535156v-25.601563c18.226562-.644531 32.722656-15.503906 32.921875-33.742187.195312-18.238281-13.980469-33.40625-32.191406-34.445313 2.929687-15.777343 13.917968-17.066406 16.4375-17.144531 3.046874-.019531 5.855468-1.660156 7.363281-4.308593 1.507812-2.652344 1.488281-5.902344-.050781-8.535157-1.539063-2.632812-4.367188-4.242187-7.414063-4.222656-10.738281 0-30.105469 7.441406-33.546875 34.132813h-137.710938c-3.414062-26.691407-22.808593-34.132813-33.542968-34.132813-4.714844 0-8.535156 3.820313-8.535156 8.535156 0 4.710938 3.820312 8.53125 8.535156 8.53125.613281 0 13.167968.230469 16.339844 17.136719-18.246094.988281-32.480469 16.171875-32.285157 34.445312.195313 18.273438 14.746094 33.152344 33.011719 33.75v221.867188c.023438 26.90625 12.761719 52.21875 34.355469 68.269531h-137.472657c-12.394531.121094-22.925781-9.042969-24.515624-21.335937-2.351563-11.90625 4.816406-23.625 16.484374-26.957032 2.558594-.855468 4.5625-2.871093 5.40625-5.433593.839844-2.5625.417969-5.375-1.136718-7.578125-18.675782-26.648438-14.417969-63.0625 9.898437-84.683594 3.472657-3.0625 3.871094-8.332031.902344-11.878906-8.96875-10.789063-13.890625-24.371094-13.917969-38.402344-.011718-17.222656 7.425782-33.609375 20.394532-44.945312 3.292968-2.875 3.878906-7.777344 1.359374-11.347657-14.96875-21.34375-17.40625-49.050781-6.394531-72.679687 1.292969-2.761719 1.015625-6.003906-.730469-8.503906-1.746093-2.5-4.691406-3.878907-7.730468-3.617188-3.039063.261719-5.707032 2.125-7 4.886719-12.492188 26.8125-11.03125 58.046875 3.910156 83.574219-24.53125 26.171874-27.71875 65.824218-7.683594 95.574218-23.390625 25.304688-28.292968 62.605469-12.234375 93.097656-14.097656 8.753907-21.367187 25.273438-18.296875 41.582032 2.898438 20.554687 20.53125 35.804687 41.285156 35.714844h376.898438c20.773438.132812 38.445312-15.113282 41.363281-35.679688 3.070313-16.3125-4.195312-32.832031-18.296875-41.589844 16.0625-30.488281 11.15625-67.789062-12.234375-93.089844 20.023438-29.761718 16.820313-69.414062-7.722656-95.574218 12.761719-21.75 15.796875-47.863282 8.359375-71.957032-7.4375-24.097656-24.660156-43.957031-47.460938-54.730468zm-136.148437-97.558594v-.539062l3.90625-2.765626zm-118.707031 148.84375c0-9.425781 7.640625-17.066406 17.066406-17.066406h170.667969c9.421875 0 17.066406 7.640625 17.066406 17.066406s-7.644531 17.066406-17.066406 17.066406h-170.667969c-9.425781 0-17.066406-7.640625-17.066406-17.066406zm0 0"/><path d="m179.695312 341.261719c0 4.714843 3.820313 8.535156 8.535157 8.535156 4.710937 0 8.53125-3.820313 8.53125-8.535156v-8.535157c0-4.710937-3.820313-8.53125-8.53125-8.53125-4.714844 0-8.535157 3.820313-8.535157 8.53125zm0 0"/><path d="m179.695312 426.59375c.027344 28.265625 22.933594 51.171875 51.199219 51.203125 4.714844 0 8.535157-3.820313 8.535157-8.535156 0-4.710938-3.820313-8.535157-8.535157-8.535157-18.851562 0-34.132812-15.28125-34.132812-34.132812v-51.199219c0-4.710937-3.820313-8.53125-8.53125-8.53125-4.714844 0-8.535157 3.820313-8.535157 8.53125zm0 0"/><path d="m192.109375 98.847656c2.550781 1.695313 5.808594 1.898438 8.546875.53125 2.738281-1.367187 4.535156-4.097656 4.707031-7.152344.980469-13.378906 12.117188-23.734374 25.53125-23.734374 13.414063 0 24.554688 10.355468 25.53125 23.734374.171875 3.054688 1.96875 5.785157 4.707031 7.152344 2.738282 1.367188 6 1.164063 8.546876-.53125 4.9375-3.296875 10.742187-5.058594 16.683593-5.050781 4.710938 0 8.53125-3.820313 8.53125-8.535156 0-4.710938-3.820312-8.535157-8.53125-8.535157-5.226562-.007812-10.417969.859376-15.363281 2.5625-6.101562-16.910156-22.152344-28.179687-40.128906-28.179687-17.980469 0-34.03125 11.269531-40.132813 28.179687-4.925781-1.699218-10.101562-2.5625-15.308593-2.5625-4.714844 0-8.535157 3.824219-8.535157 8.535157 0 4.714843 3.820313 8.535156 8.535157 8.535156 5.9375-.007813 11.742187 1.753906 16.679687 5.050781zm0 0"/><path d="m68.761719 388.195312c.054687 24.796876 16.511719 46.570313 40.355469 53.382813.753906.210937 1.535156.316406 2.320312.316406 4.265625.003907 7.875-3.144531 8.457031-7.371093.582031-4.222657-2.046875-8.230469-6.152343-9.378907-16.207032-4.632812-27.5-19.292969-27.839844-36.144531-.34375-16.855469 10.347656-31.957031 26.355468-37.242188 3.230469-1.046874 5.535157-3.90625 5.863282-7.285156.332031-3.378906-1.371094-6.636718-4.335938-8.289062-12.265625-6.980469-19.710937-20.128906-19.394531-34.238282.320313-14.109374 8.351563-26.90625 20.921875-33.328124 4.195312-2.144532 5.859375-7.285157 3.714844-11.480469-2.144532-4.199219-7.285156-5.863281-11.480469-3.71875-15.796875 8.078125-26.78125 23.21875-29.558594 40.742187-2.773437 17.523438 2.992188 35.316406 15.519531 47.878906-15.488281 10.242188-24.789062 27.585938-24.746093 46.15625zm0 0"/><path d="m354.246094 253.4375c-2.714844-1.386719-5.964844-1.222656-8.523438.4375-2.558594 1.65625-4.039062 4.554688-3.882812 7.597656.15625 3.042969 1.925781 5.773438 4.640625 7.160156 12.566406 6.421876 20.597656 19.21875 20.917969 33.328126.320312 14.109374-7.125 27.257812-19.390626 34.242187-2.96875 1.652344-4.671874 4.90625-4.339843 8.285156.332031 3.378907 2.636719 6.242188 5.867187 7.285157 16.007813 5.285156 26.695313 20.390624 26.355469 37.242187-.339844 16.855469-11.632813 31.515625-27.839844 36.144531-4.078125 1.175782-6.675781 5.167969-6.09375 9.371094.578125 4.203125 4.160157 7.339844 8.40625 7.363281.78125 0 1.5625-.105469 2.320313-.316406 20.828125-5.902344 36.316406-23.386719 39.667968-44.773437 3.351563-21.390626-6.046874-42.773438-24.070312-54.765626 12.519531-12.570312 18.273438-30.359374 15.492188-47.878906-2.78125-17.519531-13.769532-32.652344-29.5625-40.722656zm0 0"/><path d="m247.960938 426.59375v-8.53125c0-4.714844-3.820313-8.535156-8.53125-8.535156-4.714844 0-8.535157 3.820312-8.535157 8.535156v8.53125c0 4.714844 3.820313 8.535156 8.535157 8.535156 4.710937 0 8.53125-3.820312 8.53125-8.535156zm0 0"/><path d="m265.027344 392.460938v8.535156c0 4.710937 3.820312 8.53125 8.535156 8.53125 4.710938 0 8.53125-3.820313 8.53125-8.53125v-8.535156c0-4.710938-3.820312-8.53125-8.53125-8.53125-4.714844 0-8.535156 3.820312-8.535156 8.53125zm0 0"/><path d="m282.09375 264.460938c0-4.710938-3.820312-8.53125-8.53125-8.53125-4.714844 0-8.535156 3.820312-8.535156 8.53125v8.535156c0 4.710937 3.820312 8.53125 8.535156 8.53125 4.710938 0 8.53125-3.820313 8.53125-8.53125zm0 0"/></svg>