<svg id="Layer_35" enable-background="new 0 0 64 64" height="512" viewBox="0 0 64 64" width="512" xmlns="http://www.w3.org/2000/svg"><path d="m38 18h-12c0-1.66.67-3.16 1.76-4.24 1.08-1.09 2.58-1.76 4.24-1.76s3.16.67 4.24 1.76c1.09 1.08 1.76 2.58 1.76 4.24z" fill="#ffeaa7"/><path d="m40.49 9.51c-2.17-2.17-5.17-3.51-8.49-3.51s-6.32 1.34-8.49 3.51-3.51 5.17-3.51 8.49h6c0-1.66.67-3.16 1.76-4.24 1.08-1.09 2.58-1.76 4.24-1.76s3.16.67 4.24 1.76c1.09 1.08 1.76 2.58 1.76 4.24h6c0-3.32-1.34-6.32-3.51-8.49z" fill="#ffc729"/><path d="m8 8h11.51c-2.2 2.74-3.51 6.22-3.51 10h-10-2z" fill="#ffeaa7"/><path d="m56 8 4 10h-2-10c0-3.78-1.31-7.26-3.51-10z" fill="#ffeaa7"/><path d="m19.51 8c.36-.46.75-.9 1.17-1.32 2.9-2.89 6.9-4.68 11.32-4.68 5.06 0 9.56 2.34 12.49 6 2.2 2.74 3.51 6.22 3.51 10h-4c0-3.32-1.34-6.32-3.51-8.49s-5.17-3.51-8.49-3.51-6.32 1.34-8.49 3.51-3.51 5.17-3.51 8.49h-4c0-3.78 1.31-7.26 3.51-10z" fill="#fcd770"/><path d="m2 42h16v20h-16z" fill="#e6e9ed"/><path d="m45.879 42h16v20h-16z" fill="#e6e9ed"/><path d="m14 60v2h-8v-2c0-1.1.45-2.1 1.17-2.83.73-.72 1.73-1.17 2.83-1.17 2.21 0 4 1.79 4 4z" fill="#ffeaa7"/><path d="m14 50v2h-8v-2c0-1.1.45-2.1 1.17-2.83.73-.72 1.73-1.17 2.83-1.17 2.21 0 4 1.79 4 4z" fill="#ffeaa7"/><path d="m58 50v2h-8v-2c0-2.21 1.79-4 4-4 1.1 0 2.1.45 2.83 1.17.72.73 1.17 1.73 1.17 2.83z" fill="#ffeaa7"/><path d="m58 60v2h-8v-2c0-2.21 1.79-4 4-4 1.1 0 2.1.45 2.83 1.17.72.73 1.17 1.73 1.17 2.83z" fill="#ffeaa7"/><path d="m6 18v24h12v-4c2.26 0 4.48-.4 6.57-1.18 2.08-.77 4.03-1.91 5.74-3.38l1.69-1.44 1.69 1.44c3.42 2.94 7.79 4.56 12.31 4.56v4h12v-24z" fill="#aab2bd"/><g fill="#69d6f4"><path d="m10 32h8v6h-8z"/><path d="m10 22h8v6h-8z"/><path d="m22 22h8v6h-8z"/><path d="m34 22h8v6h-8z"/><path d="m46 22h8v6h-8z"/><path d="m46 32h8v6h-8z"/></g><path d="m33.69 33.44-1.69-1.44-1.69 1.44c-1.71 1.47-3.66 2.61-5.74 3.38-2.09.78-4.31 1.18-6.57 1.18v24h28v-24c-4.52 0-8.89-1.62-12.31-4.56z" fill="#cf9e76"/><path d="m40 50v12h-16v-12c0-4.42 3.58-8 8-8 2.21 0 4.21.9 5.66 2.34 1.44 1.45 2.34 3.45 2.34 5.66z" fill="#e6e9ed"/><path d="m19 21h-10v8h10zm-2 6h-6v-4h6z"/><path d="m31 21h-10v8h10zm-2 6h-6v-4h6z"/><path d="m43 21h-10v8h10zm-2 6h-6v-4h6z"/><path d="m55 21h-10v8h10zm-2 6h-6v-4h6z"/><path d="m59 41v-22h2.477l-4.8-12h-11.739c-3.12-3.665-7.758-6-12.938-6s-9.818 2.335-12.938 6h-11.739l-4.8 12h2.477v22h-4v22h62v-22zm2 10h-2v-1c0-2.757-2.243-5-5-5s-5 2.243-5 5v1h-2v-8h14zm-4 0h-6v-1c0-1.654 1.346-3 3-3s3 1.346 3 3zm-18 10h-14v-11c0-3.859 3.14-7 7-7s7 3.141 7 7zm-7-20c-4.962 0-9 4.037-9 9v11h-4v-22-.025c4.395-.221 8.611-1.896 11.966-4.771l1.034-.887 1.034.887c3.355 2.875 7.571 4.55 11.966 4.771v.025 22h-4v-11c0-4.963-4.038-9-9-9zm-15-4h-6v-4h6zm38.323-28 3.2 8h-9.574c-.172-2.927-1.081-5.653-2.554-8zm-23.323-6c7.933 0 14.431 6.195 14.949 14h-2c-.514-6.701-6.118-12-12.949-12s-12.435 5.299-12.949 12h-2c.518-7.805 7.016-14 14.949-14zm4.185 9.402c-.916-.686-2.002-1.152-3.185-1.322v-4.029c2.283.207 4.366 1.111 6.034 2.502zm-5.185-1.322c-1.183.17-2.269.636-3.185 1.322l-2.849-2.85c1.668-1.391 3.751-2.294 6.034-2.501zm-7.448-.114 2.849 2.85c-.685.915-1.151 2.001-1.321 3.184h-4.029c.207-2.283 1.11-4.366 2.501-6.034zm8.448 2.034c2.414 0 4.434 1.721 4.899 4h-9.798c.465-2.279 2.485-4 4.899-4zm6.92 4c-.17-1.183-.636-2.269-1.322-3.184l2.849-2.85c1.391 1.667 2.294 3.751 2.501 6.034zm-30.243-8h8.927c-1.473 2.347-2.382 5.073-2.554 8h-9.573zm-1.677 10h50v22h-10v-2h8v-8h-10v5.955c-3.917-.22-7.672-1.706-10.664-4.27l-2.336-2.002-2.336 2.002c-2.992 2.565-6.747 4.051-10.664 4.27v-5.955h-10v8h8v2h-10zm40 18v-4h6v4zm-30 6v8h-2v-1c0-2.757-2.243-5-5-5s-5 2.243-5 5v1h-2v-8zm-4 8h-6v-1c0-1.654 1.346-3 3-3s3 1.346 3 3zm-10 2h14v8h-2v-1c0-2.757-2.243-5-5-5s-5 2.243-5 5v1h-2zm10 8h-6v-1c0-1.654 1.346-3 3-3s3 1.346 3 3zm44 0h-6v-1c0-1.654 1.346-3 3-3s3 1.346 3 3zm2 0v-1c0-2.757-2.243-5-5-5s-5 2.243-5 5v1h-2v-8h14v8z"/></svg>