<?xml version="1.0" ?><svg id="Layer_1" style="enable-background:new 0 0 30 30;" version="1.1" viewBox="0 0 30 30" xml:space="preserve" xmlns="http://www.w3.org/2000/svg" xmlns:xlink="http://www.w3.org/1999/xlink"><style type="text/css">
	.st0{fill:#5EA3D7;}
	.st1{fill:#D8D2D2;}
</style><path class="st0" d="M28,8.315033c0-3.0800171-2.5100098-5.5900269-5.5999756-5.5900269  c-1.6900024,0-3.2399902,0.7399902-4.2800293,2c-0.9899902-0.2999878-2.0299683-0.460022-3.1099854-0.460022  c-1.0900269,0-2.1400146,0.1700439-3.1300049,0.4700317c-1.0499878-1.2700195-2.5999756-2.0100098-4.2799683-2.0100098  C4.5100098,2.7250061,2,5.2350159,2,8.315033c0,1.8699951,0.9100342,3.5699463,2.4299927,4.5999756  C4.2900391,13.605011,4.210022,14.3249817,4.210022,15.0550232c0,2.9699707,1.2099609,5.6599731,3.1499634,7.6099854  l-2.2099609,3.0200195c-0.3300171,0.4400024-0.2399902,1.0700073,0.2099609,1.3899536  c0.1800537,0.1400146,0.3800049,0.2000122,0.5900269,0.2000122c0.3099976,0,0.6099854-0.1400146,0.8099976-0.4099731  l2.1400146-2.9199829c1.7399902,1.1999512,3.8499756,1.8999634,6.1099854,1.8999634c2.25,0,4.3400269-0.7000122,6.0800171-1.8900146  l2.1300049,2.9100342c0.1999512,0.2699585,0.5,0.4099731,0.8099976,0.4099731c0.1999512,0,0.4099731-0.0599976,0.5899658-0.2000122  c0.4500122-0.3199463,0.5400391-0.9499512,0.210022-1.3899536l-2.2000122-3  c1.9500122-1.960022,3.1600342-4.6600342,3.1600342-7.6300049c0-0.7300415-0.0800171-1.4500122-0.2200317-2.1500244  C27.0700073,11.8849792,28,10.1650085,28,8.315033z M5.0599976,10.855011C4.4000244,10.1950378,4,9.2950134,4,8.315033  c0-1.9800415,1.6099854-3.5900269,3.6000366-3.5900269c0.8499756,0,1.6599731,0.2999878,2.289978,0.8300171  C7.7399902,6.7250061,6.0300293,8.5849915,5.0599976,10.855011z M19.9899902,16.9950256  c-0.1599731,0.3999634-0.5299683,0.6399536-0.9299927,0.6399536c-0.1199951,0-0.25-0.0199585-0.3699951-0.0699463  l-4.0499878-1.5700073C14.2600098,15.8450012,14,15.4750061,14,15.0550232v-4.0900269c0-0.5499878,0.4500122-1,1-1s1,0.4500122,1,1  v3.4100342l3.4199829,1.3299561C19.9299927,15.9049988,20.1900024,16.4850159,19.9899902,16.9950256z M24.9400024,10.8450012  c-0.9699707-2.2600098-2.6799927-4.1300049-4.8300171-5.289978c0.6300049-0.5300293,1.4300537-0.8300171,2.2900391-0.8300171  C24.3800049,4.7250061,26,6.3349915,26,8.315033C26,9.2850037,25.6000366,10.1850281,24.9400024,10.8450012z"/></svg>