<?xml version="1.0" encoding="iso-8859-1"?>
<!-- Generator: Adobe Illustrator 19.0.0, SVG Export Plug-In . SVG Version: 6.00 Build 0)  -->
<svg version="1.1" id="Capa_1" xmlns="http://www.w3.org/2000/svg" xmlns:xlink="http://www.w3.org/1999/xlink" x="0px" y="0px"
	 viewBox="0 0 512 512" style="enable-background:new 0 0 512 512;" xml:space="preserve">
<path style="fill:#72D8FF;" d="M284.574,493.445L256,502l-28.574-8.555C104.325,456.588,20,343.317,20,214.818V10h472v204.818
	C492,343.317,407.675,456.588,284.574,493.445z"/>
<circle style="fill:#C9F3FF;" cx="256" cy="228.94" r="131.94"/>
<path style="fill:#FF5D5D;" d="M325.216,190.849l-15.678-15.678c-2.955-2.955-7.745-2.955-10.7,0l-57.023,57.023l-28.552-28.552
	c-2.955-2.955-7.745-2.955-10.7,0l-15.781,15.781c-2.955,2.955-2.955,7.745,0,10.7l54.921,54.921l0.008-0.008l0.008,0.008
	l83.496-83.496C328.171,198.594,328.171,193.804,325.216,190.849z"/>
<path d="M492,0H20c-5.523,0-10,4.478-10,10v204.817c0,65.217,20.585,127.34,59.529,179.651
	c38.944,52.313,92.553,89.851,155.029,108.557l28.574,8.555c0.936,0.28,1.902,0.42,2.868,0.42c0.966,0,1.933-0.14,2.868-0.42
	l28.574-8.555c62.477-18.706,116.085-56.244,155.029-108.557C481.415,342.157,502,280.034,502,214.817V10C502,4.478,497.523,0,492,0
	z M482,214.817c0,125.058-80.492,233.18-200.294,269.048L256,491.562l-25.706-7.696C110.492,447.997,30,339.875,30,214.817V20h452
	V214.817z"/>
<path d="M304.188,162.956c-4.692,0-9.104,1.827-12.421,5.145l-49.951,49.951l-21.48-21.479c-3.318-3.318-7.729-5.146-12.422-5.146
	c-4.692,0-9.104,1.827-12.421,5.145l-15.78,15.781c-3.318,3.317-5.146,7.729-5.146,12.421s1.827,9.104,5.145,12.421l54.921,54.922
	c1.311,1.31,2.949,2.217,4.722,2.645c0.768,0.188,1.562,0.284,2.365,0.284c2.652,0,5.196-1.054,7.071-2.929l83.496-83.497
	c6.848-6.849,6.848-17.992,0-24.841c0,0,0-0.001-0.001-0.001l-15.677-15.676C313.292,164.783,308.881,162.956,304.188,162.956z
	 M241.713,270.91l-46.137-46.137l12.338-12.339l26.831,26.831c3.905,3.904,10.237,3.904,14.143,0l55.301-55.302l12.235,12.235
	L241.713,270.91z"/>
<path d="M256,371c37.93,0,73.589-14.771,100.409-41.591c22.239-22.238,36.188-50.431,40.337-81.529
	c4.016-30.096-1.833-61.223-16.469-87.646c-2.676-4.831-8.761-6.576-13.593-3.902c-4.831,2.677-6.578,8.763-3.902,13.594
	c26.199,47.297,17.763,107.063-20.516,145.341C319.224,338.31,288.587,351,256,351s-63.224-12.69-86.267-35.733
	C146.69,292.225,134,261.587,134,229c0-32.588,12.69-63.225,35.733-86.267c38.25-38.252,95.983-46.862,143.663-21.428
	c4.871,2.599,10.93,0.756,13.53-4.116c2.599-4.873,0.756-10.931-4.117-13.53c-26.294-14.026-57.108-19.441-86.765-15.258
	c-30.672,4.331-58.493,18.229-80.454,40.189C128.771,155.411,114,191.07,114,229s14.771,73.589,41.591,100.409S218.07,371,256,371z"
	/>
<path d="M342.324,142.79c1.956,1.977,4.531,2.966,7.108,2.966c2.542,0,5.084-0.963,7.034-2.893
	c3.926-3.885,3.958-10.217,0.073-14.142l-0.094-0.095c-3.885-3.927-10.217-3.96-14.142-0.073
	c-3.926,3.885-3.958,10.217-0.073,14.142L342.324,142.79z"/>
<path d="M134.802,403.049c1.884,1.609,4.194,2.397,6.492,2.397c2.823,0,5.629-1.188,7.607-3.504
	c3.588-4.198,3.093-10.511-1.106-14.099c-31.389-26.822-54.905-61.674-68.008-100.786c-1.754-5.236-7.424-8.057-12.658-6.306
	c-5.237,1.755-8.06,7.422-6.306,12.659C75.077,335.959,100.658,373.871,134.802,403.049z"/>
<path d="M179.569,410.575l-0.607-0.36c-4.745-2.826-10.883-1.268-13.708,3.478c-2.825,4.746-1.268,10.884,3.478,13.708l0.625,0.372
	c1.602,0.95,3.36,1.403,5.097,1.403c3.413,0,6.739-1.749,8.607-4.896C185.881,419.531,184.318,413.396,179.569,410.575z"/>
<g>
</g>
<g>
</g>
<g>
</g>
<g>
</g>
<g>
</g>
<g>
</g>
<g>
</g>
<g>
</g>
<g>
</g>
<g>
</g>
<g>
</g>
<g>
</g>
<g>
</g>
<g>
</g>
<g>
</g>
</svg>
