<svg height="512pt" viewBox="0 0 512 512.0002" width="512pt" xmlns="http://www.w3.org/2000/svg"><path d="m111.503906 293.871094c-5.304687-5.015625-13.621094-4.949219-18.84375.152344l-20.710937 20.703124c-2.570313 2.578126-4 6.078126-3.96875 9.71875.019531 3.503907 1.449219 6.851563 3.96875 9.285157l20.550781 20.546875c2.453125 2.601562 5.859375 4.089844 9.4375 4.121094h.179688c3.578124-.011719 7.003906-1.4375 9.539062-3.964844l20.703125-20.703125c5.128906-5.296875 5.128906-13.707031 0-19.003907zm-9.386718 45.925781-15.53125-15.53125 15.53125-15.605469 15.605468 15.605469zm0 0"/><path d="m169.699219 338.089844c-.1875-.542969-.445313-1.058594-.769531-1.535156-.3125-.445313-.65625-.875-1.023438-1.28125-.816406-.769532-1.769531-1.378907-2.816406-1.789063-2.074219-.855469-4.40625-.855469-6.484375 0-1.042969.410156-2 1.019531-2.816407 1.789063-3.34375 3.347656-3.34375 8.773437 0 12.117187 3.347657 3.347656 8.773438 3.347656 12.117188 0 .367188-.402344.710938-.832031 1.023438-1.277344.324218-.476562.582031-.992187.769531-1.539062.246093-.480469.417969-1 .511719-1.535157.226562-1.125.226562-2.285156 0-3.414062-.09375-.53125-.265626-1.050781-.511719-1.535156zm0 0"/><path d="m229.945312 279.894531c-.09375-.535156-.265624-1.054687-.511718-1.535156-.1875-.546875-.445313-1.0625-.769532-1.539063-.3125-.445312-.65625-.875-1.023437-1.277343-.816406-.773438-1.773437-1.382813-2.816406-1.792969-2.078125-.855469-4.40625-.855469-6.484375 0-1.042969.410156-2 1.019531-2.816406 1.792969-3.347657 3.34375-3.347657 8.769531 0 12.117187 3.347656 3.34375 8.769531 3.34375 12.117187 0 .367187-.40625.710937-.835937 1.023437-1.28125.324219-.476562.582032-.992187.769532-1.535156.246094-.484375.417968-1.003906.511718-1.535156.226563-1.128906.226563-2.289063 0-3.414063zm0 0"/><path d="m119.183594 273.066406c2.257812-.03125 4.421875-.917968 6.058594-2.472656.367187-.40625.707031-.835938 1.023437-1.28125.324219-.476562.582031-.992188.765625-1.535156.246094-.484375.421875-1.003906.511719-1.539063.230469-1.125.230469-2.285156 0-3.410156-.089844-.535156-.265625-1.054687-.511719-1.539063-.183594-.542968-.441406-1.058593-.765625-1.535156-.316406-.445312-.65625-.875-1.023437-1.277344-.816407-.773437-1.773438-1.382812-2.816407-1.792968-2.078125-.855469-4.410156-.855469-6.488281 0-1.042969.410156-2 1.019531-2.8125 1.792968-2.464844 2.441407-3.203125 6.128907-1.875 9.328126 1.332031 3.203124 4.464844 5.28125 7.933594 5.261718zm0 0"/><path d="m92.898438 397.824219c-.1875-.542969-.445313-1.058594-.765626-1.535157-.316406-.449218-.660156-.875-1.027343-1.28125-.8125-.769531-1.769531-1.378906-2.8125-1.792968-2.078125-.851563-4.410157-.851563-6.488281 0-1.042969.414062-2 1.023437-2.816407 1.792968-3.34375 3.347657-3.34375 8.773438 0 12.117188 3.347657 3.347656 8.773438 3.347656 12.117188 0 .367187-.40625.710937-.832031 1.027343-1.28125.320313-.472656.578126-.992188.765626-1.535156.246093-.484375.421874-1 .511718-1.535156.230469-1.125.230469-2.285157 0-3.414063-.089844-.535156-.265625-1.050781-.511718-1.535156zm0 0"/><path d="m494.648438 369.929688v-37.128907c0-9.425781-7.640626-17.066406-17.066407-17.066406h-136.535156v-35.347656c16.644531-4.296875 27.496094-20.296875 25.328125-37.347657-2.164062-17.050781-16.671875-29.832031-33.859375-29.832031s-31.695313 12.78125-33.863281 29.832031c-2.164063 17.050782 8.6875 33.050782 25.328125 37.347657v35.347656h-49.175781l12.484374-111.695313c12.511719-3.113281 20.753907-15.046874 19.234376-27.851562-1.515626-12.800781-12.316407-22.480469-25.207032-22.585938h-8.96875c-1.644531-23.292968-10.125-45.585937-24.378906-64.078124-.203125-.296876-.421875-.582032-.660156-.851563-9.398438-12.011719-21-22.121094-34.183594-29.792969l2.277344-13.40625c2.765625-16.421875 17.003906-28.4375 33.65625-28.40625h74.921875c4.714843 0 8.535156-3.820312 8.535156-8.53125 0-4.714844-3.820313-8.535156-8.535156-8.535156h-74.921875c-24.992188-.0625-46.363282 17.960938-50.515625 42.605469l-1.441407 8.535156c-6.613281-2.648437-13.449218-4.695313-20.429687-6.109375h-.28125c-33.566406-6.664062-68.375 1.421875-95.566406 22.199219-27.195313 20.773437-44.144531 52.234375-46.539063 86.371093h-8.96875c-12.871094.144532-23.636718 9.824219-25.140625 22.605469-1.503906 12.785157 6.722657 24.699219 19.207031 27.824219l29.535157 266.242188 2.132812 18.917968c1.425781 12.984375 12.398438 22.816406 25.464844 22.808594h401.066406c10.59375-1.195312 18.222657-10.734375 17.066407-21.332031v-66.996094c10.425781-4.886719 17.085937-15.363281 17.085937-26.878906s-6.660156-21.992188-17.085937-26.882813zm-179.199219-122.460938c0-9.425781 7.640625-17.070312 17.066406-17.070312s17.066406 7.644531 17.066406 17.070312c0 9.421875-7.640625 17.066406-17.066406 17.066406s-17.066406-7.644531-17.066406-17.066406zm162.132812 119.464844h-273.066406v-34.132813h273.066406zm0 76.800781h-119.464843c-.539063.050781-1.066407.15625-1.582032.316406-.476562.035157-.949218.109375-1.414062.21875l-64.417969 24.160157-39.136719-23.476563c-.179687-.074219-.363281-.140625-.554687-.195313-.507813-.246093-1.042969-.4375-1.59375-.570312-.554688-.171875-1.128907-.285156-1.707031-.34375-.195313 0-.367188-.109375-.5625-.109375h-42.632813v-17.066406h273.066406zm-315.734375-27.128906-15.539062-15.539063 15.582031-15.582031 8.757813 8.753906c-.078126.855469-.265626 1.707031-.265626 2.5625.03125 3.269531.605469 6.511719 1.707032 9.589844zm42.667969-100.871094c-9.425781 0-17.066406 7.640625-17.066406 17.066406v37.128907c-3.671875 1.765624-6.941407 4.261718-9.609375 7.335937l-6.742188-6.730469c-5.324218-4.863281-13.511718-4.746094-18.695312.265625l-20.734375 20.734375c-2.578125 2.554688-4.003907 6.046875-3.953125 9.675782.011718 3.511718 1.445312 6.863281 3.96875 9.300781l20.597656 20.601562c2.457031 2.585938 5.855469 4.058594 9.421875 4.085938h.144531c3.574219.007812 7.003906-1.421875 9.515625-3.96875l10.820313-10.820313c1.628906 1.265625 3.390625 2.351563 5.246094 3.246094v37.144531h-122.367188l-23.3125-209.996093c34.078125-10.269532 69.910156-13.398438 105.25-9.191407l7.527344.851563 9.914062 1.09375-6.226562 36.632812c-.378906 2.230469.144531 4.523438 1.457031 6.367188 1.308594 1.847656 3.300781 3.09375 5.53125 3.472656.472656.082031.953125.121094 1.433594.121094 4.160156-.003906 7.710937-3.007813 8.40625-7.109375l6.390625-37.625c30.796875 3.292969 59.484375 5.914062 83.359375 6.050781l-7.15625 64.265625zm-167.875-110.933594h134.390625l-3.730469 21.894531-10.886719-1.210937-7.542968-.851563c-36.582032-4.191406-73.628906-1.167968-109.050782 8.890626zm230.046875 29.585938c-27.542969-.566407-55.039062-2.511719-82.386719-5.839844l4-23.746094h81.648438zm-11.40625-80.785157h-58.242188l5.863282-34.542968c1.949218.261718 3.914062.398437 5.878906.410156 11.460938.015625 22.53125-4.179688 31.105469-11.785156 8.757812 13.839844 14.039062 29.59375 15.394531 45.917968zm-25.796875-59.667968c-5.527344 5.425781-12.960937 8.464844-20.703125 8.464844-1.003906-.046876-2.003906-.152344-2.996094-.304688l4.269532-25.132812c7.160156 4.820312 13.691406 10.523437 19.429687 16.972656zm-39.851563 1.324218c-6.761718-5.613281-10.683593-13.9375-10.71875-22.722656.011719-3.078125.507813-6.132812 1.46875-9.054687 4.722657 1.273437 9.34375 2.890625 13.832032 4.828125zm-36.316406-35.523437c3.417969 0 6.835938.171875 10.238282.519531-5.761719 21.027344 3.765624 43.246094 22.972656 53.5625l-6.757813 39.785156h-128.417969c4.472657-53.011718 48.765626-93.785156 101.964844-93.867187zm-128 110.933594h256c4.710938 0 8.53125 3.820312 8.53125 8.53125 0 4.714843-3.820312 8.535156-8.53125 8.535156h-256c-4.714844 0-8.535156-3.820313-8.535156-8.535156 0-4.710938 3.820312-8.53125 8.535156-8.53125zm42.664063 316.652343-1.023438-9.453124h120.492188v12.800781c0 1.425781.113281 2.855469.332031 4.265625h-111.265625c-4.375.027344-8.0625-3.261719-8.535156-7.613282zm409.601562 3.347657c.054688 1.488281-.300781 2.964843-1.023437 4.265625h-271.019532c-.71875-1.304688-1.074218-2.777344-1.023437-4.265625v-29.867188h40.300781l40.636719 24.378907c1.328125.796874 2.847656 1.21875 4.394531 1.21875 1.023438 0 2.039063-.179688 2.996094-.535157l66.824219-25.0625h117.914062zm4.265625-81.066407h-281.597656c-7.070312 0-12.800781-5.730468-12.800781-12.800781 0-7.070312 5.730469-12.800781 12.800781-12.800781h281.597656c7.070313 0 12.800782 5.730469 12.800782 12.800781 0 7.070313-5.730469 12.800781-12.800782 12.800781zm0 0"/></svg>