<?xml version="1.0"?>
<svg xmlns="http://www.w3.org/2000/svg" id="_1-Send_email" data-name="1-Send email" viewBox="0 0 90 90" width="512" height="512"><circle cx="45" cy="45" r="44" style="fill:#c7e2f7"/><g id="_Group_" data-name="&lt;Group&gt;"><path d="M77,64,67,73V68H59.33a1.967,1.967,0,0,0,1.08-.55A2,2,0,0,0,61,66.03V60h6V55Z" style="fill:#d7e5f7"/><polygon points="83 45 73 54 73 49 61 49 61 41 73 41 73 36 83 45" style="fill:#d7e5f7"/><path d="M59,22h8V17l10,9L67,35V30H61V24a2.015,2.015,0,0,0-2-2Z" style="fill:#d7e5f7"/><path d="M59.33,68a1.841,1.841,0,0,1-.33.03L7.49,68A43.112,43.112,0,0,1,4,61L20,45l9,9,9-9L60,67l.41.45A1.967,1.967,0,0,1,59.33,68Z" style="fill:#ffde17"/><path d="M60.41,22.59A1.955,1.955,0,0,1,61,24V66.03a2,2,0,0,1-.59,1.42L60,67,38,45,60,23Z" style="fill:#fbb03b"/><path d="M20,45,4,61A44.167,44.167,0,0,1,4,29Z" style="fill:#fbb03b"/><path d="M60.41,22.59,60,23,38,45l-9,9-9-9L4,29a43.262,43.262,0,0,1,3.63-7.23L8,22H59A1.955,1.955,0,0,1,60.41,22.59Z" style="fill:#ffde17"/><polygon points="29 62 38 53 42 49 38 45 29 54 20 45 16 49 20 53 29 62" style="fill:#ffd317"/><path d="M45,0A44.753,44.753,0,0,0,6.781,21.242,45.072,45.072,0,0,0,3.069,61.365a44.208,44.208,0,0,0,3.569,7.158A45,45,0,1,0,45,0ZM8.062,23H58.586L29,52.586,5.181,28.767A42.553,42.553,0,0,1,8.062,23ZM73,48H62V42H73a1,1,0,0,0,1-1V38.245L81.505,45,74,51.755V49A1,1,0,0,0,73,48ZM60,49V65.586L39.414,45,60,24.414V49ZM2,45A42.805,42.805,0,0,1,4.4,30.816L18.586,45,4.4,59.184A42.805,42.805,0,0,1,2,45ZM5.181,61.233,20,46.414l8.293,8.293a1,1,0,0,0,1.414,0L38,46.414,58.586,67H55v.027L8.063,67A42.166,42.166,0,0,1,5.181,61.233ZM45,88A42.681,42.681,0,0,1,9.346,69L59,69.03a2.7,2.7,0,0,0,.339-.03H66v4a1,1,0,0,0,1.669.743l10-9a1,1,0,0,0,0-1.486l-10-9A1,1,0,0,0,66,55v4H64v2h3a1,1,0,0,0,1-1V57.245L75.505,64,68,70.755V68a1,1,0,0,0-1-1H61.827A2.991,2.991,0,0,0,62,66.03V50H72v4a1,1,0,0,0,1.669.743l10-9a1,1,0,0,0,0-1.486l-10-9A1,1,0,0,0,72,36v4H62V24a3.012,3.012,0,0,0-.181-1H67a1,1,0,0,0,1-1V19.245L75.505,26,68,32.755V30a1,1,0,0,0-1-1H64v2h2v4a1,1,0,0,0,1.669.743l10-9a1,1,0,0,0,0-1.486l-10-9A1,1,0,0,0,66,17v4H9.345A42.992,42.992,0,1,1,45,88Z"/><rect x="21" y="16" width="37" height="2"/><rect x="34" y="12" width="15" height="2"/><rect x="52" y="12" width="3" height="2"/><rect x="21" y="72" width="37" height="2"/><rect x="30" y="76" width="15" height="2"/><rect x="24" y="76" width="3" height="2"/></g></svg>
