<svg height="511pt" viewBox="0 0 511.99946 511" width="511pt" xmlns="http://www.w3.org/2000/svg"><path d="m220 10.679688h72v491.816406h-72zm0 0" fill="#ffc66c"/><path d="m82.105469 256.5h419.894531v143.777344h-419.894531l-72.105469-71.886719zm0 0" fill="#feda9b"/><path d="m451.148438 149.042969-404.070313 108.269531-37.078125-138.359375 404.074219-108.273437 87.925781 50.589843zm0 0" fill="#feda9b"/><path d="m399.777344 390.277344c-2.636719 0-5.207032 1.070312-7.078125 2.929687-1.859375 1.859375-2.921875 4.441407-2.921875 7.070313s1.0625 5.210937 2.921875 7.070312c1.871093 1.859375 4.441406 2.929688 7.078125 2.929688 2.632812 0 5.210937-1.070313 7.070312-2.929688 1.863282-1.859375 2.929688-4.441406 2.929688-7.070312s-1.066406-5.210938-2.929688-7.070313c-1.859375-1.859375-4.4375-2.929687-7.070312-2.929687zm0 0"/><path d="m502 246.5h-200v-47.140625l151.738281-40.65625c2.554688-.683594 4.738281-2.355469 6.0625-4.644531l50.851563-87.773438c1.332031-2.300781 1.691406-5.035156 1.007812-7.601562-.691406-2.566406-2.371094-4.753906-4.671875-6.082032l-87.925781-50.585937c-2.296875-1.324219-5.019531-1.679687-7.574219-.992187l-109.488281 29.335937v-19.859375c0-5.523438-4.476562-10-10-10h-72c-5.519531 0-10 4.476562-10 10v44.507812l-202.585938 54.285157c-5.335937 1.429687-8.5 6.914062-7.070312 12.25l37.074219 138.359375c.6875 2.5625 2.359375 4.746094 4.660156 6.074218 1.53125.882813 3.257813 1.339844 5 1.339844.863281 0 1.734375-.113281 2.585937-.339844l10.628907-2.847656-57.351563 57.179688c-1.882812 1.875-2.93749975 4.421875-2.93749975 7.082031 0 2.65625 1.05468775 5.203125 2.93749975 7.082031l72.105469 71.886719c1.871094 1.871094 4.410156 2.917969 7.058594 2.917969h127.894531v92.21875c0 5.523437 4.480469 10 10 10h72c5.523438 0 10-4.476563 10-10v-92.21875h58c5.523438 0 10-4.476563 10-10 0-5.523438-4.476562-10-10-10h-273.761719l-62.074219-61.886719 62.074219-61.890625h405.761719v123.777344h-54.914062c-5.523438 0-10 4.476562-10 10 0 5.523437 4.476562 10 10 10h64.914062c5.519531 0 10-4.476563 10-10v-143.777344c0-5.523438-4.480469-10-10-10zm-220 163.777344v82.21875h-52v-82.21875zm-52-389.777344h52v15.21875l-52 13.933594zm-196.839844 146.238281 66.769532-17.890625c5.335937-1.429687 8.5-6.910156 7.070312-12.246094-1.429688-5.335937-6.917969-8.503906-12.246094-7.070312l-66.769531 17.890625-5.734375-21.398437 390.421875-104.613282 75.644531 43.523438-43.75 75.519531-390.417968 104.613281zm176.839844 57.273438v22.488281h-83.921875zm20 22.488281v-27.847656l52-13.933594v41.78125zm0 0"/><path d="m134.011719 119.367188c-2.632813 0-5.210938 1.0625-7.070313 2.921874-1.859375 1.859376-2.929687 4.441407-2.929687 7.078126 0 2.632812 1.070312 5.210937 2.929687 7.070312 1.859375 1.863281 4.4375 2.929688 7.070313 2.929688 2.628906 0 5.207031-1.066407 7.070312-2.929688 1.859375-1.867188 2.929688-4.4375 2.929688-7.070312 0-2.636719-1.070313-5.207032-2.929688-7.078126-1.863281-1.859374-4.441406-2.921874-7.070312-2.921874zm0 0"/></svg>