<svg height="512pt" viewBox="0 -8 512 511" width="512pt" xmlns="http://www.w3.org/2000/svg"><path d="m512 147.285156c0 7.21875-5.90625 13.125-13.125 13.125h-485.746094c-7.222656 0-13.128906-5.902344-13.128906-13.125v334.332032c0 7.808593 6.328125 14.140624 14.136719 14.140624h483.726562c7.808594 0 14.136719-6.332031 14.136719-14.140624zm0 0" fill="#e4eaf8"/><path d="m30.90625 481.617188v-321.207032h-17.777344c-7.222656 0-13.128906-5.902344-13.128906-13.125v334.332032c0 7.808593 6.328125 14.140624 14.136719 14.140624h30.910156c-7.808594 0-14.140625-6.332031-14.140625-14.140624zm0 0" fill="#d8dce5"/><path d="m91.722656 305.683594h-18.03125c-7.550781 0-13.671875-6.121094-13.671875-13.675782 0-7.550781 6.121094-13.671874 13.671875-13.671874h18.03125c7.550782 0 13.675782 6.121093 13.675782 13.671874 0 7.554688-6.125 13.675782-13.675782 13.675782zm0 0" fill="#576574"/><path d="m92.644531 292.011719c0-4.867188 2.546875-9.128907 6.375-11.550781-2.113281-1.339844-4.609375-2.125-7.296875-2.125h-18.03125c-7.550781 0-13.671875 6.125-13.671875 13.675781s6.121094 13.671875 13.671875 13.671875h18.03125c2.6875 0 5.183594-.785156 7.296875-2.121094-3.828125-2.425781-6.375-6.6875-6.375-11.550781zm0 0" fill="#3e4b5a"/><path d="m500 165.5625h-488c-6.601562 0-12-5.398438-12-12v-97.4375c0-6.601562 5.398438-12 12-12h488c6.601562 0 12 5.398438 12 12v97.4375c0 6.601562-5.398438 12-12 12zm0 0" fill="#ff6b6b"/><path d="m30.90625 44.125h-18.542969c-6.800781 0-12.363281 5.5625-12.363281 12.363281v96.710938c0 6.800781 5.5625 12.363281 12.363281 12.363281h18.542969zm0 0" fill="#ee5253"/><g fill="#576574"><path d="m49.300781 90.679688c-4.269531 0-7.726562-3.457032-7.726562-7.726563v-74.726563c0-4.265624 3.457031-7.726562 7.726562-7.726562 4.265625 0 7.726563 3.460938 7.726563 7.726562v74.726563c0 4.269531-3.460938 7.726563-7.726563 7.726563zm0 0"/><path d="m102.898438 90.679688c-4.265626 0-7.726563-3.457032-7.726563-7.726563v-74.726563c0-4.265624 3.460937-7.726562 7.726563-7.726562 4.269531 0 7.730468 3.460938 7.730468 7.726562v74.726563c0 4.269531-3.460937 7.726563-7.730468 7.726563zm0 0"/><path d="m156.5 90.679688c-4.265625 0-7.726562-3.457032-7.726562-7.726563v-74.726563c0-4.265624 3.457031-7.726562 7.726562-7.726562s7.726562 3.460938 7.726562 7.726562v74.726563c0 4.269531-3.460937 7.726563-7.726562 7.726563zm0 0"/><path d="m355.5 90.679688c-4.265625 0-7.726562-3.457032-7.726562-7.726563v-74.726563c0-4.265624 3.457031-7.726562 7.726562-7.726562 4.265625 0 7.726562 3.460938 7.726562 7.726562v74.726563c0 4.269531-3.457031 7.726563-7.726562 7.726563zm0 0"/><path d="m409.101562 90.679688c-4.269531 0-7.730468-3.457032-7.730468-7.726563v-74.726563c0-4.265624 3.460937-7.726562 7.730468-7.726562 4.265626 0 7.726563 3.460938 7.726563 7.726562v74.726563c0 4.269531-3.460937 7.726563-7.726563 7.726563zm0 0"/><path d="m462.699219 90.679688c-4.265625 0-7.726563-3.457032-7.726563-7.726563v-74.726563c0-4.265624 3.460938-7.726562 7.726563-7.726562 4.269531 0 7.726562 3.460938 7.726562 7.726562v74.726563c0 4.269531-3.457031 7.726563-7.726562 7.726563zm0 0"/></g><path d="m289.179688 112.570312h-66.359376c-4.269531 0-7.726562-3.460937-7.726562-7.726562 0-4.269531 3.457031-7.726562 7.726562-7.726562h66.359376c4.269531 0 7.726562 3.457031 7.726562 7.726562 0 4.265625-3.457031 7.726562-7.726562 7.726562zm0 0" fill="#ee5253"/><path d="m91.722656 373.519531h-18.03125c-7.550781 0-13.671875-6.121093-13.671875-13.671875 0-7.550781 6.121094-13.671875 13.671875-13.671875h18.03125c7.550782 0 13.675782 6.121094 13.675782 13.671875 0 7.550782-6.125 13.671875-13.675782 13.671875zm0 0" fill="#576574"/><path d="m92.644531 359.847656c0-4.867187 2.546875-9.125 6.375-11.550781-2.113281-1.335937-4.609375-2.121094-7.296875-2.121094h-18.03125c-7.550781 0-13.671875 6.121094-13.671875 13.671875 0 7.550782 6.121094 13.675782 13.671875 13.675782h18.03125c2.6875 0 5.183594-.789063 7.296875-2.125-3.828125-2.425782-6.375-6.683594-6.375-11.550782zm0 0" fill="#3e4b5a"/><path d="m91.722656 441.359375h-18.03125c-7.550781 0-13.671875-6.121094-13.671875-13.675781 0-7.550782 6.121094-13.671875 13.671875-13.671875h18.03125c7.550782 0 13.675782 6.121093 13.675782 13.671875 0 7.550781-6.125 13.675781-13.675782 13.675781zm0 0" fill="#576574"/><path d="m92.644531 427.6875c0-4.867188 2.546875-9.128906 6.375-11.550781-2.113281-1.339844-4.609375-2.125-7.296875-2.125h-18.03125c-7.550781 0-13.671875 6.125-13.671875 13.675781s6.121094 13.671875 13.671875 13.671875h18.03125c2.6875 0 5.183594-.785156 7.296875-2.121094-3.828125-2.425781-6.375-6.6875-6.375-11.550781zm0 0" fill="#3e4b5a"/><path d="m178.371094 305.683594h-18.03125c-7.554688 0-13.675782-6.121094-13.675782-13.675782 0-7.550781 6.121094-13.671874 13.675782-13.671874h18.03125c7.550781 0 13.671875 6.121093 13.671875 13.671874 0 7.554688-6.121094 13.675782-13.671875 13.675782zm0 0" fill="#576574"/><path d="m179.289062 292.011719c0-4.867188 2.550782-9.128907 6.375-11.550781-2.109374-1.339844-4.609374-2.125-7.292968-2.125h-18.03125c-7.554688 0-13.675782 6.125-13.675782 13.675781s6.121094 13.671875 13.675782 13.671875h18.03125c2.683594 0 5.183594-.785156 7.292968-2.121094-3.824218-2.425781-6.375-6.6875-6.375-11.550781zm0 0" fill="#3e4b5a"/><path d="m178.371094 373.519531h-18.03125c-7.554688 0-13.675782-6.121093-13.675782-13.671875 0-7.550781 6.121094-13.671875 13.675782-13.671875h18.03125c7.550781 0 13.671875 6.121094 13.671875 13.671875 0 7.550782-6.121094 13.671875-13.671875 13.671875zm0 0" fill="#576574"/><path d="m179.289062 359.847656c0-4.867187 2.550782-9.125 6.375-11.550781-2.109374-1.335937-4.609374-2.121094-7.292968-2.121094h-18.03125c-7.554688 0-13.675782 6.121094-13.675782 13.671875 0 7.550782 6.121094 13.675782 13.675782 13.675782h18.03125c2.683594 0 5.183594-.789063 7.292968-2.125-3.824218-2.425782-6.375-6.683594-6.375-11.550782zm0 0" fill="#3e4b5a"/><path d="m178.371094 441.359375h-18.03125c-7.554688 0-13.675782-6.121094-13.675782-13.675781 0-7.550782 6.121094-13.671875 13.675782-13.671875h18.03125c7.550781 0 13.671875 6.121093 13.671875 13.671875 0 7.550781-6.121094 13.675781-13.671875 13.675781zm0 0" fill="#576574"/><path d="m179.289062 427.6875c0-4.867188 2.550782-9.128906 6.375-11.550781-2.109374-1.339844-4.609374-2.125-7.292968-2.125h-18.03125c-7.554688 0-13.675782 6.125-13.675782 13.675781s6.121094 13.671875 13.675782 13.671875h18.03125c2.683594 0 5.183594-.785156 7.292968-2.121094-3.824218-2.425781-6.375-6.6875-6.375-11.550781zm0 0" fill="#3e4b5a"/><path d="m265.015625 305.683594h-18.03125c-7.550781 0-13.675781-6.121094-13.675781-13.675782 0-7.550781 6.125-13.671874 13.675781-13.671874h18.03125c7.550781 0 13.671875 6.121093 13.671875 13.671874 0 7.554688-6.121094 13.675782-13.671875 13.675782zm0 0" fill="#576574"/><path d="m265.933594 292.011719c0-4.867188 2.550781-9.128907 6.378906-11.550781-2.113281-1.339844-4.609375-2.125-7.296875-2.125h-18.03125c-7.550781 0-13.675781 6.125-13.675781 13.675781s6.125 13.671875 13.675781 13.671875h18.03125c2.6875 0 5.183594-.785156 7.296875-2.121094-3.828125-2.425781-6.378906-6.6875-6.378906-11.550781zm0 0" fill="#3e4b5a"/><path d="m265.015625 373.519531h-18.03125c-7.550781 0-13.675781-6.121093-13.675781-13.671875 0-7.550781 6.125-13.671875 13.675781-13.671875h18.03125c7.550781 0 13.671875 6.121094 13.671875 13.671875 0 7.550782-6.121094 13.671875-13.671875 13.671875zm0 0" fill="#576574"/><path d="m265.933594 359.847656c0-4.867187 2.550781-9.125 6.378906-11.550781-2.113281-1.335937-4.609375-2.121094-7.296875-2.121094h-18.03125c-7.550781 0-13.675781 6.121094-13.675781 13.671875 0 7.550782 6.125 13.675782 13.675781 13.675782h18.03125c2.6875 0 5.183594-.789063 7.296875-2.125-3.828125-2.425782-6.378906-6.683594-6.378906-11.550782zm0 0" fill="#3e4b5a"/><path d="m265.015625 441.359375h-18.03125c-7.550781 0-13.675781-6.121094-13.675781-13.675781 0-7.550782 6.125-13.671875 13.675781-13.671875h18.03125c7.550781 0 13.671875 6.121093 13.671875 13.671875 0 7.550781-6.121094 13.675781-13.671875 13.675781zm0 0" fill="#576574"/><path d="m265.933594 427.6875c0-4.867188 2.550781-9.128906 6.378906-11.550781-2.113281-1.339844-4.609375-2.125-7.296875-2.125h-18.03125c-7.550781 0-13.675781 6.125-13.675781 13.675781s6.125 13.671875 13.675781 13.671875h18.03125c2.6875 0 5.183594-.785156 7.296875-2.121094-3.828125-2.425781-6.378906-6.6875-6.378906-11.550781zm0 0" fill="#3e4b5a"/><path d="m351.660156 237.84375h-18.03125c-7.550781 0-13.671875-6.121094-13.671875-13.671875 0-7.554687 6.121094-13.675781 13.671875-13.675781h18.03125c7.554688 0 13.675782 6.125 13.675782 13.675781s-6.121094 13.671875-13.675782 13.671875zm0 0" fill="#576574"/><path d="m352.582031 224.171875c0-4.867187 2.546875-9.125 6.375-11.550781-2.113281-1.335938-4.609375-2.121094-7.296875-2.121094h-18.03125c-7.550781 0-13.671875 6.121094-13.671875 13.671875s6.121094 13.675781 13.671875 13.675781h18.03125c2.6875 0 5.183594-.789062 7.296875-2.125-3.828125-2.425781-6.375-6.683594-6.375-11.550781zm0 0" fill="#3e4b5a"/><path d="m351.660156 305.683594h-18.03125c-7.550781 0-13.671875-6.121094-13.671875-13.675782 0-7.550781 6.121094-13.671874 13.671875-13.671874h18.03125c7.554688 0 13.675782 6.121093 13.675782 13.671874 0 7.554688-6.121094 13.675782-13.675782 13.675782zm0 0" fill="#576574"/><path d="m352.582031 292.011719c0-4.867188 2.546875-9.128907 6.375-11.550781-2.113281-1.339844-4.609375-2.125-7.296875-2.125h-18.03125c-7.550781 0-13.671875 6.125-13.671875 13.675781s6.121094 13.671875 13.671875 13.671875h18.03125c2.6875 0 5.183594-.785156 7.296875-2.121094-3.828125-2.425781-6.375-6.6875-6.375-11.550781zm0 0" fill="#3e4b5a"/><path d="m351.660156 373.519531h-18.03125c-7.550781 0-13.671875-6.121093-13.671875-13.671875 0-7.550781 6.121094-13.671875 13.671875-13.671875h18.03125c7.554688 0 13.675782 6.121094 13.675782 13.671875 0 7.550782-6.121094 13.671875-13.675782 13.671875zm0 0" fill="#576574"/><path d="m352.582031 359.847656c0-4.867187 2.546875-9.125 6.375-11.550781-2.113281-1.335937-4.609375-2.121094-7.296875-2.121094h-18.03125c-7.550781 0-13.671875 6.121094-13.671875 13.671875 0 7.550782 6.121094 13.675782 13.671875 13.675782h18.03125c2.6875 0 5.183594-.789063 7.296875-2.125-3.828125-2.425782-6.375-6.683594-6.375-11.550782zm0 0" fill="#3e4b5a"/><path d="m438.308594 237.84375h-18.03125c-7.550782 0-13.675782-6.121094-13.675782-13.671875 0-7.554687 6.121094-13.675781 13.675782-13.675781h18.03125c7.550781 0 13.671875 6.125 13.671875 13.675781s-6.121094 13.671875-13.671875 13.671875zm0 0" fill="#576574"/><path d="m439.226562 224.171875c0-4.867187 2.550782-9.125 6.378907-11.550781-2.113281-1.335938-4.613281-2.121094-7.296875-2.121094h-18.03125c-7.554688 0-13.675782 6.121094-13.675782 13.671875s6.121094 13.675781 13.675782 13.675781h18.03125c2.683594 0 5.183594-.789062 7.296875-2.125-3.828125-2.425781-6.378907-6.683594-6.378907-11.550781zm0 0" fill="#3e4b5a"/><path d="m438.308594 305.683594h-18.03125c-7.550782 0-13.675782-6.121094-13.675782-13.675782 0-7.550781 6.121094-13.671874 13.675782-13.671874h18.03125c7.550781 0 13.671875 6.121093 13.671875 13.671874 0 7.554688-6.121094 13.675782-13.671875 13.675782zm0 0" fill="#576574"/><path d="m439.226562 292.011719c0-4.867188 2.550782-9.128907 6.378907-11.550781-2.113281-1.339844-4.613281-2.125-7.296875-2.125h-18.03125c-7.554688 0-13.675782 6.125-13.675782 13.675781s6.121094 13.671875 13.675782 13.671875h18.03125c2.683594 0 5.183594-.785156 7.296875-2.121094-3.828125-2.425781-6.378907-6.6875-6.378907-11.550781zm0 0" fill="#3e4b5a"/><path d="m438.308594 373.519531h-18.03125c-7.550782 0-13.675782-6.121093-13.675782-13.671875 0-7.550781 6.121094-13.671875 13.675782-13.671875h18.03125c7.550781 0 13.671875 6.121094 13.671875 13.671875 0 7.550782-6.121094 13.671875-13.671875 13.671875zm0 0" fill="#576574"/><path d="m439.226562 359.847656c0-4.867187 2.550782-9.125 6.378907-11.550781-2.113281-1.335937-4.613281-2.121094-7.296875-2.121094h-18.03125c-7.554688 0-13.675782 6.121094-13.675782 13.671875 0 7.550782 6.121094 13.675782 13.675782 13.675782h18.03125c2.683594 0 5.183594-.789063 7.296875-2.125-3.828125-2.425782-6.378907-6.683594-6.378907-11.550782zm0 0" fill="#3e4b5a"/><path d="m265.015625 237.84375h-18.03125c-7.550781 0-13.675781-6.121094-13.675781-13.671875 0-7.554687 6.125-13.675781 13.675781-13.675781h18.03125c7.550781 0 13.671875 6.125 13.671875 13.675781s-6.121094 13.671875-13.671875 13.671875zm0 0" fill="#576574"/><path d="m265.933594 224.171875c0-4.867187 2.550781-9.125 6.378906-11.550781-2.113281-1.335938-4.609375-2.121094-7.296875-2.121094h-18.03125c-7.550781 0-13.675781 6.121094-13.675781 13.671875s6.125 13.675781 13.675781 13.675781h18.03125c2.6875 0 5.183594-.789062 7.296875-2.125-3.828125-2.425781-6.378906-6.683594-6.378906-11.550781zm0 0" fill="#3e4b5a"/></svg>