<svg height="512pt" viewBox="0 0 512 512" width="512pt" xmlns="http://www.w3.org/2000/svg"><path d="m512 150v257c0 8.398438-6.597656 15-15 15h-467v-272l30-30h421zm0 0" fill="#f2f2fc"/><path d="m512 150v257c0 8.398438-6.597656 15-15 15h-226v-302h210zm0 0" fill="#d8d8fc"/><path d="m150 302h-30c-8.289062 0-15-6.710938-15-15s6.710938-15 15-15h30c8.289062 0 15 6.710938 15 15s-6.710938 15-15 15zm0 0" fill="#76e2f8"/><path d="m512 45v105h-482v-105c0-8.402344 6.597656-15 15-15h452c8.402344 0 15 6.597656 15 15zm0 0" fill="#ff641a"/><path d="m512 45v105h-241v-120h226c8.402344 0 15 6.597656 15 15zm0 0" fill="#f03800"/><path d="m120 287v30c0 8.398438-6.597656 15-15 15s-15-6.601562-15-15v-30c0-8.402344 6.597656-15 15-15s15 6.597656 15 15zm0 0" fill="#61729b"/><path d="m168.632812 358.367188c-3.835937 0-7.675781-1.464844-10.605468-4.394532-5.859375-5.859375-5.859375-15.351562 0-21.210937l26.367187-26.367188c5.859375-5.859375 15.351563-5.859375 21.210938 0s5.859375 15.351563 0 21.210938l-26.367188 26.367187c-2.929687 2.929688-6.765625 4.394532-10.605469 4.394532zm0 0" fill="#47568c"/><path d="m105 332v-60c8.402344 0 15 6.597656 15 15v30c0 8.398438-6.597656 15-15 15zm0 0" fill="#47568c"/><path d="m105 302c-57.898438 0-105 47.101562-105 105s47.101562 105 105 105 105-47.101562 105-105-47.101562-105-105-105zm0 0" fill="#ff641a"/><path d="m210 407c0 57.898438-47.101562 105-105 105v-210c57.898438 0 105 47.101562 105 105zm0 0" fill="#f03800"/><path d="m105 332c-41.398438 0-75 33.601562-75 75s33.601562 75 75 75 75-33.601562 75-75-33.601562-75-75-75zm0 0" fill="#f2f2fc"/><path d="m180 407c0 41.398438-33.601562 75-75 75v-150c41.398438 0 75 33.601562 75 75zm0 0" fill="#d8d8fc"/><path d="m406 105c-8.289062 0-15-6.710938-15-15s6.710938-15 15-15c8.277344 0 15-6.722656 15-15v-45c0-8.289062 6.710938-15 15-15s15 6.710938 15 15v45c0 24.8125-20.1875 45-45 45zm0 0" fill="#47568c"/><path d="m301 15v45c0 19.5-12.597656 36.300781-30 42.300781-4.800781 1.796875-9.601562 2.699219-15 2.699219-8.402344 0-15-6.601562-15-15 0-8.402344 6.597656-15 15-15s15-6.601562 15-15v-45c0-8.402344 6.597656-15 15-15s15 6.597656 15 15zm0 0" fill="#61729b"/><path d="m105 105c-8.289062 0-15-6.710938-15-15s6.710938-15 15-15c8.277344 0 15-6.722656 15-15v-45c0-8.289062 6.710938-15 15-15s15 6.710938 15 15v45c0 24.8125-20.1875 45-45 45zm0 0" fill="#61729b"/><path d="m150 407c0 8.398438-6.597656 15-15 15h-30c-8.402344 0-15-6.601562-15-15v-30c0-8.402344 6.597656-15 15-15s15 6.597656 15 15v15h15c8.402344 0 15 6.597656 15 15zm0 0" fill="#61729b"/><path d="m241 242h-31c-8.289062 0-15-6.710938-15-15s6.710938-15 15-15h31c8.289062 0 15 6.710938 15 15s-6.710938 15-15 15zm0 0" fill="#76e2f8"/><path d="m150 242h-30c-8.289062 0-15-6.710938-15-15s6.710938-15 15-15h30c8.289062 0 15 6.710938 15 15s-6.710938 15-15 15zm0 0" fill="#76e2f8"/><g fill="#25d9f8"><path d="m331 242h-30c-8.289062 0-15-6.710938-15-15s6.710938-15 15-15h30c8.289062 0 15 6.710938 15 15s-6.710938 15-15 15zm0 0"/><path d="m331 302h-30c-8.289062 0-15-6.710938-15-15s6.710938-15 15-15h30c8.289062 0 15 6.710938 15 15s-6.710938 15-15 15zm0 0"/><path d="m421 242h-30c-8.289062 0-15-6.710938-15-15s6.710938-15 15-15h30c8.289062 0 15 6.710938 15 15s-6.710938 15-15 15zm0 0"/><path d="m421 302h-30c-8.289062 0-15-6.710938-15-15s6.710938-15 15-15h30c8.289062 0 15 6.710938 15 15s-6.710938 15-15 15zm0 0"/><path d="m331 362h-30c-8.289062 0-15-6.710938-15-15s6.710938-15 15-15h30c8.289062 0 15 6.710938 15 15s-6.710938 15-15 15zm0 0"/></g><path d="m241 302h-31c-8.289062 0-15-6.710938-15-15s6.710938-15 15-15h31c8.289062 0 15 6.710938 15 15s-6.710938 15-15 15zm0 0" fill="#76e2f8"/><path d="m241 362h-31c-8.289062 0-15-6.710938-15-15s6.710938-15 15-15h31c8.289062 0 15 6.710938 15 15s-6.710938 15-15 15zm0 0" fill="#76e2f8"/><path d="m421 362h-30c-8.289062 0-15-6.710938-15-15s6.710938-15 15-15h30c8.289062 0 15 6.710938 15 15s-6.710938 15-15 15zm0 0" fill="#25d9f8"/><path d="m150 407c0 8.398438-6.597656 15-15 15h-30v-60c8.402344 0 15 6.597656 15 15v15h15c8.402344 0 15 6.597656 15 15zm0 0" fill="#47568c"/><path d="m301 15v45c0 19.5-12.597656 36.300781-30 42.300781v-87.300781c0-8.402344 6.597656-15 15-15s15 6.597656 15 15zm0 0" fill="#47568c"/></svg>