<?xml version="1.0" encoding="iso-8859-1"?>
<!-- Generator: Adobe Illustrator 19.0.0, SVG Export Plug-In . SVG Version: 6.00 Build 0)  -->
<svg xmlns="http://www.w3.org/2000/svg" xmlns:xlink="http://www.w3.org/1999/xlink" version="1.1" x="0px" y="0px" viewBox="0 0 7761.834 7761.834" style="enable-background:new 0 0 7761.834 7761.834;" xml:space="preserve" width="512" height="512">
<g id="_x34_5-Webpage">
	<g>
		<path style="fill:#545B66;" d="M7761.834,1329.609c0-349.063-282.971-632.034-632.035-616.875H632.034    C282.972,697.574,0,980.545,0,1329.609v3395.625h7761.834V1329.609z"/>
		<path style="fill:#0092FF;" d="M7385.367,4407.352V1457.579c0-202.061-163.803-365.865-365.864-350.705H742.332    c-202.061-15.16-365.865,148.643-365.865,350.705v2949.773H7385.367z"/>
		<path style="fill:#C7CDDD;" d="M5570.683,7761.834L5570.683,7761.834c-460.965-490.704-717.572-1140.811-717.572-1814.07v-97.755    H2908.723v97.755c0,673.259-256.606,1323.366-717.571,1814.07h0H5570.683z"/>
		<path style="fill:#E9ECF4;" d="M0,4725.233v965.141c0,349.063,282.972,632.035,632.034,632.035H7129.8    c349.063,0,632.035-282.972,632.035-632.035v-965.141H0z"/>
		<path style="fill:#AEB4C1;" d="M2882.074,6322.409l1443.743,1439.425h1244.865c0,0-588.15-580.085-690.926-1439.425H2882.074z"/>
		<circle style="fill:#AEB4C1;" cx="3880.917" cy="5428.262" r="265.297"/>
		<polygon style="fill:#0062FF;" points="1825.125,4407.231 742.332,1103.4 7019.503,1103.4 5936.711,4407.231   "/>
		<path style="fill:#FF6700;" d="M3202.291,249.952l-1154.06,1138.9c-142.852,142.852-223.105,336.601-223.105,538.625v19.81    c0-288.017,233.483-521.499,521.5-521.499l892.6,15.16V548.345c0-288.017,233.483-536.659,521.5-536.659h-19.81    C3538.892,11.686,3345.143,107.1,3202.291,249.952z"/>
		<path style="fill:#EBF2FF;" d="M5936.711,11.686H3760.728c-288.018,0-521.504,248.642-521.504,536.657v892.602l-892.598-15.16    c-288.018,0-521.5,233.482-521.5,521.504v2475.102h4111.586V11.686z"/>
		<polygon style="fill:#0062FF;" points="6912.885,1106.874 7389.026,4407.352 6877.994,4407.231   "/>
		<path style="fill:#373E49;" d="M3020.775,4070.436c0-475.048,385.099-860.143,860.143-860.143s860.143,385.095,860.143,860.143    c0,119.532-24.431,233.349-68.497,336.795h256.748c34.083-106.178,52.674-219.299,52.674-336.795    c0-608.103-492.964-1085.912-1101.068-1085.912S2779.85,3462.332,2779.85,4070.436c0,117.496,18.591,230.617,52.675,336.795    h256.747C3045.206,4303.784,3020.775,4189.967,3020.775,4070.436z"/>
		<path style="fill:#DFE6EF;" d="M2909.445,1437.482l-565.792-10.626c-288.018,0-524.473,232.412-524.473,520.435v2479.38h960.854    L2909.445,1437.482z"/>
		<path style="fill:#DFE6EF;" d="M3244.205,548.345v71.721l516.041-606.238l-51.803,1.088    C3446.777,44.606,3244.205,279.258,3244.205,548.345z"/>
		<path style="fill:#545B66;" d="M2660.407,4070.436c0-674.072,546.442-1205.355,1220.511-1205.355    s1220.511,531.282,1220.511,1205.355c0,116.874-16.773,229.773-47.448,336.795h352.729c1.666-7.572,3.442-15.101,4.997-22.717    l335.467-63.896l0.003-500.363l-335.47-63.904c-12.484-61.165-28.603-121.005-48.007-179.342l258.535-223.038l-250.182-433.328    l-322.875,112.529c-41.053-46.198-84.796-74.785-131.001-115.838l112.537-338.032l-433.329-235.022l-223.041,258.531    c-58.337-19.401-118.173-35.523-179.338-48.011l-63.904-335.463h-500.363l-63.904,335.463    c-61.165,12.488-120.998,28.61-179.335,48.011l-223.045-258.531l-433.328,235.022l112.537,338.032    c-46.205,41.053-89.949,69.641-131.002,115.838l-322.875-112.529l-250.182,433.328l258.535,223.038    c-19.405,58.337-35.523,118.177-48.007,179.342l-335.467,63.896l-0.004,500.364l335.471,63.904    c1.554,7.617,3.331,15.145,4.996,22.717h352.729C2677.181,4300.209,2660.407,4187.31,2660.407,4070.436z"/>
		<path style="fill:#C7CDDD;" d="M6583.351,623.589L6583.351,623.589c-108.875,0-197.135-88.26-197.135-197.134v-229.32    C6386.216,88.26,6474.476,0,6583.351,0l0,0c108.874,0,197.134,88.26,197.134,197.134v229.32    C6780.485,535.329,6692.225,623.589,6583.351,623.589z"/>
		<path style="fill:#FF6700;" d="M6909.227,4324.893h-651.751V557.883c0-92.583,75.054-167.637,167.637-167.637h316.478    c92.583,0,167.637,75.054,167.637,167.637V4324.893z"/>
		<polygon style="fill:#FFFFFF;" points="6909.227,4324.893 6257.475,4324.893 6425.723,4768.446 6740.979,4768.446   "/>
		<path style="fill:#797F89;" d="M6456.621,4768.446l66.023,174.057c26.071,68.734,95.342,68.734,121.413,0l66.023-174.057H6456.621    z"/>
		<rect x="6655.768" y="579.335" style="fill:#C7CDDD;" width="124.718" height="1580.165"/>
		<path style="fill:#373E49;" d="M3880.918,2865.083v-651.747h-250.182l-63.904,338.465    c-61.165,12.488-120.998,30.11-179.335,49.512l-223.045-257.781l-433.328,235.397l112.537,338.219    c-46.205,41.053-89.949,69.734-131.002,115.932l-322.875-112.482l-250.182,433.352l258.535,223.049    c-19.405,58.337-34.726,118.183-47.21,179.348l-334.669,63.902v500.364l334.671,66.043c1.554,7.617,2.531,9.697,4.197,24.856    h352.729c-30.675-106.119-47.448-222.06-47.448-338.935C2660.407,3398.504,3206.85,2865.083,3880.918,2865.083z"/>
	</g>
</g>

</svg>
