<svg height="512pt" viewBox="0 0 512 512" width="512pt" xmlns="http://www.w3.org/2000/svg"><path d="m301.996094 503.464844h-267.863282c-14.136718 0-25.597656-11.460938-25.597656-25.597656v-332.800782h494.929688v332.800782c0 14.136718-11.460938 25.597656-25.597656 25.597656zm0 0" fill="#cbd1d7"/><path d="m503.464844 76.800781v68.265625h-494.929688v-68.265625c0-14.140625 11.460938-25.601562 25.597656-25.601562h68.265626v25.601562c.03125 9.414063 7.652343 17.039063 17.066406 17.066407h8.535156c9.414062-.027344 17.039062-7.652344 17.066406-17.066407v-25.601562h85.332032v25.601562c.03125 9.414063 7.652343 17.039063 17.066406 17.066407h8.535156c9.414062-.027344 17.039062-7.652344 17.066406-17.066407v-25.601562h93.867188v25.601562c.027344 9.414063 7.652344 17.039063 17.066406 17.066407h8.535156c9.414063-.027344 17.035156-7.652344 17.066406-17.066407v-25.601562h68.265626c14.136718 0 25.597656 11.460937 25.597656 25.601562zm0 0" fill="#eb6371"/><g fill="#cbd1d7"><path d="m119.464844 8.535156h8.535156c9.425781 0 17.066406 7.640625 17.066406 17.066406v51.199219c0 9.425781-7.640625 17.066407-17.066406 17.066407h-8.535156c-9.425782 0-17.066406-7.640626-17.066406-17.066407v-51.199219c0-9.425781 7.640624-17.066406 17.066406-17.066406zm0 0"/><path d="m247.464844 8.535156h8.535156c9.425781 0 17.066406 7.640625 17.066406 17.066406v51.199219c0 9.425781-7.640625 17.066407-17.066406 17.066407h-8.535156c-9.425782 0-17.066406-7.640626-17.066406-17.066407v-51.199219c0-9.425781 7.640624-17.066406 17.066406-17.066406zm0 0"/><path d="m384 8.535156h8.535156c9.425782 0 17.066406 7.640625 17.066406 17.066406v51.199219c0 9.425781-7.640624 17.066407-17.066406 17.066407h-8.535156c-9.425781 0-17.066406-7.640626-17.066406-17.066407v-51.199219c0-9.425781 7.640625-17.066406 17.066406-17.066406zm0 0"/></g><path d="m384 102.398438h8.535156c14.136719 0 25.597656-11.460938 25.597656-25.597657v-17.066406h59.734376c9.425781 0 17.066406 7.640625 17.066406 17.066406 0 4.710938 3.820312 8.53125 8.53125 8.53125 4.714844 0 8.535156-3.820312 8.535156-8.53125 0-18.851562-15.28125-34.132812-34.132812-34.132812h-59.734376v-17.066407c0-14.140624-11.460937-25.601562-25.597656-25.601562h-8.535156c-14.136719 0-25.601562 11.460938-25.601562 25.601562v17.066407h-76.796876v-17.066407c0-14.140624-11.464843-25.601562-25.601562-25.601562h-8.535156c-14.136719 0-25.597656 11.460938-25.597656 25.601562v17.066407h-68.265626v-17.066407c0-14.140624-11.464843-25.601562-25.601562-25.601562h-8.535156c-14.136719 0-25.597656 11.460938-25.597656 25.601562v17.066407h-59.734376c-18.851562 0-34.132812 15.28125-34.132812 34.132812v128c0 4.710938 3.820312 8.53125 8.535156 8.53125 4.710938 0 8.53125-3.820312 8.53125-8.53125v-51.199219h477.867188v324.265626c0 9.425781-7.640625 17.066406-17.066406 17.066406h-443.734376c-9.425781 0-17.066406-7.640625-17.066406-17.066406v-213.332032c0-4.714844-3.820312-8.535156-8.53125-8.535156-4.714844 0-8.535156 3.820312-8.535156 8.535156v213.332032c0 18.851562 15.28125 34.132812 34.132812 34.132812h443.734376c18.851562 0 34.132812-15.28125 34.132812-34.132812v-358.402344c0-4.710938-3.820312-8.53125-8.535156-8.53125-4.710938 0-8.53125 3.820312-8.53125 8.53125v17.070312h-477.867188v-59.734375c0-9.425781 7.640625-17.066406 17.066406-17.066406h59.734376v17.066406c0 14.136719 11.460937 25.597657 25.597656 25.597657h8.535156c6.789062 0 13.300781-2.695313 18.101562-7.496094 4.800782-4.800782 7.5-11.3125 7.5-18.101563v-17.066406h68.265626v17.066406c0 14.136719 11.460937 25.597657 25.597656 25.597657h8.535156c14.136719 0 25.601562-11.460938 25.601562-25.597657v-17.066406h76.796876v17.066406c0 14.136719 11.464843 25.597657 25.601562 25.597657zm-247.464844-25.597657c0 4.710938-3.824218 8.53125-8.535156 8.53125h-8.535156c-4.710938 0-8.53125-3.820312-8.53125-8.53125v-51.199219c0-4.714843 3.820312-8.535156 8.53125-8.535156h8.535156c4.710938 0 8.535156 3.820313 8.535156 8.535156zm128 0c0 4.710938-3.824218 8.53125-8.535156 8.53125h-8.535156c-4.710938 0-8.53125-3.820312-8.53125-8.53125v-51.199219c0-4.714843 3.820312-8.535156 8.53125-8.535156h8.535156c4.710938 0 8.535156 3.820313 8.535156 8.535156zm110.929688-51.199219c0-4.714843 3.824218-8.535156 8.535156-8.535156h8.535156c4.710938 0 8.53125 3.820313 8.53125 8.535156v51.199219c0 4.710938-3.820312 8.53125-8.53125 8.53125h-8.535156c-4.710938 0-8.535156-3.820312-8.535156-8.53125zm0 0"/><path d="m315.734375 392.535156h-42.667969c-4.710937 0-8.53125 3.820313-8.53125 8.53125 0 4.714844 3.820313 8.535156 8.53125 8.535156h42.667969c14.449219 0 28.226563-6.105468 37.933594-16.808593s14.4375-25.011719 13.027343-39.394531c-3.257812-26.601563-25.996093-46.5-52.796874-46.199219h-28.75c-2.175782 0-3.265626-.359375-3.546876-.289063v-50.910156h68.265626c4.710937 0 8.53125-3.820312 8.53125-8.535156 0-4.710938-3.820313-8.53125-8.53125-8.53125h-68.265626c-9.425781 0-17.066406 7.640625-17.066406 17.066406v51.199219c0 8.492187 6.371094 17.066406 20.613282 17.066406h28.75c18.027343-.378906 33.457031 12.847656 35.839843 30.722656.964844 9.605469-2.179687 19.167969-8.664062 26.324219-6.480469 7.15625-15.6875 11.234375-25.339844 11.222656zm0 0"/><path d="m145.066406 281.601562v85.332032c0 23.5625 19.101563 42.667968 42.667969 42.667968 23.5625 0 42.664063-19.105468 42.664063-42.667968v-85.332032c0-23.566406-19.101563-42.667968-42.664063-42.667968-23.566406 0-42.667969 19.101562-42.667969 42.667968zm68.265625 0v85.332032c0 14.136718-11.460937 25.601562-25.597656 25.601562-14.140625 0-25.601563-11.464844-25.601563-25.601562v-85.332032c0-14.140624 11.460938-25.601562 25.601563-25.601562 14.136719 0 25.597656 11.460938 25.597656 25.601562zm0 0"/><path d="m59.734375 196.265625c4.710937 0 8.53125-3.820313 8.53125-8.53125 0-4.714844-3.820313-8.535156-8.53125-8.535156h-8.535156c-4.710938 0-8.53125 3.820312-8.53125 8.535156 0 4.710937 3.820312 8.53125 8.53125 8.53125zm0 0"/><path d="m238.933594 187.734375c0-4.714844-3.820313-8.535156-8.535156-8.535156h-136.53125c-4.714844 0-8.535157 3.820312-8.535157 8.535156 0 4.710937 3.820313 8.53125 8.535157 8.53125h136.53125c4.714843 0 8.535156-3.820313 8.535156-8.53125zm0 0"/><path d="m460.800781 469.332031c4.710938 0 8.53125-3.820312 8.53125-8.53125 0-4.714843-3.820312-8.535156-8.53125-8.535156h-8.535156c-4.710937 0-8.53125 3.820313-8.53125 8.535156 0 4.710938 3.820313 8.53125 8.53125 8.53125zm0 0"/><path d="m273.066406 460.800781c0 4.710938 3.820313 8.53125 8.535156 8.53125h136.53125c4.714844 0 8.535157-3.820312 8.535157-8.53125 0-4.714843-3.820313-8.535156-8.535157-8.535156h-136.53125c-4.714843 0-8.535156 3.820313-8.535156 8.535156zm0 0"/></svg>