<svg height="512pt" viewBox="0 0 512 512" width="512pt" xmlns="http://www.w3.org/2000/svg"><path d="m364.097656 7.5h-201.195312c-13.0625 0-23.652344 10.589844-23.652344 23.652344v224.847656l116.75 19.5 131.75-19.5v-224.847656c0-13.0625-10.589844-23.652344-23.652344-23.652344zm0 0" fill="#2edbd9"/><path d="m174.25 42.5h178.5v178.5h-178.5zm0 0" fill="#ebebeb"/><path d="m174.25 42.5h20v178.5h-20zm0 0" fill="#d5d4da"/><path d="m263.5 98.703125c-42.234375-41.273437-112.191406 25.472656-2.074219 84.46875 1.292969.695313 2.855469.695313 4.148438 0 110.117187-58.996094 40.160156-125.742187-2.074219-84.46875zm0 0" fill="#00bad4"/><path d="m256 256h-224.847656c-13.0625 0-23.652344 10.589844-23.652344 23.652344v224.847656h248.5l22.5-124.25zm0 0" fill="#ffaacb"/><path d="m42.5 291h178.5v178.5h-178.5zm0 0" fill="#ebebeb"/><path d="m42.5 291h20v178.5h-20zm0 0" fill="#d5d4da"/><path d="m480.847656 256h-224.847656v248.5h248.5v-224.847656c0-13.0625-10.589844-23.652344-23.652344-23.652344zm0 0" fill="#f5e277"/><path d="m291 291h178.5v178.5h-178.5zm0 0" fill="#ebebeb"/><path d="m291 291h20v178.5h-20zm0 0" fill="#d5d4da"/><path d="m433.074219 375.710938c4.984375-4.859376 2.234375-13.324219-4.652344-14.324219l-23.714844-3.445313c-2.734375-.398437-5.097656-2.117187-6.320312-4.59375l-10.605469-21.488281c-3.082031-6.242187-11.980469-6.242187-15.058594 0l-10.605468 21.488281c-1.222657 2.476563-3.589844 4.195313-6.324219 4.59375l-23.714844 3.445313c-6.886719 1-9.636719 9.464843-4.652344 14.324219l17.160157 16.722656c1.980468 1.929687 2.882812 4.710937 2.417968 7.433594l-4.054687 23.617187c-1.175781 6.859375 6.023437 12.089844 12.183593 8.851563l21.210938-11.152344c2.445312-1.285156 5.367188-1.285156 7.8125 0l21.210938 11.152344c6.160156 3.238281 13.359374-1.992188 12.183593-8.851563l-4.050781-23.617187c-.46875-2.722657.4375-5.503907 2.414062-7.433594zm0 0" fill="#f0bc63"/><path d="m178.28125 362.746094h-29.027344v-29.027344c0-3.570312-2.894531-6.464844-6.464844-6.464844h-22.074218c-3.574219 0-6.46875 2.894532-6.46875 6.464844v29.027344h-29.027344c-3.570312 0-6.464844 2.894531-6.464844 6.464844v22.078124c0 3.570313 2.894532 6.464844 6.464844 6.464844h29.027344v29.027344c0 3.570312 2.894531 6.464844 6.464844 6.464844h22.078124c3.570313 0 6.464844-2.894532 6.464844-6.464844v-29.027344h29.027344c3.570312 0 6.464844-2.894531 6.464844-6.464844v-22.078124c0-3.570313-2.894532-6.464844-6.464844-6.464844zm0 0" fill="#ff82b3"/><path d="m35 291v109.90625c0 4.140625 3.359375 7.5 7.5 7.5s7.5-3.359375 7.5-7.5v-102.40625h163.5v163.5h-163.5v-31.09375c0-4.144531-3.359375-7.5-7.5-7.5s-7.5 3.355469-7.5 7.5v38.59375c0 4.140625 3.359375 7.5 7.5 7.5h178.5c4.140625 0 7.5-3.359375 7.5-7.5v-178.5c0-4.140625-3.359375-7.5-7.5-7.5h-178.5c-4.140625 0-7.5 3.359375-7.5 7.5zm0 0"/><path d="m480.847656 248.5h-85.597656v-217.347656c0-17.175782-13.976562-31.152344-31.152344-31.152344h-131.480468c-4.140626 0-7.5 3.359375-7.5 7.5s3.359374 7.5 7.5 7.5h131.480468c8.90625 0 16.152344 7.246094 16.152344 16.152344v217.347656h-233.5v-217.347656c0-8.90625 7.246094-16.152344 16.152344-16.152344h39.714844c4.144531 0 7.5-3.359375 7.5-7.5s-3.355469-7.5-7.5-7.5h-39.714844c-17.175782 0-31.152344 13.976562-31.152344 31.152344v217.347656h-100.597656c-17.175782 0-31.152344 13.976562-31.152344 31.152344v224.847656c0 4.140625 3.359375 7.5 7.5 7.5h497c4.140625 0 7.5-3.359375 7.5-7.5v-154.59375c0-4.144531-3.359375-7.5-7.5-7.5s-7.5 3.355469-7.5 7.5v147.09375h-233.5v-233.5h217.347656c8.90625 0 16.152344 7.246094 16.152344 16.152344v40.253906c0 4.140625 3.359375 7.5 7.5 7.5s7.5-3.359375 7.5-7.5v-40.253906c0-17.175782-13.976562-31.152344-31.152344-31.152344zm-232.347656 248.5h-233.5v-217.347656c0-8.90625 7.246094-16.152344 16.152344-16.152344h217.347656zm0 0"/><path d="m291 283.5c-4.140625 0-7.5 3.359375-7.5 7.5v178.5c0 4.140625 3.359375 7.5 7.5 7.5h178.5c4.140625 0 7.5-3.359375 7.5-7.5v-178.5c0-4.140625-3.359375-7.5-7.5-7.5zm171 178.5h-163.5v-163.5h163.5zm0 0"/><path d="m166.75 42.5v178.5c0 4.140625 3.359375 7.5 7.5 7.5h178.5c4.140625 0 7.5-3.359375 7.5-7.5v-178.5c0-4.140625-3.359375-7.5-7.5-7.5h-178.5c-4.140625 0-7.5 3.359375-7.5 7.5zm15 7.5h163.5v163.5h-163.5zm0 0"/><path d="m292.664062 78.410156c-10.230468 0-20.378906 3.648438-29.164062 10.382813-8.785156-6.734375-18.933594-10.382813-29.164062-10.382813-18.296876 0-34.027344 11.765625-38.257813 28.609375-2.226563 8.871094-2.367187 23.074219 9.585937 40.382813 10.476563 15.171875 28.046876 29.429687 52.21875 42.378906 3.480469 1.867188 7.753907 1.863281 11.234376 0 24.171874-12.949219 41.738281-27.207031 52.214843-42.378906 11.953125-17.308594 11.808594-31.515625 9.582031-40.382813-4.226562-16.84375-19.957031-28.609375-38.25-28.609375zm-29.164062 97.355469c-29.703125-16.222656-58.773438-41.578125-52.871094-65.09375 2.589844-10.324219 12.117188-17.261719 23.707032-17.261719 5.9375 0 14.910156 1.851563 23.921874 10.660156 2.914063 2.847657 7.570313 2.847657 10.484376 0 9.011718-8.808593 17.980468-10.660156 23.917968-10.660156 11.585938 0 21.113282 6.9375 23.707032 17.261719 5.902343 23.515625-23.167969 48.875-52.867188 65.09375zm0 0"/><path d="m339.351562 397.804688c.210938.207031.308594.503906.257813.792968l-4.050781 23.621094c-2.183594 12.722656 11.644531 22.757812 23.0625 16.757812l21.210937-11.152343c.261719-.136719.574219-.136719.835938 0 0 0 21.179687 11.136719 21.210937 11.152343 11.417969 6.003907 25.242188-4.054687 23.0625-16.757812l-4.050781-23.621094c-.050781-.289062.046875-.585937.257813-.792968 0 0 17.136718-16.703126 17.160156-16.726563 9.265625-9.03125 3.949218-25.257813-8.8125-27.113281l-23.710938-3.445313c-.292968-.042969-.546875-.226562-.675781-.492187l-10.605469-21.488282c-5.710937-11.566406-22.808594-11.546874-28.511718 0l-10.601563 21.488282c-.132813.265625-.382813.449218-.675781.492187 0 0-23.6875 3.441407-23.714844 3.445313-12.792969 1.859375-18.070312 18.089844-8.808594 27.113281zm-6.917968-28.382813c.097656-.304687.355468-.558594.726562-.613281l23.710938-3.445313c5.179687-.75 9.65625-4.003906 11.972656-8.695312 0 0 10.480469-21.238281 10.601562-21.484375.332032-.675782 1.28125-.667969 1.609376-.003906l10.605468 21.488281c2.316406 4.691406 6.789063 7.945312 11.96875 8.695312 0 0 23.410156 3.402344 23.710938 3.445313.742187.109375 1.027344 1.015625.5 1.53125l-17.160156 16.726562c-3.746094 3.652344-5.457032 8.910156-4.570313 14.070313 0 0 4.015625 23.414062 4.050781 23.617187.125.738282-.65625 1.285156-1.300781.945313l-21.210937-11.152344c-4.589844-2.414063-10.203126-2.410156-14.792969 0 0 0-21.136719 11.109375-21.210938 11.152344-.621093.324219-1.433593-.167969-1.300781-.945313l4.050781-23.617187c.882813-5.160157-.824219-10.417969-4.574219-14.070313 0 0-16.960937-16.535156-17.15625-16.726562-.269531-.261719-.328124-.617188-.230468-.917969zm0 0"/><path d="m142.789062 319.753906h-22.074218c-7.703125 0-13.96875 6.265625-13.96875 13.964844v21.527344h-21.527344c-7.699219 0-13.964844 6.265625-13.964844 13.964844v22.074218c0 7.703125 6.265625 13.96875 13.964844 13.96875h21.527344v21.523438c0 7.703125 6.265625 13.964844 13.96875 13.964844h22.074218c7.699219 0 13.964844-6.261719 13.964844-13.964844v-21.523438h21.527344c7.699219 0 13.964844-6.265625 13.964844-13.96875v-22.074218c0-7.699219-6.265625-13.964844-13.964844-13.964844h-21.527344v-21.527344c0-7.699219-6.265625-13.964844-13.964844-13.964844zm34.457032 50.492188v20.007812h-27.992188c-4.144531 0-7.5 3.355469-7.5 7.5v27.992188h-20.007812v-27.992188c0-4.144531-3.355469-7.5-7.5-7.5h-27.992188v-20.007812h27.992188c4.144531 0 7.5-3.355469 7.5-7.5v-27.992188h20.007812v27.992188c0 4.144531 3.359375 7.5 7.5 7.5zm0 0"/></svg>