<svg height="512pt" viewBox="0 0 512 512.00001" width="512pt" xmlns="http://www.w3.org/2000/svg"><path d="m512 256c0 141.386719-114.617188 256-256 256-141.386719 0-256-114.613281-256-256 0-141.382812 114.613281-256 256-256 141.382812 0 256 114.617188 256 256zm0 0" fill="#ffd833"/><path d="m167.65625 21.828125v304.261719h-157.945312c-2.949219-10.375-5.257813-21.023438-6.867188-31.890625-1.878906-12.464844-2.83984375-25.222657-2.83984375-38.199219 0-97.929688 54.98046875-183.015625 135.76171875-226.0625 5.433594-2.894531 10.984375-5.601562 16.644531-8.109375zm0 0" fill="#f46d11"/><path d="m135.765625 29.9375v264.261719h-132.921875c-1.878906-12.464844-2.83984375-25.222657-2.83984375-38.199219 0-97.929688 54.98046875-183.015625 135.76171875-226.0625zm0 0" fill="#27ba9e"/><path d="m324.957031 59.183594c0 27.5625-21.976562 50.738281-51.722656 57.3125-5.519531 1.210937-11.285156 1.859375-17.242187 1.859375-38.085938 0-68.964844-26.5-68.964844-59.171875 0-32.683594 30.878906-59.183594 68.964844-59.183594 5.957031 0 11.722656.648438 17.242187 1.859375 29.746094 6.574219 51.722656 29.75 51.722656 57.324219zm0 0" fill="#151a1c"/><path d="m324.957031 59.183594c0 5.945312-1.027343 11.679687-2.925781 17.09375-14.035156-9.5625-30.25-16.152344-47.742188-18.890625-5.957031-.941407-12.070312-1.421875-18.285156-1.421875h-.011718c-5.484376 0-10.878907.375-16.164063 1.105468-5.625.773438-11.121094 1.945313-16.46875 3.496094-.917969.265625-1.847656-.40625-1.847656-1.363281 0-.007813 0-.011719 0-.019531 0-27.574219 21.984375-50.75 51.722656-57.324219 29.746094 6.574219 51.722656 29.75 51.722656 57.324219zm0 0" fill="#2f373b"/><path d="m382.121094 449.578125v29.246094c-34.375 19.507812-73.726563 31.285156-115.679688 32.964843-3.457031.136719-6.9375.210938-10.4375.210938-27.03125 0-53.070312-4.191406-77.53125-11.953125-11.964844-3.792969-23.542968-8.445313-34.679687-13.886719-4.714844-2.300781-9.355469-4.753906-13.910157-7.335937v-29.246094c0-44.347656 30.34375-81.617187 71.429688-92.152344 5.152344-1.324219 10.46875-2.222656 15.925781-2.664062 2.570313-.207031 5.160157-.3125 7.78125-.3125h61.953125c7.324219 0 14.453125.816406 21.296875 2.382812.804688.1875 1.617188.375 2.414063.585938 41.074218 10.542969 71.4375 47.8125 71.4375 92.160156zm0 0" fill="#dd104f"/><path d="m382.117188 449.578125v29.246094c-37.21875 21.117187-80.257813 33.175781-126.117188 33.175781-27.03125 0-53.070312-4.191406-77.53125-11.953125v-50.46875c0-52.539063 42.601562-95.128906 95.148438-95.128906h13.351562c52.558594 0 95.148438 42.589843 95.148438 95.128906zm0 0" fill="#f71c55"/><path d="m310.683594 357.417969v33.460937c0 16.457032-13.339844 29.796875-29.796875 29.796875h-49.777344c-16.457031 0-29.796875-13.339843-29.796875-29.796875v-33.453125c5.152344-1.324219 10.46875-2.222656 15.925781-2.664062 2.570313-.207031 5.160157-.3125 7.78125-.3125h61.953125c7.324219 0 14.453125.816406 21.296875 2.382812.804688.1875 1.617188.375 2.414063.585938zm0 0" fill="#f6ba97"/><path d="m225.019531 354.449219h48.601563c-28.933594 0-54.847656 12.914062-72.308594 33.289062v-30.3125c5.152344-1.324219 10.46875-2.222656 15.925781-2.664062 2.570313-.207031 5.160157-.3125 7.78125-.3125zm0 0" fill="#eaa27f"/><path d="m289.941406 317.800781v41.65625c0 15.25-10.058594 28.140625-23.90625 32.421875-3.171875.980469-6.550781 1.515625-10.042968 1.515625-18.746094 0-33.9375-15.195312-33.9375-33.9375v-41.65625zm0 0" fill="#eaa27f"/><path d="m289.941406 356.816406v2.640625c0 15.25-10.058594 28.140625-23.90625 32.421875-12.496094-3.84375-21.890625-14.707031-23.628906-28.003906 2.269531.140625 4.546875.210938 6.839844.210938 6.421875 0 12.714844-.511719 18.847656-1.515626 7.554688-1.214843 14.859375-3.160156 21.847656-5.753906zm0 0" fill="#f6ba97"/><path d="m161.355469 249.535156c0 15.710938-11.480469 28.742188-26.507813 31.160156-1.644531.265626-3.332031.40625-5.058594.40625-17.4375 0-31.566406-14.128906-31.566406-31.566406s14.128906-31.566406 31.566406-31.566406c1.726563 0 3.414063.140625 5.058594.40625 15.027344 2.417969 26.507813 15.445312 26.507813 31.160156zm0 0" fill="#f6ba97"/><path d="m161.355469 249.535156c0 15.710938-11.480469 28.742188-26.507813 31.160156-2.730468-9.929687-4.191406-20.378906-4.191406-31.160156 0-10.785156 1.457031-21.234375 4.191406-31.160156 15.027344 2.417969 26.507813 15.445312 26.507813 31.160156zm0 0" fill="#eaa27f"/><path d="m141.070312 249.535156c0 6.230469-5.050781 11.28125-11.28125 11.28125-6.230468 0-11.28125-5.050781-11.28125-11.28125 0-6.230468 5.050782-11.28125 11.28125-11.28125 6.230469 0 11.28125 5.050782 11.28125 11.28125zm0 0" fill="#eaa27f"/><path d="m350.640625 249.535156c0 15.710938 11.476563 28.742188 26.507813 31.160156 1.640624.265626 3.332031.40625 5.054687.40625 17.4375 0 31.566406-14.128906 31.566406-31.566406s-14.128906-31.566406-31.566406-31.566406c-1.722656 0-3.414063.140625-5.054687.40625-15.03125 2.417969-26.507813 15.445312-26.507813 31.160156zm0 0" fill="#f6ba97"/><path d="m350.640625 249.535156c0 15.710938 11.476563 28.742188 26.507813 31.160156 2.730468-9.929687 4.1875-20.378906 4.1875-31.160156 0-10.785156-1.457032-21.234375-4.1875-31.160156-15.03125 2.417969-26.507813 15.445312-26.507813 31.160156zm0 0" fill="#eaa27f"/><path d="m393.484375 249.535156c0 6.230469-5.050781 11.28125-11.28125 11.28125s-11.28125-5.050781-11.28125-11.28125c0-6.230468 5.050781-11.28125 11.28125-11.28125s11.28125 5.050782 11.28125 11.28125zm0 0" fill="#eaa27f"/><path d="m373.4375 188.039062v44.722657c0 58.441406-42.695312 106.921875-98.59375 115.921875-.191406.03125-.386719.0625-.578125.09375-5.945313.949218-12.046875 1.417968-18.273437 1.417968-64.855469 0-117.4375-52.578124-117.4375-117.433593v-44.722657c0-13.65625 2.332031-26.78125 6.636718-38.972656 16.058594-45.707031 59.609375-73.25 110.800782-73.25l.011718.523438c6.214844 0 12.328125-4.742188 18.285156-3.804688 56.171876 8.777344 99.148438 56.863282 99.148438 115.503906zm0 0" fill="#eaa27f"/><path d="m373.4375 188.039062v44.722657c0 58.441406-42.695312 106.921875-98.59375 115.921875-.191406.03125-.386719.0625-.578125.09375-56.171875-8.777344-99.136719-57.386719-99.136719-116.015625v-44.722657c0-58.640624 42.976563-106.203124 99.160156-114.980468 56.171876 8.777344 99.148438 56.339844 99.148438 114.980468zm0 0" fill="#f6ba97"/><path d="m319.066406 222.84375c0-10.773438-8.734375-19.507812-19.507812-19.507812-10.769532 0-19.503906 8.734374-19.503906 19.507812" fill="#eaa27f"/><path d="m225.390625 208.492188h71.394531v48.359374h-71.394531zm0 0" fill="#eaa27f"/><path d="m231.945312 222.84375c0-10.773438-8.730468-19.507812-19.503906-19.507812-10.773437 0-19.503906 8.734374-19.503906 19.507812" fill="#eaa27f"/><path d="m176.554688 229.765625v.011719c.289062 17.863281 14.753906 32.234375 32.617187 32.449218.785156.007813 1.570313.007813 2.351563-.003906 18.011718-.242187 32.460937-14.96875 32.460937-32.980468v.523437-10.449219l-.34375-12.964844c-.046875-1.769531-1.195313-3.308593-2.863281-3.890624-19.878906-6.925782-41.527344-6.878907-61.378906.125-1.695313.601562-2.84375 2.199218-2.84375 4v23.699218" fill="#c1dce5"/><path d="m269.027344 229.765625v.011719c.289062 17.863281 14.753906 32.234375 32.621094 32.449218.78125.007813 1.566406.007813 2.347656-.003906 18.011718-.242187 32.464844-14.96875 32.464844-32.980468v.523437-10.449219l-.347657-12.964844c-.046875-1.769531-1.195312-3.308593-2.863281-3.890624-19.878906-6.925782-41.527344-6.878907-61.375.125-1.699219.601562-2.84375 2.199218-2.84375 4v23.699218" fill="#c1dce5"/><g fill="#2f373b"><path d="m182.496094 230.285156h-10.449219v-23.699218c0-4 2.542969-7.585938 6.328125-8.925782 20.890625-7.371094 43.917969-7.421875 64.835938-.132812 3.703124 1.292968 6.261718 4.78125 6.367187 8.6875l.347656 13.105468v10.445313h-10.449219v-10.378906l-.328124-12.207031c-18.304688-6.21875-38.371094-6.179688-56.652344.113281zm0 0"/><path d="m274.96875 230.285156h-10.449219v-23.699218c0-4.003907 2.542969-7.589844 6.332031-8.925782 20.886719-7.375 43.910157-7.421875 64.832032-.132812 3.703125 1.289062 6.261718 4.777344 6.367187 8.683594l.347657 13.109374v10.445313h-10.449219v-10.378906l-.328125-12.207031c-18.304688-6.21875-38.367188-6.179688-56.652344.113281zm0 0"/><path d="m244.355469 206.351562h25.386719v10.449219h-25.386719zm0 0"/><path d="m373.4375 196.449219v10.972656l-28.429688 8.871094-.085937.03125-6.257813 2.078125-3.300781-9.914063 7.980469-2.652343.085938-.035157zm0 0"/><path d="m178.910156 208.488281-3.292968 9.914063-7.167969-2.378906-29.894531-9.25v-10.992188l31.472656 9.75zm0 0"/></g><path d="m269.324219 264.691406h-26.644531c-3.175782 0-5.746094-2.574218-5.746094-5.75 0-3.171875 2.570312-5.746094 5.746094-5.746094h26.644531c3.175781 0 5.746093 2.574219 5.746093 5.746094 0 3.175782-2.570312 5.75-5.746093 5.75zm0 0" fill="#eaa27f"/><path d="m256 301.050781c-9.832031 0-19.667969-2.464843-28.628906-7.394531-2.53125-1.386719-3.453125-4.566406-2.0625-7.09375s4.566406-3.449219 7.09375-2.0625c14.777344 8.125 32.421875 8.125 47.195312 0 2.527344-1.386719 5.707032-.46875 7.097656 2.0625 1.390626 2.527344.464844 5.707031-2.0625 7.09375-8.964843 4.929688-18.796874 7.394531-28.632812 7.394531zm0 0" fill="#eaa27f"/><path d="m228.375 226.445312c0 7.355469-5.964844 13.320313-13.324219 13.320313s-13.320312-5.964844-13.320312-13.320313c0-7.359374 5.960937-13.324218 13.320312-13.324218s13.324219 5.964844 13.324219 13.324218zm0 0" fill="#2f373b"/><path d="m310.265625 226.445312c0 7.355469-5.964844 13.320313-13.320313 13.320313-7.359374 0-13.324218-5.964844-13.324218-13.320313 0-7.359374 5.964844-13.324218 13.324218-13.324218 7.355469 0 13.320313 5.964844 13.320313 13.324218zm0 0" fill="#2f373b"/><path d="m225.65625 224.09375c0 3.152344-2.554688 5.707031-5.707031 5.707031-3.152344 0-5.710938-2.554687-5.710938-5.707031s2.558594-5.707031 5.710938-5.707031c3.152343 0 5.707031 2.554687 5.707031 5.707031zm0 0" fill="#fff"/><path d="m308.203125 224.09375c0 3.152344-2.554687 5.707031-5.707031 5.707031s-5.710938-2.554687-5.710938-5.707031 2.558594-5.707031 5.710938-5.707031 5.707031 2.554687 5.707031 5.707031zm0 0" fill="#fff"/><path d="m373.4375 188.039062c-88.628906 5.382813-117.433594-69.683593-117.433594-69.683593s-10.585937 27.574219-38.652344 48.105469c-18.242187 13.335937-43.875 23.699218-78.796874 21.578124 0-13.65625 2.332031-26.78125 6.636718-38.972656 14.335938-40.804687 50.59375-71.304687 94.636719-77.367187 5.285156-.730469 10.679687-1.105469 16.164063-1.105469h.011718c6.214844 0 12.328125.480469 18.285156 1.421875 56.171876 8.777344 99.148438 57.382813 99.148438 116.023437zm0 0" fill="#2f373b"/><path d="m217.363281 166.441406-.011719.019532c-18.242187 13.335937-43.875 23.699218-78.796874 21.578124 0-13.65625 2.332031-26.78125 6.636718-38.972656 14.335938-40.804687 50.59375-71.304687 94.636719-77.367187 0 0 16.164063 46.65625-22.464844 94.742187zm0 0" fill="#151a1c"/><path d="m256.003906 378.898438v94.09375c-47.03125 0-91.09375-12.683594-128.960937-34.816407v-40.53125c0-10.355469 8.390625-18.746093 18.742187-18.746093zm0 0" fill="#f46d11"/><path d="m256.003906 417.90625v94.09375c-47.03125 0-91.09375-12.6875-128.960937-34.816406v-40.53125c0-10.355469 8.390625-18.746094 18.742187-18.746094zm0 0" fill="#673389"/><path d="m256.003906 408.492188h-105.535156c-5.289062 0-9.574219-4.285157-9.574219-9.574219 0-5.285157 4.285157-9.570313 9.574219-9.570313h105.535156zm0 0" fill="#f2efea"/><path d="m256.003906 447.496094h-105.535156c-5.289062 0-9.574219-4.285156-9.574219-9.570313 0-5.289062 4.285157-9.574219 9.574219-9.574219h105.535156zm0 0" fill="#f2efea"/><path d="m266.453125 511.234375c0 .191406 0 .378906-.011719.554687-3.457031.136719-6.9375.210938-10.4375.210938-27.03125 0-53.070312-4.191406-77.53125-11.953125-11.964844-3.792969-23.542968-8.445313-34.679687-13.886719h97.582031c6.917969 0 13.1875 2.808594 17.730469 7.34375 4.535156 4.546875 7.347656 10.816406 7.347656 17.730469zm0 0" fill="#f6ba97"/><path d="m446.832031 289.121094v137.511718c-3.59375 4.03125-7.335937 7.949219-11.191406 11.742188-1.796875 1.765625-3.613281 3.511719-5.464844 5.226562-3.144531 2.914063-6.351562 5.757813-9.644531 8.515626v-162.996094l3.699219-226.082032.835937-50.84375c.09375-6.292968 3.511719-11.726562 7.992188-12.164062 4.953125-.480469 9.125 4.910156 9.238281 11.734375l1.140625 69.871094zm0 0" fill="#f46d11"/><path d="m434.023438 289.121094v137.511718c-.097657 4.03125-.191407 7.949219-.292969 11.742188-.023438.636719-.03125 1.273438-.054688 1.902344-.113281.125-.230469.230468-.34375.335937-1.046875 1.011719-2.089843 2.003907-3.15625 2.988281-3.144531 2.914063-6.351562 5.757813-9.644531 8.515626v-162.996094l3.699219-226.082032.835937-50.84375c.09375-6.292968 3.511719-11.726562 7.992188-12.164062.210937-.0195312.410156-.03125.617187-.03125.125 0 .21875 5.222656.230469 11.765625l.03125 69.871094zm0 0" fill="#d65a05"/><path d="m446.832031 320.492188v106.140624c-3.59375 4.03125-7.335937 7.949219-11.191406 11.742188-1.796875 1.765625-3.613281 3.511719-5.464844 5.226562-3.144531 2.914063-6.351562 5.757813-9.644531 8.515626v-131.625zm0 0" fill="#2f373b"/><path d="m458.335938 387.25v25.597656c-6.988282 9.007813-14.574219 17.546875-22.695313 25.527344-1.796875 1.765625-3.613281 3.511719-5.464844 5.226562-14.011719-.785156-25.128906-12.40625-25.128906-26.605468v-29.746094c0-14.714844 11.933594-26.644531 26.644531-26.644531 3.511719 0 6.855469.675781 9.925782 1.910156 3.367187 1.347656 6.394531 3.363281 8.914062 5.894531 4.816406 4.828125 7.804688 11.484375 7.804688 18.839844zm0 0" fill="#eaa27f"/><path d="m458.335938 387.25v25.597656c-6.988282 9.007813-14.574219 17.546875-22.695313 25.527344-6.519531-4.859375-10.742187-12.632812-10.742187-21.378906v-29.746094c0-11.203125 6.917968-20.792969 16.71875-24.734375 3.367187 1.347656 6.394531 3.363281 8.914062 5.894531 4.816406 4.828125 7.804688 11.484375 7.804688 18.839844zm0 0" fill="#f6ba97"/></svg>