<svg height="512pt" viewBox="0 0 512 512.01665" width="512pt" xmlns="http://www.w3.org/2000/svg"><path d="m469.339844 392.550781v68.265625h-375.464844c-18.851562 0-34.132812-15.28125-34.132812-34.132812 0-18.851563 15.28125-34.132813 34.132812-34.132813zm0 0" fill="#cbd1d7"/><path d="m421.382812 136.976562h-.082031c-16.726562-3.667968-67.5-11.09375-90.199219 28.585938-27.304687 47.789062 13.652344 40.960938 20.480469 75.09375 5.71875 28.84375-33.535156 57.6875-26.796875 94.71875-21.644531 9.628906-45.085937 14.574219-68.777344 14.507812 9.300782-95.144531-51.199218-68.265624-51.199218-119.464843 0-59.308594-47.273438-48.8125-79.785156-60.84375-16.472657-6.144531-26.796876-23.296875-32.683594-38.570313 14.195312-48.320312 49.023437-87.894531 95.144531-108.117187 4.269531 8.53125 11.605469 30.292969 3.757813 69.972656-10.496094 53.164063 51.453124 77.910156 91.132812 14.761719 21.335938-33.960938 71.765625-33.535156 113.664062-25.855469 11.738282 16.710937 20.324219 35.417969 25.34375 55.210937zm0 0" fill="#6ca4ea"/><g fill="#54ceaf"><path d="m256.007812 349.882812c-53.785156-.039062-104.410156-25.410156-136.628906-68.476562-32.222656-43.066406-42.269531-98.792969-27.125-150.402344h.085938c4.109375 11.597656 10.859375 22.085938 19.710937 30.632813 3.785157 3.441406 8.1875 6.132812 12.972657 7.9375 1.109374.425781 2.21875.769531 3.328124 1.109375 32.253907 10.324218 76.457032 2.390625 76.457032 59.734375 0 51.199219 60.5 24.320312 51.199218 119.464843zm0 0"/><path d="m396.039062 81.765625c-41.898437-7.679687-92.328124-8.105469-113.664062 25.855469-39.679688 63.148437-101.628906 38.402344-91.132812-14.761719 7.847656-39.679687.511718-61.441406-3.757813-69.972656 74.660156-32.691407 162.015625-8.027344 208.554687 58.878906zm0 0"/><path d="m426.675781 179.214844c0 14.394531-1.804687 28.726562-5.375 42.667968-.683593 2.730469-1.453125 5.460938-2.304687 8.105469-.855469 2.648438-1.707032 5.207031-2.644532 7.765625-15.980468 43.636719-49.039062 78.886719-91.566406 97.621094-6.738281-37.03125 32.515625-65.875 26.796875-94.71875-6.828125-34.132812-47.785156-27.304688-20.480469-75.09375 22.699219-39.679688 73.472657-32.253906 90.199219-28.585938h.082031c3.550782 13.796876 5.328126 27.992188 5.292969 42.238282zm0 0"/></g><path d="m59.902344 430.019531c2.207031 17.808594 17.480468 31.089844 35.421875 30.796875h399.617187c4.714844 0 8.535156 3.820313 8.535156 8.535156v25.597657c0 4.714843-3.820312 8.535156-8.535156 8.535156h-406.828125c-43.128906.15625-78.480469-34.1875-79.570312-77.304687.339843-42.191407 34.605469-76.230469 76.796875-76.296876h409.601562c4.714844 0 8.535156 3.820313 8.535156 8.535157v25.597656c0 4.714844-3.820312 8.535156-8.535156 8.535156h-401.066406c-9.632812 0-18.820312 4.070313-25.289062 11.207031-6.46875 7.136719-9.625 16.675782-8.683594 26.261719zm0 0" fill="#eb6371"/><path d="m494.941406 341.351562h-51.199218c-4.714844 0-8.535157 3.820313-8.535157 8.53125 0 4.714844 3.820313 8.535157 8.535157 8.535157h51.199218v25.597656h-401.066406c-2.949219.007813-5.886719.316406-8.773438.921875-.511718.113281-.988281.34375-1.507812.480469-2.28125.53125-4.515625 1.253906-6.675781 2.15625-.910157.394531-1.707031.964843-2.617188 1.425781-1.636719.796875-3.21875 1.699219-4.738281 2.707031-1.066406.742188-2.003906 1.636719-3.003906 2.472657-1.1875.953124-2.328125 1.96875-3.410156 3.039062-.265626.273438-.589844.476562-.855469.757812-.683594.75-1.160157 1.640626-1.785157 2.433594-.945312 1.164063-1.835937 2.371094-2.660156 3.625-.691406 1.109375-1.273437 2.253906-1.851562 3.414063-.746094 1.429687-1.410156 2.898437-1.988282 4.402343-.417968 1.144532-.75 2.304688-1.085937 3.484376-.449219 1.597656-.804687 3.222656-1.066406 4.863281-.195313 1.289062-.304688 2.558593-.390625 3.863281-.042969.914062-.257813 1.765625-.257813 2.621094 0 .742187.179688 1.433594.222657 2.167968.042968.734376-.085938 1.3125 0 1.980469.078124.792969.332031 1.515625.453124 2.292969.203126 1.339844.453126 2.644531.777344 3.945312.324219 1.296876.664063 2.3125 1.074219 3.410157.566406 1.671875 1.242187 3.304687 2.023437 4.890625.203126.410156.425782.8125.648438 1.210937 7.316406 13.9375 21.730469 22.695313 37.46875 22.769531h401.066406v25.597657h-406.828125c-19.246093-.132813-37.652343-7.886719-51.199219-21.5625-12.671874-12.421875-19.820312-29.410157-19.839843-47.15625.3125-37.496094 30.769531-67.75 68.265625-67.8125h307.203125c4.710937 0 8.53125-3.820313 8.53125-8.535157 0-4.710937-3.820313-8.53125-8.53125-8.53125h-60.671875c29.007812-13.636718 53.839844-34.78125 71.925781-61.246093.207031-.230469.503906-.332031.683594-.597657 3.34375-4.789062 6.382812-9.785156 9.097656-14.957031.203125-.429687.371094-.875.5-1.332031 3.9375-7.246094 7.355469-14.761719 10.242187-22.484375.996094-2.722656 1.988282-5.539063 2.746094-8.074219.914063-2.832031 1.707032-5.75 2.457032-8.617187 3.761718-14.644531 5.671874-29.707031 5.683593-44.828125.027344-14.964844-1.839843-29.875-5.5625-44.371094-5.253906-20.738281-14.25-40.339844-26.546875-57.847656v-.058594c-48.863281-70.292969-140.617187-96.210938-219.035156-61.867188-48.289062 21.070313-84.792969 62.414063-99.71875 112.945313-.078125.207031-.214844.367187-.273438.574219-4.839843 16.4375-7.285156 33.488281-7.261718 50.625 0 4.714844 3.820312 8.535156 8.53125 8.535156 4.714844 0 8.535156-3.820312 8.535156-8.535156 0-7.878906.570312-15.75 1.707031-23.550782.308594.445313.683594.855469 1 1.28125.945313 1.320313 1.953125 2.558594 3 3.855469.703125.855469 1.402344 1.707031 2.144531 2.5 1.132813 1.246094 2.335938 2.40625 3.574219 3.558594.785157.734375 1.535157 1.476563 2.363281 2.167969 1.160157.964844 2.40625 1.828125 3.652344 2.695312-.128906 2.492188-.359375 4.976563-.359375 7.492188.105469 46.738281 22.644531 90.585937 60.589844 117.871094 3.828125 2.753906 9.164063 1.882812 11.914063-1.949219 2.753906-3.828125 1.878906-9.164063-1.949219-11.914063-33.417969-24.003906-53.3125-62.5625-53.503907-103.707031 6.894532 1.875 13.882813 3.398437 20.933594 4.566406 27.484375 4.980469 47.332032 8.582031 47.332032 46.335938 0 25.488281 13.449218 35.589843 25.320312 44.5.921875.691406 1.851562 1.390625 2.773438 2.097656l.589843.453125c.722657.5625 1.441407 1.117188 2.15625 1.707031l.921875.761719c.597656.5 1.203125.996094 1.792969 1.515625.339844.300781.675781.617187 1.015625.921875.539062.496094 1.082031.992188 1.613281 1.511719.367188.359375.707031.734375 1.066407 1.09375.496093.511719.988281 1.023437 1.46875 1.570312.355468.398438.707031.851563 1.058593 1.253907.347657.398437.902344 1.089843 1.335938 1.707031.4375.613281.691406.953125 1.035156 1.441406.339844.484375.808594 1.175781 1.195313 1.800781.382812.621094.65625 1.082032.980468 1.644532.324219.5625.726563 1.296874 1.074219 1.980468.351563.683594.597656 1.230469.855469 1.859375.253906.632813.636718 1.445313.9375 2.203125.296875.757813.539062 1.375.785156 2.082032.246094.707031.546875 1.621093.800781 2.457031.257813.835937.460938 1.535156.667969 2.339843.203125.800782.441406 1.808594.648438 2.738282.203124.929687.367187 1.707031.527343 2.558594.164063.855468.332031 2.03125.476563 3.074218.148437 1.039063.273437 1.882813.378906 2.882813.101562 1 .210938 2.269531.296875 3.414062s.160156 2.082031.214844 3.183594c.058593 1.234375.074219 2.558594.09375 3.863281 0 1.144532.050781 2.261719 0 3.457032 0 1.40625-.078125 2.910156-.128907 4.394531-.042968 1.230469-.070312 2.414062-.136718 3.695312v.5625c-67.910156-3.074219-126.609375-48.375-146.800782-113.289062-1.414062-4.496094-6.203124-6.992188-10.699218-5.578125-4.496094 1.414062-6.996094 6.203125-5.582032 10.699218 14.90625 47.808594 49.238282 87.140626 94.59375 108.375h-94.261718c-46.878906.0625-84.957032 37.886719-85.3320315 84.769532-.0195313 22.289062 8.9218755 43.652344 24.8085935 59.289062 16.75 16.886719 39.511719 26.453125 63.296875 26.605469h406.828125c9.425782 0 17.066406-7.640625 17.066406-17.066406v-25.597657c0-9.425781-7.640624-17.066406-17.066406-17.066406h-17.066406v-51.203125h17.066406c9.425782 0 17.066406-7.640625 17.066406-17.066406v-25.597656c0-9.425781-7.640624-17.066407-17.066406-17.066407zm-81.917968-121.542968c-.640626 2.5625-1.351563 5.121094-2.203126 7.730468-.71875 2.398438-1.597656 4.875-2.484374 7.289063-3.332032 9.082031-7.476563 17.84375-12.382813 26.179687-.132813.238282-.261719.480469-.40625.726563-15.074219 25.371094-36.738281 46.179687-62.695313 60.21875v-.136719c.355469-2.765625.925782-5.496094 1.707032-8.175781.179687-.636719.375-1.285156.578125-1.925781.792969-2.5625 1.707031-5.121094 2.757812-7.597656l.136719-.332032c1.152344-2.695312 2.449219-5.367187 3.789062-8.027344l1.050782-2.066406c1.273437-2.457031 2.5625-4.902344 3.871094-7.332031 8.125-15.128906 16.511718-30.71875 13.226562-47.375-2.792969-12.261719-9.6875-23.203125-19.539062-31.019531-10.292969-9.617188-15.464844-14.445313-1.902344-38.167969 1.382812-2.398437 2.957031-4.679687 4.707031-6.828125.503906-.640625 1.050781-1.21875 1.589844-1.816406 1.222656-1.394532 2.523437-2.722656 3.898437-3.96875.597656-.539063 1.195313-1.082032 1.808594-1.585938 1.570312-1.285156 3.210938-2.46875 4.925781-3.550781.367188-.238281.714844-.519531 1.089844-.742187 2.074219-1.230469 4.222656-2.324219 6.433594-3.277344.582031-.246094 1.179687-.453125 1.769531-.683594 1.707031-.65625 3.359375-1.253906 5.066406-1.757812.71875-.210938 1.441406-.417969 2.167969-.613282 1.742187-.449218 3.492187-.835937 5.25-1.160156.554687-.101562 1.109375-.230469 1.707031-.324219 2.300782-.367187 4.605469-.648437 6.882813-.855469l1.128906-.058593c1.929687-.125 3.832031-.195313 5.707031-.214844h2.226563c1.128906 0 2.238281 0 3.328125.085937.769531 0 1.519531.078126 2.269531.128907 1.078125.070312 2.136719.144531 3.175781.238281.71875.070312 1.417969.128906 2.109375.207031 1.015625.109375 2.011719.230469 2.976563.355469l1.910156.265625c.957031.136719 1.871094.289063 2.765625.4375l1.015625.175781c2.507812 11.484375 3.75 23.207032 3.703125 34.960938.003906 13.695312-1.71875 27.332031-5.117187 40.59375zm-157.015626-202.726563c45.691407.023438 89.25 19.320313 119.960938 53.148438h-.210938c-5.496093-.574219-10.753906-.855469-15.882812-1.050781-.851562 0-1.773438-.078126-2.644531-.09375-4.878907-.085938-9.558594 0-14.078125.308593-.90625.058594-1.800782.117188-2.691406.195313-4.488282.359375-8.820313.851562-12.933594 1.621094-.632813.109374-1.230469.253906-1.851563.375-4.097656.777343-8.140625 1.789062-12.117187 3.039062l-.222656.066406c-3.714844 1.226563-7.34375 2.710938-10.855469 4.4375-.511719.246094-1.039063.476563-1.542969.734375-3.140625 1.605469-6.15625 3.441407-9.03125 5.488281-.519531.382813-1.039062.765626-1.550781 1.160157-2.738281 2.066406-5.308594 4.347656-7.679688 6.824219-.351562.375-.675781.785156-1.015625 1.171874-2.425781 2.648438-4.613281 5.503907-6.546875 8.53125-20.265625 32.265626-44.117187 37.070313-58.402343 31.410157-14.09375-5.597657-20.820313-21.332031-17.125-39.976563.929687-4.726562 1.613281-9.15625 2.160156-13.433594.179687-1.378906.296875-2.667968.441406-4 .300781-2.859374.546875-5.617187.699219-8.261718.078125-1.347656.148437-2.660156.1875-3.957032.085937-2.613281.097656-5.121093.042969-7.484374 0-.980469 0-2.007813-.050782-2.953126-.125-3.167968-.355468-6.160156-.691406-8.933593-.074219-.691407-.195312-1.289063-.289062-1.964844-.28125-2.082031-.597657-4.078125-.972657-5.972656-.179687-.902344-.367187-1.707031-.5625-2.558594-.351562-1.503906-.699219-2.917969-1.085937-4.269531-.210938-.757813-.417969-1.507813-.648438-2.21875-.09375-.304688-.175781-.664063-.273437-.953125 18.359375-6.953125 37.835937-10.488281 57.464843-10.429688zm-42.667968 213.335938c0-52.003907-34.003906-58.171875-61.335938-63.148438-7.691406-1.203125-15.277344-2.988281-22.699218-5.339843 1.378906-10.535157 4.074218-20.855469 8.023437-30.722657 1.726563-4.359375-.386719-9.296875-4.734375-11.054687-4.347656-1.761719-9.300781.320312-11.085938 4.65625-3.433593 8.484375-6.046874 17.277344-7.808593 26.257812-.402344-.453125-.785157-.914062-1.160157-1.382812-.683593-.855469-1.359374-1.707032-1.988281-2.519532-.503906-.699218-.984375-1.40625-1.460937-2.113281-.582032-.855469-1.144532-1.707031-1.707032-2.5625-.433593-.714843-.851562-1.433593-1.261718-2.15625-.496094-.855469-.964844-1.707031-1.410156-2.5625-.355469-.691406-.714844-1.375-1.039063-2.054687-.425781-.855469-.855469-1.707032-1.203125-2.5625-.273438-.597656-.546875-1.203125-.792969-1.773438l-.292969-.800781c12.996094-41.753906 42.402344-76.433594 81.46875-96.078125.445313 1.5.855469 3.21875 1.28125 5.070312.109376.5.203126 1.074219.304688 1.609376.300781 1.519531.566406 3.160156.796875 4.890624.09375.683594.1875 1.359376.273437 2.074219.253907 2.328125.457032 4.796875.5625 7.492188v.394531c.101563 2.796875.058594 5.859375-.0625 9.0625 0 .917969-.101562 1.890625-.160156 2.847656-.144531 2.5-.367187 5.121094-.675781 7.886719-.117187 1.082031-.230469 2.15625-.375 3.285156-.503906 3.832031-1.109375 7.808594-1.953125 12.089844-5.273438 26.734375 5.800781 50.5 27.578125 59.152344 7.648437 2.925781 15.910156 3.878906 24.023437 2.765625l1.398438-.195313c4.820312-.753906 9.53125-2.113281 14.011719-4.046875.5-.207031 1.003906-.429687 1.511719-.664062 5.113281-2.359375 9.925781-5.320313 14.34375-8.816406.546874-.425782 1.082031-.851563 1.621093-1.304688 5.140625-4.285156 9.820313-9.089844 13.96875-14.34375.554688-.691406 1.109375-1.398438 1.65625-2.117188 2.253907-2.953124 4.480469-6.058593 6.648438-9.496093 1.160156-1.855469 2.457031-3.621094 3.871093-5.292969.402344-.46875.855469-.851562 1.273438-1.304688 1.019531-1.148437 2.09375-2.246093 3.226562-3.285156.542969-.484375 1.152344-.894531 1.707032-1.355468 1.082031-.855469 2.164062-1.785157 3.328125-2.5625.636719-.433594 1.339843-.800782 2.003906-1.21875 1.160156-.714844 2.3125-1.449219 3.539063-2.082032.726562-.382812 1.503906-.699218 2.253906-1.050781 1.230468-.578125 2.449218-1.167969 3.730468-1.707031.800782-.3125 1.636719-.570313 2.449219-.851563 1.296875-.460937 2.558594-.921875 3.917969-1.3125.851562-.257812 1.703125-.453125 2.625-.683593 1.351562-.351563 2.6875-.699219 4.070312-.992188.855469-.1875 1.820313-.332031 2.730469-.492188 1.410157-.257812 2.808594-.511718 4.269531-.710937.929688-.125 1.859376-.21875 2.796876-.332031 1.460937-.160156 2.917968-.324219 4.394531-.441406.949219-.070313 1.894531-.121094 2.851562-.171876 1.484375-.085937 2.96875-.164062 4.472657-.207031h2.925781 4.503906c.992187 0 1.972656.0625 2.960937.09375 1.496094.054688 2.996094.113281 4.5.199219.996094.058594 2.003907.128906 3.003907.203125 1.472656.113281 2.949219.222656 4.417969.359375l3.082031.316406c1.40625.152344 2.816406.304688 4.214843.484375 1.082032.128907 2.160157.273438 3.234376.425781 1.304687.179688 2.609374.359376 3.898437.554688l3.414063.546875 1.773437.300781c7.671875 11.417969 13.8125 23.792969 18.269531 36.804688-1.585937-.179688-3.265625-.34375-4.988281-.472656-.683594-.058594-1.402344-.082032-2.101563-.125-1.144531-.078126-2.304687-.136719-3.5-.179688-.910156 0-1.839843-.050781-2.78125-.070312-1.074218 0-2.167968 0-3.277343 0-.988281 0-1.96875 0-2.976563.0625-1.195312.042968-2.398437.117187-3.617187.195312-.941407.058594-1.871094.101562-2.824219.195312-2.058594.1875-4.132812.425782-6.222656.742188-.851563.128906-1.644532.308594-2.472656.453125-1.410157.246094-2.816407.511719-4.269532.851563-.945312.207031-1.875.460937-2.8125.703124-1.339844.347657-2.671875.722657-4.011718 1.140626-.921876.292968-1.84375.589843-2.765626.914062-1.441406.503906-2.867187 1.074219-4.265624 1.707031-.777344.332031-1.5625.621094-2.332032.980469-2.160156.988281-4.273437 2.089844-6.320312 3.292969-.394532.230469-.761719.511719-1.152344.753906-1.707031 1.046875-3.414062 2.175781-5.011719 3.410156-.679687.515625-1.339843 1.085938-2.011719 1.632813-1.324218 1.074218-2.613281 2.210937-3.875 3.414062-.683593.648438-1.355468 1.320313-2.015624 2.011719-1.261719 1.3125-2.472657 2.730469-3.648438 4.191406-.554688.679688-1.121094 1.328125-1.65625 2.046875-1.722656 2.285156-3.304688 4.675782-4.730469 7.160156-18.769531 32.828126-9.28125 45.695313 5.0625 59.101563 7.195313 5.421875 12.316407 13.148437 14.507813 21.886719 2.097656 10.597656-4.21875 22.359375-11.53125 35.960937-1.058594 1.980469-2.132813 3.984375-3.199219 5.972657-.332031.640624-.65625 1.289062-.980469 1.929687-.761718 1.476563-1.511718 2.941406-2.246094 4.445313-.382812.792968-.75 1.605468-1.125 2.414062-.648437 1.382812-1.28125 2.773438-1.886718 4.191406-.375.851563-.722656 1.765625-1.074219 2.652344-.546875 1.382812-1.074219 2.773438-1.5625 4.179688-.324219.933593-.621094 1.871093-.921875 2.816406-.433594 1.417968-.851562 2.84375-1.183594 4.269531-.242187.953125-.472656 1.917969-.667968 2.898437-.304688 1.484376-.535157 2.996094-.742188 4.515626-.128906.964843-.273438 1.921874-.359375 2.902343-.136719 1.621094-.160156 3.285157-.167969 4.949219 0 .902344-.050781 1.792969 0 2.710938v.855468c-16.0625 6.425782-33.070312 10.171875-50.347656 11.09375 0-.207031 0-.375 0-.574218.078125-1.464844.085938-2.824219.121094-4.265626.050781-1.835937.117187-3.6875.109375-5.425781 0-1.390625-.058594-2.679687-.101563-4.011719-.050781-1.613281-.085937-3.234374-.1875-4.761718-.078125-1.289063-.207031-2.5-.324218-3.738282-.136719-1.433593-.265626-2.867187-.445313-4.222656-.152344-1.167968-.339844-2.289062-.527344-3.414062-.214843-1.296875-.429687-2.558594-.675781-3.804688-.222656-1.050781-.460938-2.058594-.707031-3.0625-.292969-1.171875-.582031-2.324218-.898438-3.414062-.28125-.949219-.570312-1.859375-.851562-2.765625-.351563-1.050781-.707031-2.082031-1.09375-3.070313-.324219-.855468-.664063-1.707031-1.003907-2.484375-.410156-.949219-.855468-1.878906-1.265624-2.765625-.367188-.75-.742188-1.492187-1.125-2.210937-.460938-.851563-.9375-1.707031-1.425782-2.5-.390625-.664063-.792968-1.332031-1.210937-1.960938-.503907-.777343-1.03125-1.527343-1.5625-2.261719-.417969-.589843-.851563-1.179687-1.269531-1.707031-.554688-.71875-1.128907-1.390625-1.707032-2.066406-.445312-.519531-.855468-1.039063-1.324218-1.535156-.589844-.65625-1.195313-1.28125-1.808594-1.902344-.433594-.445313-.855469-.90625-1.296875-1.332031-.65625-.632813-1.316407-1.238282-1.980469-1.835938-.410156-.363281-.808594-.75-1.21875-1.109375-.710938-.621093-1.425781-1.210937-2.144531-1.808593-.367188-.296876-.722657-.613282-1.089844-.902344-.804687-.648438-1.605469-1.273438-2.40625-1.886719-.273437-.214844-.554687-.445313-.855469-.648437-1.058594-.851563-2.105468-1.605469-3.148437-2.390626-11.125-8.386718-18.484375-13.90625-18.484375-30.871093zm247.46875 221.867187h-365.484375c-9.957031.066406-19.175781-5.257812-24.097657-13.917968l-.09375-.179688c-.539062-1.050781-.996093-2.140625-1.371093-3.261719-.230469-.664062-.453125-1.320312-.625-2.003906-.195313-.761719-.347657-1.527344-.460938-2.304687-.144531-.890626-.234375-1.789063-.273437-2.6875-.046875-.894532-.046875-1.789063 0-2.679688.050781-.855469.128906-1.765625.265625-2.628906.136719-.863282.324219-1.636719.539062-2.449219.21875-.867187.488281-1.722656.800781-2.558594.28125-.734375.621094-1.441406.972657-2.144531.394531-.824219.828125-1.628906 1.304687-2.414062.445313-.691407.964844-1.347657 1.476563-2.003907s1.066406-1.390625 1.707031-2.015625c.621094-.601562 1.273438-1.171875 1.953125-1.707031.605469-.554687 1.242187-1.082031 1.902344-1.570313.855469-.5625 1.746093-1.070312 2.664062-1.527343.589844-.304688 1.132813-.679688 1.707031-.945313 1.253907-.519531 2.546876-.933594 3.863282-1.246094.351562-.09375.683594-.246093 1.042968-.324218 1.730469-.390625 3.5-.605469 5.273438-.632813h366.933594zm0 0"/><path d="m210.679688 317.03125c.859374.285156 1.757812.429688 2.660156.425781 4.195312 0 7.761718-3.046875 8.425781-7.183593.664063-4.140626-1.78125-8.148438-5.761719-9.457032-2.714844-.851562-5.367187-1.878906-7.996094-2.933594-2.832031-1.167968-6.070312-.730468-8.488281 1.148438s-3.644531 4.910156-3.214843 7.941406c.433593 3.03125 2.457031 5.601563 5.304687 6.730469 2.976563 1.195313 5.996094 2.320313 9.070313 3.328125zm0 0"/><path d="m150.722656 79.460938c-2.78125 2.917968-5.425781 5.972656-7.941406 9.082031-2.953125 3.675781-2.363281 9.050781 1.316406 12 3.679688 2.949219 9.050782 2.359375 12.003906-1.316407 2.199219-2.75 4.519532-5.421874 6.96875-7.988281 2.183594-2.191406 3.007813-5.390625 2.15625-8.363281-.847656-2.972656-3.242187-5.253906-6.25-5.960938-3.007812-.710937-6.167968.265626-8.253906 2.546876zm0 0"/><path d="m418.140625 435.214844h8.535156c4.710938 0 8.53125-3.820313 8.53125-8.53125 0-4.714844-3.820312-8.535156-8.53125-8.535156h-8.535156c-4.710937 0-8.53125 3.820312-8.53125 8.535156 0 4.710937 3.820313 8.53125 8.53125 8.53125zm0 0"/><path d="m221.875 435.214844h8.535156c4.710938 0 8.53125-3.820313 8.53125-8.53125 0-4.714844-3.820312-8.535156-8.53125-8.535156h-8.535156c-4.710938 0-8.535156 3.820312-8.535156 8.535156 0 4.710937 3.824218 8.53125 8.535156 8.53125zm0 0"/><path d="m264.542969 435.214844h119.464843c4.714844 0 8.535157-3.820313 8.535157-8.53125 0-4.714844-3.820313-8.535156-8.535157-8.535156h-119.464843c-4.714844 0-8.535157 3.820312-8.535157 8.535156 0 4.710937 3.820313 8.53125 8.535157 8.53125zm0 0"/><path d="m110.941406 435.214844h76.800782c4.710937 0 8.53125-3.820313 8.53125-8.53125 0-4.714844-3.820313-8.535156-8.53125-8.535156h-76.800782c-4.710937 0-8.53125 3.820312-8.53125 8.535156 0 4.710937 3.820313 8.53125 8.53125 8.53125zm0 0"/></svg>