<?xml version="1.0" encoding="iso-8859-1"?>
<!-- Generator: Adobe Illustrator 19.0.0, SVG Export Plug-In . SVG Version: 6.00 Build 0)  -->
<svg xmlns="http://www.w3.org/2000/svg" xmlns:xlink="http://www.w3.org/1999/xlink" version="1.1" id="Layer_1" x="0px" y="0px" viewBox="0 0 490 490" style="enable-background:new 0 0 490 490;" xml:space="preserve" width="512" height="512">
<g>
	<path style="fill:#FF804A;" d="M490,245c0,16.56-1.64,32.74-4.78,48.37c-8.1,40.49-26.19,77.38-51.59,107.98   C388.69,455.51,320.87,490,245,490s-143.69-34.49-188.63-88.65c-25.41-30.61-43.5-67.52-51.6-108.03C1.64,277.7,0,261.54,0,245   s1.64-32.7,4.77-48.32c7.52-37.61,23.65-72.11,46.25-101.36C95.83,37.34,166.05,0,245,0s149.17,37.34,193.98,95.32   c22.59,29.23,38.72,63.72,46.24,101.31C488.36,212.26,490,228.44,490,245z"/>
	<g>
		<g>
			<path style="fill:#151A1C;" d="M316.262,400.536v-16.663h106.495v16.663c0,6.536-5.299,11.835-11.835,11.835h-82.824     C321.561,412.371,316.262,407.073,316.262,400.536z"/>
			<path style="fill:#151A1C;" d="M379.502,94.721v20.956h43.255V94.721c0-4.166-3.377-7.543-7.543-7.543h-28.169     C382.879,87.179,379.502,90.556,379.502,94.721z"/>
			<path style="fill:#151A1C;" d="M329.959,94.721v20.956h43.255V94.721c0-4.166-3.377-7.543-7.543-7.543h-28.169     C333.336,87.179,329.959,90.556,329.959,94.721z"/>
			<path style="fill:#233559;" d="M485.22,141.09v152.28c-8.1,40.49-26.19,77.38-51.59,107.98H56.37     c-25.41-30.61-43.5-67.52-51.6-108.03V135.51c0-22.19,18-40.19,40.19-40.19h394.49c0.57,0,1.13,0.01,1.69,0.03     C465.64,96.24,485.22,116.38,485.22,141.09z"/>
			<path style="fill:#FFFFFF;" d="M413.47,128.47v239.74c0,11.42-9.26,20.68-20.68,20.68H87.67c-11.42,0-20.68-9.26-20.68-20.68     V128.47c0-11.42,9.26-20.68,20.68-20.68h305.12C404.21,107.79,413.47,117.05,413.47,128.47z"/>
			<path style="fill:#151A1C;" d="M442.458,288.341v-80c0-4.143,3.358-7.5,7.5-7.5s7.5,3.357,7.5,7.5v80c0,4.143-3.358,7.5-7.5,7.5     S442.458,292.483,442.458,288.341z"/>
			<circle style="fill:#151A1C;" cx="32.864" cy="248.34" r="14.999"/>
		</g>
		<g>
			<path style="fill:#DD0D3E;" d="M312.105,388.89h-162.09l-19.93-56.44c-14.06-39.8,6.81-83.45,46.61-97.51     c11.42-4.03,23.15-5.19,34.42-3.85c27.99,3.34,53.06,22.09,63.08,50.46L312.105,388.89z"/>
			<path style="fill:#F73A65;" d="M312.105,388.89h-129.29l-20.98-59.4c-14.06-39.8,6.81-83.45,46.61-97.51     c0.89-0.31,1.78-0.61,2.67-0.89c27.99,3.34,53.06,22.09,63.08,50.46L312.105,388.89z"/>
			<rect x="132.35" y="329.2" style="fill:#BF7C5E;" width="31.97" height="59.69"/>
			<circle style="fill:#BF7C5E;" cx="185.908" cy="260.21" r="30.662"/>
			<path style="fill:#D39272;" d="M123.339,232.993c2.882,9.648-1.777,19.752-10.562,23.994c-0.96,0.465-1.972,0.86-3.03,1.176     c-10.706,3.198-21.972-2.886-25.17-13.592c-3.198-10.706,2.886-21.972,13.592-25.17c1.059-0.316,2.121-0.541,3.179-0.679     C111.02,217.451,120.457,223.345,123.339,232.993z"/>
			<path style="fill:#BF7C5E;" d="M123.339,232.993c2.882,9.648-1.777,19.752-10.562,23.994c-3.497-5.595-6.309-11.743-8.286-18.364     c-1.978-6.621-2.999-13.304-3.143-19.9C111.02,217.451,120.457,223.345,123.339,232.993z"/>
			<circle style="fill:#BF7C5E;" cx="103.958" cy="238.782" r="7.229"/>
			<path style="fill:#D39272;" d="M237.675,198.842c2.882,9.648,12.319,15.542,21.991,14.271c1.058-0.138,2.12-0.363,3.179-0.679     c10.706-3.198,16.79-14.463,13.592-25.17c-3.198-10.706-14.463-16.79-25.17-13.592c-1.059,0.316-2.07,0.711-3.03,1.176     C239.452,179.09,234.794,189.194,237.675,198.842z"/>
			<path style="fill:#BF7C5E;" d="M237.675,198.842c2.882,9.648,12.319,15.542,21.991,14.271c-0.144-6.596-1.165-13.279-3.143-19.9     c-1.978-6.621-4.789-12.769-8.286-18.364C239.452,179.09,234.794,189.194,237.675,198.842z"/>
			<path style="fill:#BF7C5E;" d="M210.265,273.34c-0.11,0.05-0.23,0.11-0.34,0.16c-3.48,1.67-7.14,3.08-10.96,4.22     c-39.82,11.9-81.75-10.74-93.64-50.56l-8.2-27.46c-2.51-8.39-3.48-16.87-3.08-25.15c1.4-29.29,19.97-55.98,48.5-66.76h53.38     c21.14,8.04,38.44,25.48,45.41,48.83l8.21,27.46C260.255,219.96,242.935,257.56,210.265,273.34z"/>
			<circle style="fill:#BF7C5E;" cx="257.056" cy="193.053" r="7.229"/>
			<path style="fill:#D39272;" d="M210.265,273.34c-0.11,0.05-0.23,0.11-0.34,0.16c-36.1,4.91-71.39-17.05-82.15-53.05l-8.2-27.46     c-9.88-33.09,4.08-67.65,31.95-85.2h44.4c21.14,8.04,38.44,25.48,45.41,48.83l8.21,27.46     C260.255,219.96,242.935,257.56,210.265,273.34z"/>
			<path style="fill:#BF7C5E;" d="M190.508,219.573l-16.36,4.887c-1.949,0.582-4-0.526-4.583-2.475h0     c-0.582-1.949,0.526-4,2.475-4.583l16.36-4.887c1.949-0.582,4,0.526,4.583,2.475v0     C193.564,216.939,192.456,218.991,190.508,219.573z"/>
			<path style="fill:#DD0D3E;" d="M241.115,157.44l-144.21,43.08l-11.67-39.07c-6.39-21.37,4.2-43.88,24.05-53.66h115.41     c2.01,3.23,3.62,6.78,4.76,10.59L241.115,157.44z"/>
			<path style="fill:#F73A65;" d="M241.115,157.44l-110.61,33.04l-11.67-39.06c-4.72-15.79-0.17-32.19,10.52-43.63h95.34     c2.01,3.23,3.62,6.78,4.76,10.59L241.115,157.44z"/>
			<path style="fill:#151A1C;" d="M121.897,147.164l19.125-5.712c8.508-2.541,17.465,2.296,20.007,10.804l4.149,13.89     l-49.935,14.915l-4.149-13.89C108.552,158.663,113.389,149.705,121.897,147.164z"/>
			<path style="fill:#F73A65;" d="M282.406,125.248l-48.626,14.524l5.446,18.233l48.626-14.524     c5.035-1.504,7.897-6.805,6.393-11.839v0C292.741,126.607,287.44,123.744,282.406,125.248z"/>
			<g>
				<path style="fill:#FFFFFF;" d="M209.573,221.096c0.88,2.945,1.204,5.941,1.024,8.856c-0.087,1.481-0.303,2.943-0.644,4.376      c-2.081,8.841-8.773,16.388-18.202,19.204c-9.436,2.818-19.179,0.18-25.768-6.071c-1.071-1.011-2.054-2.115-2.939-3.306      c-1.749-2.339-3.121-5.021-4-7.967L209.573,221.096z"/>
				<path style="fill:#151A1C;" d="M210.598,229.951c-0.087,1.481-0.303,2.943-0.644,4.376c-0.535,2.277-1.384,4.473-2.501,6.519      c-3.209,5.895-8.701,10.595-15.7,12.685c-7.007,2.093-14.177,1.175-20.101-1.992c-2.056-1.098-3.97-2.469-5.667-4.079      c-1.071-1.011-2.054-2.115-2.939-3.306L210.598,229.951z"/>
				<path style="fill:#F73A65;" d="M207.452,240.846c-3.209,5.895-8.701,10.595-15.7,12.685c-7.007,2.093-14.177,1.175-20.101-1.992      c3.207-5.902,8.699-10.602,15.698-12.693C194.356,236.754,201.526,237.672,207.452,240.846z"/>
				<g>
					<path style="fill:#A86347;" d="M159.904,207.358L159.904,207.358c-1.737,0.519-3.635-0.077-4.71-1.537       c-2.038-2.768-5.67-4.105-9.148-3.066c-3.478,1.039-5.782,4.149-5.968,7.581c-0.098,1.811-1.358,3.35-3.096,3.868l0,0       c-2.86,0.854-5.77-1.357-5.607-4.338c0.382-7.001,5.082-13.343,12.176-15.462c7.094-2.119,14.503,0.607,18.662,6.251       C163.985,203.059,162.765,206.503,159.904,207.358z"/>
					<path style="fill:#A86347;" d="M215.964,190.613L215.964,190.613c-1.737,0.519-3.635-0.077-4.71-1.537       c-2.038-2.768-5.67-4.105-9.148-3.066c-3.478,1.039-5.782,4.149-5.968,7.581c-0.098,1.811-1.358,3.35-3.096,3.868l0,0       c-2.86,0.854-5.77-1.357-5.607-4.338c0.382-7.001,5.082-13.343,12.176-15.462c7.094-2.119,14.503,0.607,18.662,6.251       C220.044,186.314,218.824,189.759,215.964,190.613z"/>
				</g>
			</g>
			<g>
				<path style="fill:#D39272;" d="M137.162,318.134l-15.337,12.119l-26.662-33.742c-3.347-4.235-2.626-10.382,1.609-13.728h0      c4.235-3.347,10.382-2.626,13.728,1.609L137.162,318.134z"/>
				<path style="fill:#D39272;" d="M156.699,318.768l-19.537-0.634l1.396-42.982c0.175-5.395,4.691-9.627,10.086-9.451h0      c5.395,0.175,9.627,4.691,9.451,10.086L156.699,318.768z"/>
				<path style="fill:#D39272;" d="M139.316,309l-12.516,2.027c-12.263,1.986-20.594,13.537-18.608,25.799l0.933,5.762      c1.986,12.263,13.537,20.594,25.799,18.608l12.516-2.027c12.263-1.986,20.594-13.537,18.608-25.799l-0.933-5.762      C163.129,315.346,151.578,307.014,139.316,309z"/>
				<path style="fill:#BF7C5E;" d="M133.824,322.912L133.824,322.912c0.175-5.395,4.691-9.627,10.086-9.451l18.212,1.079      c5.395,0.175,9.627,4.691,9.451,10.086l0,0c-0.175,5.395-4.691,9.627-10.086,9.451l-18.212-1.079      C137.88,332.822,133.649,328.307,133.824,322.912z"/>
			</g>
		</g>
		<g>
			<path style="fill:#38BBF5;" d="M413.465,342.89v25.32c0,11.42-9.26,20.68-20.68,20.68h-116.51     c7.35-26.37,26.96-48.88,54.68-58.82C359.905,319.7,390.715,325.53,413.465,342.89z"/>
			<path style="fill:#F6C2AA;" d="M261.668,292.888c-2.108,11.011-11.899,18.601-22.756,18.28c-1.187-0.034-2.389-0.163-3.598-0.394     c-12.219-2.339-20.224-14.134-17.885-26.353c2.339-12.219,14.134-20.224,26.353-17.885c1.208,0.231,2.373,0.555,3.489,0.962     C257.48,271.207,263.776,281.877,261.668,292.888z"/>
			<path style="fill:#EA9D88;" d="M261.668,292.888c-2.108,11.011-11.899,18.601-22.756,18.28     c-0.582-7.323-0.202-14.84,1.245-22.397c1.447-7.557,3.87-14.683,7.115-21.274C257.48,271.207,263.776,281.877,261.668,292.888z"/>
			<circle style="fill:#EA9D88;" cx="239.549" cy="288.654" r="8.049"/>
			<path style="fill:#F6C2AA;" d="M413.465,299.594v45.012c-1.126-0.034-2.274-0.172-3.423-0.39c-1.206-0.23-2.377-0.551-3.48-0.965     c-10.211-3.698-16.516-14.368-14.403-25.383C394.17,307.347,403.197,299.939,413.465,299.594z"/>
			<path style="fill:#EA9D88;" d="M413.465,299.594v23.373c-1.459,7.19-3.802,13.989-6.914,20.295     c-10.199-3.71-16.493-14.38-14.391-25.394C394.181,307.347,403.197,299.939,413.465,299.594z"/>
			<path style="fill:#EA9D88;" d="M413.465,232.415v66.513l-1.999,10.452c-7.844,40.946-44.265,69.2-84.648,68.006     c-0.138-0.011-0.276-0.011-0.413-0.011c-4.296-0.138-8.637-0.62-13.002-1.459c-45.448-8.694-75.23-52.592-66.536-98.04     l5.996-31.344c1.838-9.567,5.226-18.457,9.877-26.417c17.389-29.874,52.305-46.999,88.174-40.13h0.011     c4.353,0.838,8.568,1.987,12.623,3.446C386.98,191.837,404.92,210.076,413.465,232.415z"/>
			<path style="fill:#F6C2AA;" d="M413.465,232.415v66.513l-1.999,10.452c-7.844,40.946-44.265,69.2-84.648,68.006     c-0.138-0.011-0.276-0.011-0.413-0.011c-38.189-13.691-61.769-53.511-53.913-94.595l6.007-31.344     c7.856-41.095,44.495-69.384,85.05-68.006C386.98,191.837,404.92,210.076,413.465,232.415z"/>
			<path style="fill:#EA9D88;" d="M334.916,314.124l-18.671-3.574c-2.224-0.426-3.682-2.574-3.256-4.798v0     c0.426-2.224,2.574-3.682,4.798-3.256l18.671,3.574c2.224,0.426,3.682,2.574,3.256,4.798v0     C339.289,313.092,337.14,314.549,334.916,314.124z"/>
			<path style="fill:#FFDF57;" d="M413.465,179.973v118.519c-3.411-2.688-6.156-6.053-8.097-9.832     c-2.217-4.296-3.411-9.12-3.377-14.104l0.149-22.064c0.08-10.727-8.764-19.365-19.479-19.054l-26.968,0.804     c-10.038,0.299-20.031-1.619-29.242-5.605l-22.454-9.705l-2.32-0.988c-9.843-4.261-21.237,0.517-25.13,10.498l-8.005,20.571     c-3.618,9.28-11.577,16.195-21.271,18.48l22.041-115.119c0,0,13.427,2.573,33.526,6.42l100.59,19.261     C406.999,178.732,410.353,179.375,413.465,179.973z"/>
			<path style="fill:#233559;" d="M302.839,158.795c-1.773,9.262-10.715,15.331-19.977,13.558     c-9.255-1.772-15.324-10.713-13.551-19.976c1.773-9.262,10.715-15.331,19.97-13.559     C298.543,140.591,304.612,149.533,302.839,158.795z"/>
			<path style="fill:#FFDF57;" d="M336.367,165.213c-1.773,9.262-10.715,15.331-19.97,13.559c-1.574-0.301-3.063-0.814-4.426-1.5     c-6.673-3.327-10.603-10.789-9.132-18.477s7.88-13.172,15.31-13.799c1.521-0.134,3.093-0.061,4.668,0.241     C332.071,147.009,338.14,155.951,336.367,165.213z"/>
			<circle style="fill:#FFDF57;" cx="353.135" cy="168.423" r="17.07"/>
			<circle style="fill:#FFDF57;" cx="386.665" cy="174.841" r="17.07"/>
			<path style="fill:#FFDF57;" d="M413.465,165.57v31.378c-7.224-3.09-11.566-10.877-10.038-18.894     C404.541,172.266,408.446,167.729,413.465,165.57z"/>
			<path style="fill:#E8AA1A;" d="M302.839,158.795l-11.053,57.742c-6.637,0.847-12.632,5.203-15.244,11.906l-8.006,20.571     c-3.614,9.282-11.57,16.192-21.261,18.481l22.036-115.119c1.773-9.262,10.715-15.331,19.97-13.559     C298.543,140.591,304.612,149.533,302.839,158.795z"/>
			<path style="fill:#FFFFFF;" d="M353.694,326.559c-0.664,3.468-1.92,6.692-3.647,9.567c-0.873,1.464-1.868,2.839-2.975,4.119     c-6.804,7.907-17.622,12.053-28.723,9.928c-11.109-2.127-19.641-9.976-23.043-19.837c-0.556-1.598-0.973-3.244-1.244-4.926     c-0.543-3.31-0.52-6.77,0.144-10.238L353.694,326.559z"/>
			<path style="fill:#151A1C;" d="M350.047,336.127c-0.873,1.464-1.868,2.839-2.975,4.119c-1.752,2.037-3.78,3.825-6.003,5.318     c-6.393,4.308-14.48,6.188-22.72,4.61c-8.249-1.579-15.07-6.313-19.429-12.678c-1.514-2.208-2.738-4.619-3.614-7.159     c-0.556-1.598-0.973-3.244-1.244-4.926L350.047,336.127z"/>
			<path style="fill:#F73A65;" d="M341.07,345.563c-6.393,4.308-14.48,6.188-22.72,4.61c-8.249-1.579-15.07-6.313-19.429-12.678     c6.395-4.316,14.481-6.197,22.722-4.619C329.891,334.455,336.712,339.189,341.07,345.563z"/>
			<g>
				<path style="fill:#CE7C5B;" d="M310.355,286.247L310.355,286.247c-2.045-0.392-3.664-2.004-3.986-4.062      c-0.61-3.9-3.604-7.187-7.698-7.97c-4.094-0.784-8.09,1.165-10.097,4.564c-1.059,1.793-3.159,2.694-5.204,2.302l0,0      c-3.368-0.645-5.161-4.439-3.416-7.391c4.098-6.932,12.248-10.906,20.6-9.307c8.352,1.599,14.459,8.301,15.707,16.257      C316.791,284.028,313.723,286.892,310.355,286.247z"/>
				<path style="fill:#CE7C5B;" d="M376.355,298.881L376.355,298.881c-2.045-0.392-3.664-2.004-3.986-4.062      c-0.61-3.9-3.604-7.187-7.698-7.97c-4.094-0.784-8.09,1.165-10.097,4.564c-1.059,1.793-3.159,2.694-5.204,2.302l0,0      c-3.368-0.645-5.161-4.439-3.416-7.391c4.098-6.932,12.248-10.906,20.6-9.307c8.352,1.599,14.459,8.301,15.707,16.257      C382.791,296.662,379.723,299.526,376.355,298.881z"/>
			</g>
		</g>
		<g>
			<path style="fill:#F6C2AA;" d="M231.387,384.934l22.972-0.303l9.72-42.63c1.371-6.012-2.392-11.997-8.404-13.368l0,0     c-6.012-1.371-11.997,2.392-13.368,8.404L231.387,384.934z"/>
			<path style="fill:#F6C2AA;" d="M231.385,384.93l-7.66,3.96h-15.43l-19.3-37.35c-0.85-1.64-1.25-3.39-1.25-5.12     c0-4.04,2.2-7.94,6.04-9.92c5.48-2.83,12.21-0.69,15.05,4.79L231.385,384.93z"/>
			<path style="fill:#F6C2AA;" d="M270.095,388.89h-60.74c3.15-5.77,8.51-10.33,15.32-12.32l13.91-4.06     C251.835,368.65,265.705,375.95,270.095,388.89z"/>
		</g>
		<path style="fill:#FFFFFF;" d="M421.037,154.317h3.146c9.811,0,17.765-7.953,17.765-17.765v-3.146c0-3.63,2.942-6.572,6.572-6.572    l0,0c3.63,0,6.572,2.942,6.572,6.572v3.146c0,9.811,7.953,17.765,17.765,17.765h3.146c3.63,0,6.572,2.942,6.572,6.572v0    c0,3.63-2.942,6.572-6.572,6.572h-3.146c-9.811,0-17.765,7.953-17.765,17.765v3.146c0,3.63-2.942,6.572-6.572,6.572l0,0    c-3.63,0-6.572-2.942-6.572-6.572v-3.146c0-9.811-7.953-17.765-17.765-17.765h-3.146c-3.63,0-6.572-2.942-6.572-6.572v0    C414.465,157.259,417.408,154.317,421.037,154.317z"/>
		<path style="fill:#FFFFFF;" d="M102.303,404.81h4.054c12.642,0,22.89-10.248,22.89-22.89v-4.054c0-4.677,3.791-8.468,8.468-8.468    h0c4.677,0,8.468,3.791,8.468,8.468v4.054c0,12.642,10.248,22.89,22.89,22.89h4.054c4.677,0,8.468,3.791,8.468,8.468l0,0    c0,4.677-3.791,8.468-8.468,8.468h-4.054c-12.642,0-22.89,10.248-22.89,22.89v4.054c0,4.677-3.791,8.468-8.468,8.468h0    c-4.677,0-8.468-3.791-8.468-8.468v-4.054c0-12.642-10.248-22.89-22.89-22.89h-4.054c-4.677,0-8.468-3.791-8.468-8.468l0,0    C93.834,408.601,97.626,404.81,102.303,404.81z"/>
		<path style="fill:#FFFFFF;" d="M140.564,56.638h4.054c12.642,0,22.89-10.248,22.89-22.89v-4.054c0-4.677,3.791-8.468,8.468-8.468    h0c4.677,0,8.468,3.791,8.468,8.468v4.054c0,12.642,10.248,22.89,22.89,22.89h4.054c4.677,0,8.468,3.791,8.468,8.468v0    c0,4.677-3.791,8.468-8.468,8.468h-4.054c-12.642,0-22.89,10.248-22.89,22.89v4.054c0,4.677-3.791,8.468-8.468,8.468h0    c-4.677,0-8.468-3.791-8.468-8.468v-4.054c0-12.642-10.248-22.89-22.89-22.89h-4.054c-4.677,0-8.468-3.791-8.468-8.468v0    C132.096,60.429,135.887,56.638,140.564,56.638z"/>
	</g>
</g>















</svg>
