<svg height="512pt" viewBox="0 -26 512 512" width="512pt" xmlns="http://www.w3.org/2000/svg"><g fill-rule="evenodd"><path d="m512 132.414062v291.308594c0 19.503906-15.808594 35.3125-35.308594 35.3125h-441.382812c-19.5 0-35.308594-15.808594-35.308594-35.3125v-291.308594c0-19.5 15.808594-35.3125 35.308594-35.3125h70.621094l47.945312-87.902343c3.09375-5.671875 9.039062-9.199219 15.5-9.199219h173.25c6.460938 0 12.40625 3.527344 15.5 9.199219l47.945312 87.902343h70.621094c19.5 0 35.308594 15.8125 35.308594 35.3125zm0 0" fill="#4c7693"/><path d="m512 397.242188v26.480468c0 19.503906-15.808594 35.3125-35.308594 35.3125h-441.382812c-19.5 0-35.308594-15.808594-35.308594-35.3125v-26.480468c0 19.5 15.808594 35.308593 35.308594 35.308593h441.382812c19.5 0 35.308594-15.808593 35.308594-35.308593zm0 0" fill="#446a85"/><path d="m512 397.242188v26.480468c0 19.503906-15.808594 35.3125-35.308594 35.3125h-441.382812c-19.5 0-35.308594-15.808594-35.308594-35.3125v-26.480468c0 19.5 15.808594 35.308593 35.308594 35.308593h441.382812c19.5 0 35.308594-15.808593 35.308594-35.308593zm0 0" fill="#446a85"/><g fill="#5483a3"><path d="m150.070312 98.761719c-3.117187 0-6-1.644531-7.585937-4.324219-1.589844-2.679688-1.648437-5.996094-.15625-8.730469l27.285156-50.015625c3.082031-5.683594 9.03125-9.214844 15.492188-9.207031h44.410156c4.878906 0 8.828125 3.949219 8.828125 8.824219 0 4.878906-3.949219 8.828125-8.828125 8.828125h-44.410156l-27.285157 50.019531c-1.546874 2.839844-4.519531 4.605469-7.75 4.605469zm0 0"/><path d="m35.308594 220.691406c-4.875 0-8.824219-3.953125-8.824219-8.828125v-70.621093c0-9.75 7.902344-17.65625 17.652344-17.65625h35.3125c4.875 0 8.828125 3.953124 8.828125 8.828124s-3.953125 8.828126-8.828125 8.828126h-35.3125v70.621093c0 4.875-3.949219 8.828125-8.828125 8.828125zm0 0"/><path d="m35.308594 273.65625c-4.875 0-8.824219-3.953125-8.824219-8.828125v-17.65625c0-4.875 3.949219-8.828125 8.824219-8.828125 4.878906 0 8.828125 3.953125 8.828125 8.828125v17.65625c0 4.875-3.949219 8.828125-8.828125 8.828125zm0 0"/></g><path d="m397.242188 273.65625c0 78.003906-63.238282 141.242188-141.242188 141.242188s-141.242188-63.238282-141.242188-141.242188c0-78.007812 63.238282-141.242188 141.242188-141.242188s141.242188 63.234376 141.242188 141.242188zm0 0" fill="#e5e8eb"/><path d="m379.585938 273.65625c0 68.253906-55.332032 123.585938-123.585938 123.585938s-123.585938-55.332032-123.585938-123.585938 55.332032-123.585938 123.585938-123.585938 123.585938 55.332032 123.585938 123.585938zm0 0" fill="#d8dbde"/><path d="m256 379.585938c-58.503906 0-105.929688-47.425782-105.929688-105.929688s47.425782-105.933594 105.929688-105.933594 105.929688 47.429688 105.929688 105.933594c-.070313 58.472656-47.457032 105.855469-105.929688 105.929688" fill="#72d6f1"/><path d="m256 344.277344c-39.003906 0-70.621094-31.621094-70.621094-70.621094 0-39.003906 31.617188-70.621094 70.621094-70.621094s70.621094 31.617188 70.621094 70.621094c-.042969 38.984375-31.636719 70.574219-70.621094 70.621094" fill="#79e2ff"/><path d="m256 317.792969c-24.375 0-44.136719-19.761719-44.136719-44.136719 0-24.378906 19.761719-44.140625 44.136719-44.140625s44.136719 19.761719 44.136719 44.140625c-.027344 24.363281-19.773438 44.109375-44.136719 44.136719" fill="#72d6f1"/><path d="m273.65625 273.65625c0 9.75-7.90625 17.652344-17.65625 17.652344s-17.65625-7.902344-17.65625-17.652344 7.90625-17.65625 17.65625-17.65625 17.65625 7.90625 17.65625 17.65625zm0 0" fill="#79e2ff"/><path d="m300.136719 200.828125c-6.867188-.011719-13.511719 2.453125-18.714844 6.9375 18.566406 7.21875 33.246094 21.902344 40.46875 40.464844 7.304687-8.5 8.992187-20.480469 4.316406-30.671875s-14.855469-16.726563-26.070312-16.730469" fill="#9de2f5"/><path d="m281.421875 207.765625c-6.339844 5.445313-9.984375 13.394531-9.972656 21.75-.003907.949219.042969 1.898437.140625 2.84375 11.847656 4.503906 21.203125 13.859375 25.707031 25.707031.941406.09375 1.890625.140625 2.839844.140625 8.359375.011719 16.304687-3.632812 21.753906-9.976562-7.222656-18.5625-21.902344-33.246094-40.46875-40.464844" fill="#a1ebff"/><path d="m271.589844 232.359375c1.351562 13.597656 12.109375 24.351563 25.707031 25.707031-4.503906-11.847656-13.859375-21.203125-25.707031-25.707031" fill="#9de2f5"/><path d="m191.082031 301.460938c-9.183593 3.347656-15.074219 12.335937-14.476562 22.089843.601562 9.757813 7.546875 17.957031 17.074219 20.152344 9.523437 2.195313 19.359374-2.136719 24.167968-10.648437-11.859375-7.640626-21.175781-18.636719-26.765625-31.59375" fill="#9de2f5"/><path d="m198.621094 300.136719c-2.570313 0-5.121094.445312-7.539063 1.324219 5.589844 12.957031 14.90625 23.953124 26.765625 31.59375 3.859375-6.832032 3.796875-15.203126-.160156-21.976563-3.960938-6.777344-11.21875-10.941406-19.066406-10.941406" fill="#a1ebff"/><path d="m459.035156 150.070312h-17.65625c-4.875 0-8.828125-3.953124-8.828125-8.828124s3.953125-8.828126 8.828125-8.828126h17.65625c4.875 0 8.828125 3.953126 8.828125 8.828126s-3.953125 8.828124-8.828125 8.828124zm0 0" fill="#72d6f1"/></g></svg>