<?xml version="1.0" encoding="iso-8859-1"?>
<!-- Generator: Adobe Illustrator 19.0.0, SVG Export Plug-In . SVG Version: 6.00 Build 0)  -->
<svg version="1.1" id="Capa_1" xmlns="http://www.w3.org/2000/svg" xmlns:xlink="http://www.w3.org/1999/xlink" x="0px" y="0px"
	 viewBox="0 0 512 512" style="enable-background:new 0 0 512 512;" xml:space="preserve">
<path style="fill:#80D8FF;" d="M7.5,426c0,16.569,13.431,30,30,30h437c16.569,0,30-13.431,30-30V122.5H7.5V426z"/>
<rect x="7.5" y="56" style="fill:#B0BEC5;" width="497" height="66.5"/>
<rect x="7.5" y="102.5" style="fill:#90A4AE;" width="497" height="20"/>
<rect x="7.5" y="122.5" style="fill:#40C4FF;" width="497" height="20"/>
<polygon style="fill:#ED593B;" points="356,306 256,206 156,306 156,426 356,426 "/>
<rect x="156" y="406" style="fill:#E23423;" width="200" height="20"/>
<g>
	<polygon style="fill:#FDD835;" points="256,163.574 104.787,314.787 126,336 256,206 386,336 407.213,314.787 	"/>
	<rect x="134" y="156" style="fill:#FDD835;" width="60" height="30"/>
</g>
<g>
	<path style="fill:#AD8761;" d="M296,426h-80v-80c0-22.091,17.909-40,40-40l0,0c22.091,0,40,17.909,40,40V426z"/>
	<polygon style="fill:#AD8761;" points="184,235.573 184,186 144,186 144,275.573 	"/>
</g>
<g>
	<path style="fill:#FDD835;" d="M401,426v-37.5c0-12.426,10.074-22.5,22.5-22.5l0,0c12.426,0,22.5,10.074,22.5,22.5V426H401z"/>
	<path style="fill:#FDD835;" d="M356,426v-37.5c0-12.426,10.074-22.5,22.5-22.5l0,0c12.426,0,22.5,10.074,22.5,22.5V426H356z"/>
	<path style="fill:#FDD835;" d="M111,426v-37.5c0-12.426,10.074-22.5,22.5-22.5l0,0c12.426,0,22.5,10.074,22.5,22.5V426H111z"/>
</g>
<g>
	<rect x="216" y="406" style="fill:#936C4C;" width="80" height="20"/>
	<polygon style="fill:#936C4C;" points="144,247.29 144,275.573 184,235.573 184,207.29 	"/>
</g>
<polygon style="fill:#E23423;" points="156,306 156,334.284 256,234.284 356,334.284 356,306 256,206 "/>
<path style="fill:#FDD835;" d="M66,426v-37.5c0-12.426,10.074-22.5,22.5-22.5l0,0c12.426,0,22.5,10.074,22.5,22.5V426H66z"/>
<g>
	<rect x="66" y="406" style="fill:#FBC02D;" width="90" height="20"/>
	<rect x="356" y="406" style="fill:#FBC02D;" width="90" height="20"/>
</g>
<path d="M0,48.5V426c0,20.678,16.822,37.5,37.5,37.5h437c20.678,0,37.5-16.822,37.5-37.5V48.5H0z M497,426
	c0,12.407-10.094,22.5-22.5,22.5h-437C25.093,448.5,15,438.407,15,426V130h482V426z M497,115H15V63.5h482V115z"/>
<rect x="140.5" y="81.75" width="300" height="15"/>
<rect x="455.5" y="81.75" width="15" height="15"/>
<path d="M476,418.5h-22.5v-30c0-16.542-13.458-30-30-30c-8.954,0-16.999,3.948-22.5,10.189c-5.501-6.241-13.546-10.189-22.5-10.189
	c-5.462,0-10.584,1.475-15,4.036v-38.43l22.5,22.5l31.82-31.82L256,152.967l-64.5,64.5V193.5h10v-45h-75v45h10v78.967l-42.32,42.32
	l31.82,31.82l22.5-22.5v38.43c-4.416-2.561-9.538-4.036-15-4.036c-8.954,0-16.998,3.948-22.5,10.189
	c-5.502-6.241-13.546-10.189-22.5-10.189c-16.542,0-30,13.458-30,30v30H36v15h440V418.5z M103.5,418.5h-30v-30
	c0-8.271,6.729-15,15-15s15,6.729,15,15V418.5z M148.5,418.5h-30v-30c0-8.271,6.729-15,15-15s15,6.729,15,15V418.5z M141.5,163.5h45
	v15h-45V163.5z M176.5,193.5v38.967l-25,25V193.5H176.5z M126,325.394l-10.607-10.607L256,174.18l140.607,140.606L386,325.394
	l-130-130L126,325.394z M288.5,418.5h-65V346c0-17.92,14.58-32.5,32.5-32.5c17.921,0,32.5,14.58,32.5,32.5V418.5z M348.5,418.5h-45
	V346c0-26.191-21.309-47.5-47.5-47.5s-47.5,21.309-47.5,47.5v72.5h-45V309.106l92.5-92.5l92.5,92.5V418.5z M393.5,418.5h-30v-30
	c0-8.271,6.729-15,15-15s15,6.729,15,15V418.5z M438.5,418.5h-30v-30c0-8.271,6.729-15,15-15s15,6.729,15,15V418.5z"/>
<g>
	<path style="fill:#FFFFFF;" d="M104.25,96.75h-15v-15h15V96.75z M74.25,96.75h-15v-15h15V96.75z M44.25,96.75h-15v-15h15V96.75z"/>
	<path style="fill:#FFFFFF;" d="M333.5,396h-15v-15h15V396z M333.5,366h-15v-20h15V366z"/>
	<path style="fill:#FFFFFF;" d="M193.5,396h-15v-15h15V396z M193.5,366h-15v-20h15V366z"/>
	<rect x="238.5" y="368" style="fill:#FFFFFF;" width="15" height="15"/>
	<path style="fill:#FFFFFF;" d="M481.5,213h-15v-15h15V213z M481.5,183h-15v-22.5H444v-15h37.5V183z M429,160.5h-15v-15h15V160.5z"
		/>
</g>
<g>
</g>
<g>
</g>
<g>
</g>
<g>
</g>
<g>
</g>
<g>
</g>
<g>
</g>
<g>
</g>
<g>
</g>
<g>
</g>
<g>
</g>
<g>
</g>
<g>
</g>
<g>
</g>
<g>
</g>
</svg>
