<svg height="512pt" viewBox="0 -2 512.00101 512" width="512pt" xmlns="http://www.w3.org/2000/svg"><path d="m504.398438 155.632812v250.941407c0 32.484375-26.339844 58.824219-58.824219 58.824219h-379.152344c-32.484375 0-58.816406-26.339844-58.816406-58.824219v-250.941407c0-32.484374 26.332031-58.8125 58.816406-58.8125h379.152344c32.484375 0 58.824219 26.328126 58.824219 58.8125zm0 0" fill="#e2b74d"/><path d="m504.398438 155.632812v250.941407c0 32.484375-26.339844 58.824219-58.824219 58.824219h-358.144531c-32.484376 0-58.824219-26.339844-58.824219-58.824219v-250.941407c0-32.484374 26.339843-58.8125 58.824219-58.8125h358.144531c32.484375 0 58.824219 26.328126 58.824219 58.8125zm0 0" fill="#f6d269"/><path d="m121.257812 499.980469c-10.164062 0-19.066406-6.804688-21.730468-16.617188l-4.882813-17.96875h53.226563l-4.882813 17.96875c-2.664062 9.808594-11.566406 16.617188-21.730469 16.617188zm0 0" fill="#405872"/><path d="m390.742188 499.980469c-10.164063 0-19.066407-6.804688-21.730469-16.617188l-4.882813-17.96875h53.226563l-4.882813 17.96875c-2.660156 9.808594-11.566406 16.617188-21.730468 16.617188zm0 0" fill="#405872"/><path d="m304.375 96.820312h-92.089844c-.011718-11.792968 4.492188-23.582031 13.496094-32.566406 12.640625-12.652344 30.820312-16.40625 46.746094-11.253906 6.714844 2.167969 13.03125 5.921875 18.363281 11.253906 8.992187 8.984375 13.492187 20.773438 13.484375 32.566406zm0 0" fill="#27425b"/><path d="m304.375 96.820312h-63.703125c-.007813-11.792968 4.492187-23.582031 13.496094-32.566406 5.332031-5.332031 11.648437-9.085937 18.359375-11.253906 6.714844 2.167969 13.03125 5.921875 18.363281 11.253906 8.992187 8.984375 13.492187 20.773438 13.484375 32.566406zm0 0" fill="#405872"/><path d="m375.019531 356.304688c-4.277343 34.605468-31.945312 61.707031-66.628906 65.304687-6.511719.679687-13.019531 1.289063-19.519531 1.824219-57.648438 4.765625-115.285156 4.15625-172.933594-1.824219-34.671875-3.597656-62.339844-30.699219-66.621094-65.304687-6.203125-50.132813-6.203125-100.269532 0-150.40625 4.28125-34.601563 31.949219-61.703126 66.621094-65.300782 57.648438-5.980468 115.296875-6.589844 172.945312-1.816406 6.5.539062 13.007813 1.136719 19.507813 1.816406 34.683594 3.597656 62.351563 30.699219 66.628906 65.300782 6.207031 50.136718 6.207031 100.273437 0 150.40625zm0 0" fill="#62798e"/><path d="m328.433594 363.121094c-3.195313 25.769531-18.269532 47.730468-39.5625 60.3125-57.648438 4.765625-115.285156 4.15625-172.933594-1.824219-34.671875-3.597656-62.339844-30.699219-66.621094-65.304687-6.203125-50.132813-6.203125-100.269532 0-150.40625 4.28125-34.601563 31.949219-61.703126 66.621094-65.300782 57.648438-5.980468 115.296875-6.589844 172.945312-1.816406 21.28125 12.582031 36.355469 34.535156 39.550782 60.304688 6.761718 54.679687 6.761718 109.355468 0 164.035156zm0 0" fill="#405872"/><path d="m461.507812 376.117188c0 13.207031-10.710937 23.917968-23.917968 23.917968-13.210938 0-23.917969-10.710937-23.917969-23.917968 0-13.210938 10.707031-23.917969 23.917969-23.917969 13.207031 0 23.917968 10.707031 23.917968 23.917969zm0 0" fill="#d4e8f4"/><path d="m461.507812 303.679688c0 13.210937-10.710937 23.917968-23.917968 23.917968-13.210938 0-23.917969-10.707031-23.917969-23.917968 0-13.207032 10.707031-23.917969 23.917969-23.917969 13.207031 0 23.917968 10.710937 23.917968 23.917969zm0 0" fill="#d4e8f4"/><path d="m405.804688 185.746094h63.566406c4.199218 0 7.605468-3.402344 7.605468-7.601563s-3.40625-7.605469-7.605468-7.605469h-63.566406c-4.199219 0-7.601563 3.40625-7.601563 7.605469s3.402344 7.601563 7.601563 7.601563zm0 0"/><path d="m405.804688 212.867188h63.566406c4.199218 0 7.605468-3.402344 7.605468-7.605469 0-4.199219-3.40625-7.601563-7.605468-7.601563h-63.566406c-4.199219 0-7.601563 3.402344-7.601563 7.601563 0 4.203125 3.402344 7.605469 7.601563 7.605469zm0 0"/><path d="m405.804688 239.988281h63.566406c4.199218 0 7.605468-3.40625 7.605468-7.605469 0-4.199218-3.40625-7.601562-7.605468-7.601562h-63.566406c-4.199219 0-7.601563 3.402344-7.601563 7.601562 0 4.199219 3.402344 7.605469 7.601563 7.605469zm0 0"/><path d="m437.585938 344.59375c-8.417969 0-16.332032 3.28125-22.285157 9.234375-12.292969 12.289063-12.292969 32.285156 0 44.578125 6.144531 6.144531 14.214844 9.21875 22.289063 9.21875 8.070312 0 16.140625-3.074219 22.289062-9.21875 5.953125-5.953125 9.230469-13.871094 9.230469-22.289062 0-8.421876-3.277344-16.335938-9.230469-22.289063s-13.871094-9.234375-22.292968-9.234375zm-11.53125 19.988281c3.082031-3.082031 7.175781-4.78125 11.535156-4.78125 1.664062 0 3.285156.253907 4.832031.730469l-20.40625 20.40625c-1.722656-5.59375-.382813-11.9375 4.039063-16.355469zm23.070312 23.070313c-4.421875 4.417968-10.765625 5.757812-16.355469 4.039062l20.402344-20.40625c.476563 1.542969.730469 3.167969.730469 4.832032 0 4.355468-1.695313 8.453124-4.777344 11.535156zm0 0"/><path d="m459.878906 281.390625c-5.953125-5.953125-13.871094-9.230469-22.289062-9.230469-8.421875 0-16.335938 3.277344-22.289063 9.230469-12.289062 12.292969-12.289062 32.289063 0 44.578125 6.144531 6.144531 14.214844 9.21875 22.289063 9.21875 8.070312 0 16.144531-3.074219 22.289062-9.21875 5.953125-5.953125 9.230469-13.867188 9.230469-22.289062 0-8.417969-3.277344-16.335938-9.230469-22.289063zm-10.753906 10.753906c3.082031 3.082031 4.777344 7.179688 4.777344 11.535157 0 1.664062-.25 3.289062-.730469 4.832031l-20.417969-20.417969c1.546875-.476562 3.171875-.726562 4.832032-.726562 4.359374 0 8.457031 1.695312 11.539062 4.777343zm-23.070312 23.074219c-4.421876-4.421875-5.761719-10.765625-4.039063-16.359375l20.394531 20.394531c-5.597656 1.722656-11.9375.382813-16.355468-4.035156zm0 0"/><path d="m445.574219 89.210938h-134.128907c-1.253906-8.949219-4.738281-17.355469-10.179687-24.578126l51.652344-51.652343c2.96875-2.96875 2.96875-7.78125 0-10.75-2.96875-2.972657-7.785157-2.972657-10.753907 0l-51.660156 51.660156c-18.992187-14.253906-45.351562-14.253906-64.339844-.003906l-51.660156-51.660157c-2.972656-2.96875-7.785156-2.96875-10.753906 0-2.972656 2.972657-2.972656 7.785157 0 10.753907l51.652344 51.652343c-5.441406 7.222657-8.925782 15.628907-10.183594 24.578126h-138.792969c-36.628906 0-66.425781 29.796874-66.425781 66.425781v158.066406c0 4.199219 3.402344 7.601563 7.605469 7.601563 4.199219 0 7.601562-3.402344 7.601562-7.601563v-158.066406c0-28.242188 22.976563-51.21875 51.21875-51.21875h379.152344c28.238281 0 51.214844 22.976562 51.214844 51.21875v50.597656c0 4.199219 3.402343 7.601563 7.605469 7.601563 4.199218 0 7.601562-3.402344 7.601562-7.601563v-50.597656c0-36.628907-29.796875-66.425781-66.425781-66.425781zm-214.417969-19.582032c14.988281-14.984375 39.371094-14.984375 54.355469.003906 5.445312 5.433594 9.050781 12.210938 10.519531 19.578126h-75.394531c1.464843-7.367188 5.074219-14.144532 10.519531-19.582032zm0 0"/><path d="m504.394531 229.046875c-4.199219 0-7.601562 3.40625-7.601562 7.605469v169.921875c0 28.238281-22.976563 51.214843-51.21875 51.214843h-379.148438c-28.242187 0-51.21875-22.976562-51.21875-51.214843v-62.453125c0-4.199219-3.402343-7.605469-7.601562-7.605469-4.203125 0-7.605469 3.40625-7.605469 7.605469v62.453125c0 36.625 29.796875 66.421875 66.425781 66.421875h22.40625l3.355469 12.363281c3.554688 13.085937 15.507812 22.226563 29.070312 22.226563s25.515626-9.140626 29.070313-22.226563l3.355469-12.363281h204.632812l3.355469 12.363281c3.554687 13.085937 15.511719 22.226563 29.070313 22.226563 13.5625 0 25.515624-9.140626 29.070312-22.226563l3.355469-12.363281h22.410156c36.625 0 66.421875-29.796875 66.421875-66.421875v-169.921875c0-4.199219-3.402344-7.605469-7.605469-7.605469zm-368.742187 252.324219c-1.761719 6.480468-7.679688 11.007812-14.394532 11.007812-6.714843 0-12.632812-4.527344-14.394531-11.007812l-2.273437-8.375h33.335937zm269.484375 0c-1.761719 6.480468-7.679688 11.007812-14.394531 11.007812-6.714844 0-12.632813-4.527344-14.390626-11.007812l-2.273437-8.375h33.332031zm0 0"/><path d="m115.160156 429.175781c32.1875 3.339844 64.59375 5.007813 97.007813 5.007813 32.410156 0 64.828125-1.667969 97.011719-5.007813 18.476562-1.921875 35.96875-10.144531 49.25-23.160156 13.285156-13.019531 21.855468-30.339844 24.140624-48.773437 6.25-50.523438 6.25-101.75 0-152.273438-2.285156-18.433594-10.855468-35.753906-24.140624-48.773438-13.28125-13.015624-30.773438-21.238281-49.25-23.160156-64.371094-6.679687-129.648438-6.679687-194.019532 0-18.476562 1.917969-35.96875 10.144532-49.25 23.160156-13.285156 13.019532-21.859375 30.339844-24.140625 48.773438-6.253906 50.523438-6.253906 101.75 0 152.273438 2.28125 18.433593 10.855469 35.753906 24.140625 48.773437 13.28125 13.015625 30.769532 21.238281 49.25 23.160156zm-58.296875-222.339843c3.875-31.289063 28.492188-55.417969 59.867188-58.675782 63.328125-6.574218 127.550781-6.574218 190.878906 0 31.375 3.257813 55.992187 27.386719 59.867187 58.675782 6.097657 49.28125 6.097657 99.257812 0 148.535156-3.875 31.289062-28.492187 55.417968-59.867187 58.675781-63.328125 6.574219-127.550781 6.574219-190.878906 0-31.375-3.257813-55.992188-27.382813-59.867188-58.675781-6.101562-49.277344-6.101562-99.253906 0-148.535156zm0 0"/></svg>