<svg height="512pt" viewBox="0 0 512 512" width="512pt" xmlns="http://www.w3.org/2000/svg"><path d="m424.460938 504.394531h-336.925782c-44.144531 0-79.929687-35.789062-79.929687-79.933593v-336.925782c0-44.144531 35.785156-79.929687 79.929687-79.929687h336.925782c44.144531 0 79.929687 35.785156 79.929687 79.929687v336.925782c.003906 44.148437-35.785156 79.933593-79.929687 79.933593zm0 0" fill="#fed563"/><path d="m504.390625 256v168.460938c0 44.144531-35.789063 79.933593-79.929687 79.933593h-168.464844v-85.265625c-12.863282 1.492188-25.183594 6.285156-35.757813 13.949219-10.757812 7.808594-23.976562 12.402344-38.28125 12.402344-37.097656 0-66.964843-30.933594-65.210937-68.417969 1.570312-33.75 29.175781-60.972656 62.9375-62.117188 15.128906-.515624 29.140625 4.117188 40.445312 12.289063 10.625 7.664063 22.960938 12.507813 35.867188 14.011719v-85.246094h85.246094c-1.5 12.90625-6.347657 25.246094-14.011719 35.871094-8.171875 11.304687-12.804688 25.316406-12.289063 40.441406 1.148438 33.761719 28.371094 61.367188 62.121094 62.941406 37.480469 1.753906 68.414062-28.117187 68.414062-65.210937 0-14.308594-4.59375-27.527344-12.398437-38.285157-7.664063-10.574218-12.460937-22.890624-13.953125-35.757812zm0 0" fill="#d5e8ec"/><path d="m504.390625 87.539062v168.460938h-85.265625c1.492188 12.867188 6.289062 25.183594 13.953125 35.757812 7.804687 10.757813 12.398437 23.976563 12.398437 38.285157 0 37.09375-30.933593 66.964843-68.414062 65.210937-33.75-1.574218-60.972656-29.179687-62.121094-62.941406-.515625-15.125 4.117188-29.136719 12.289063-40.441406 7.664062-10.625 12.511719-22.964844 14.011719-35.871094h-85.246094v-85.246094c12.90625 1.5 25.246094 6.347656 35.871094 14.011719 11.304687 8.171875 25.316406 12.804687 40.441406 12.289063 33.761718-1.144532 61.371094-28.367188 62.941406-62.121094 1.753906-37.480469-28.113281-68.414063-65.210938-68.414063-14.304687 0-27.527343 4.59375-38.28125 12.398438-10.578124 7.667969-22.894531 12.460937-35.761718 13.953125v-85.265625h168.464844c44.140624 0 79.929687 35.789062 79.929687 79.933593zm0 0" fill="#fc315f"/><path d="m330.039062 66.519531c37.097657 0 66.964844 30.933594 65.210938 68.414063-1.570312 33.753906-29.179688 60.976562-62.941406 62.121094-15.125.515624-29.136719-4.117188-40.441406-12.289063-10.625-7.664063-22.964844-12.511719-35.871094-14.011719v85.246094h-85.242188c1.5-12.90625 6.34375-25.246094 14.011719-35.871094 8.171875-11.304687 12.804687-25.316406 12.285156-40.441406-1.144531-33.761719-28.367187-61.371094-62.117187-62.941406-37.484375-1.753906-68.414063 28.113281-68.414063 65.210937 0 14.304688 4.589844 27.527344 12.398438 38.285157 7.664062 10.574218 12.460937 22.890624 13.949219 35.757812h-85.265626v-168.460938c0-44.144531 35.789063-79.933593 79.933594-79.933593h168.460938v85.265625c12.867187-1.492188 25.183594-6.285156 35.761718-13.953125 10.753907-7.804688 23.976563-12.398438 38.28125-12.398438zm0 0" fill="#55c7f3"/><path d="m512 256c0-.023438-.003906-.039062-.003906-.058594v-57.457031c0-4.199219-3.402344-7.605469-7.601563-7.605469s-7.605469 3.40625-7.605469 7.605469v49.910156h-77.660156c-2.167968 0-4.234375.925781-5.675781 2.546875-1.441406 1.617188-2.125 3.777344-1.875 5.933594 1.636719 14.148438 6.945313 27.753906 15.347656 39.347656 7.164063 9.871094 10.953125 21.566406 10.953125 33.820313 0 15.921875-6.347656 30.742187-17.867187 41.738281-11.511719 10.984375-26.632813 16.621094-42.59375 15.875-29.757813-1.386719-53.859375-25.808594-54.871094-55.601562-.441406-12.945313 3.308594-25.296876 10.855469-35.734376 8.433594-11.691406 13.757812-25.328124 15.398437-39.441406.25-2.15625-.433593-4.316406-1.875-5.9375-1.445312-1.621094-3.507812-2.546875-5.679687-2.546875h-77.640625v-68.542969c8.488281 2.113282 16.597656 5.871094 23.808593 11.074219 13.191407 9.539063 28.820313 14.28125 45.15625 13.726563 37.65625-1.277344 68.523438-31.75 70.277344-69.363282.941406-20.148437-6.183594-39.253906-20.066406-53.800781-13.894531-14.558593-32.621094-22.574219-52.742188-22.574219-15.480468 0-30.265624 4.789063-42.746093 13.847657-7.136719 5.171875-15.203125 8.910156-23.6875 11.015625v-68.570313h160.855469c39.882812 0 72.328124 32.449219 72.328124 72.328125v80.53125c0 4.199219 3.40625 7.605469 7.605469 7.605469s7.601563-3.40625 7.601563-7.605469v-80.53125c0-48.265625-39.265625-87.535156-87.535156-87.535156h-168.441407c-.003906 0-.011719 0-.019531 0-.003906 0-.011719 0-.019531 0h-168.445313c-48.265625 0-87.535156 39.269531-87.535156 87.535156v336.925782c0 48.269531 39.269531 87.535156 87.535156 87.535156h336.925782c48.265624 0 87.535156-39.265625 87.535156-87.535156v-168.402344c0-.023438.003906-.039063.003906-.058594zm-496.792969 168.460938v-160.859376h77.53125.125c1.644531 0 3.273438-.53125 4.621094-1.5625 2.125-1.625 3.242187-4.253906 2.933594-6.914062-1.167969-10.09375-4.148438-19.796875-8.855469-28.84375-1.9375-3.726562-6.527344-5.171875-10.253906-3.234375-3.726563 1.9375-5.175782 6.53125-3.238282 10.253906 2.511719 4.824219 4.421876 9.875 5.710938 15.09375h-68.574219v-160.859375c0-39.882812 32.445313-72.328125 72.328125-72.328125h160.863282v77.484375c-.054688 2.3125.953124 4.574219 2.808593 6.078125 1.683594 1.371094 3.84375 1.933594 5.925781 1.621094 14.054688-1.675781 27.566407-6.96875 39.089844-15.320313 9.871094-7.164062 21.5625-10.949218 33.816406-10.949218 15.921876 0 30.746094 6.34375 41.738282 17.863281 10.984375 11.511719 16.625 26.636719 15.878906 42.59375-1.386719 29.757813-25.8125 53.859375-55.605469 54.871094-12.949219.445312-25.296875-3.308594-35.734375-10.855469-11.691406-8.429688-25.328125-13.757812-39.441406-15.398438-3.308594-.382812-6.476562 1.429688-7.828125 4.472657-.464844 1.046875-.675781 2.15625-.648437 3.246093v77.480469h-68.550782c2.113282-8.492187 5.871094-16.601562 11.074219-23.8125 9.539063-13.191406 14.285156-28.808593 13.726563-45.152343-1.277344-37.660157-31.75-68.527344-69.363282-70.277344-20.144531-.945313-39.253906 6.183594-53.800781 20.066406-14.558594 13.890625-22.574219 32.621094-22.574219 52.738281 0 9.613281 1.839844 18.957031 5.476563 27.769531 1.601562 3.882813 6.046875 5.734376 9.929687 4.132813 3.878906-1.601563 5.730469-6.046875 4.128906-9.929687-2.871093-6.964844-4.328124-14.355469-4.328124-21.972657 0-15.921875 6.34375-30.742187 17.863281-41.738281 11.511719-10.984375 26.636719-16.621094 42.59375-15.875 29.757812 1.382812 53.863281 25.808594 54.871093 55.601562.445313 12.941407-3.308593 25.296876-10.855468 35.734376-8.402344 11.648437-13.71875 25.230468-15.378906 39.289062-.472657 3.441406 1.457031 6.789062 4.710937 8.089844.949219.378906 1.949219.558594 2.949219.542968h77.523437v68.546876c-8.492187-2.113282-16.601562-5.871094-23.8125-11.074219-13.195312-9.539063-28.8125-14.289063-45.15625-13.726563-37.65625 1.277344-68.527343 31.746094-70.277343 69.363282-.945313 20.148437 6.183593 39.253906 20.066406 53.800781 13.890625 14.554687 32.621094 22.574219 52.738281 22.574219 15.484375 0 30.265625-4.789063 42.746094-13.847657 7.140625-5.175781 15.210937-8.914062 23.699219-11.015625v68.566406h-160.863282c-39.882812 0-72.328125-32.445312-72.328125-72.328124zm409.253907 72.328124h-160.855469v-77.660156c0-3.3125-2.148438-6.246094-5.304688-7.246094-1.101562-.351562-2.242187-.4375-3.339843-.285156-14.089844 1.660156-27.636719 6.960938-39.1875 15.332032-9.867188 7.160156-21.5625 10.949218-33.816407 10.949218-15.921875 0-30.742187-6.34375-41.738281-17.867187-10.984375-11.511719-16.621094-26.636719-15.875-42.589844 1.382812-29.757813 25.808594-53.863281 55.601562-54.875 12.949219-.4375 25.296876 3.3125 35.734376 10.855469 11.691406 8.433594 25.328124 13.757812 39.441406 15.398437 2.769531.320313 5.488281-.898437 7.09375-3.171875.90625-1.28125 1.394531-2.816406 1.394531-4.386718v-77.640626h68.542969c-2.113282 8.492188-5.875 16.601563-11.078125 23.8125-9.535157 13.195313-14.28125 28.808594-13.726563 45.15625 1.277344 37.65625 31.75 68.523438 69.363282 70.277344 1.183593.054688 2.363281.082032 3.539062.082032 18.835938 0 36.570312-7.082032 50.261719-20.148438 14.558593-13.894531 22.574219-32.621094 22.574219-52.742188 0-15.480468-4.789063-30.265624-13.84375-42.746093-5.175782-7.136719-8.914063-15.207031-11.019532-23.691407h68.566406v160.859376c0 39.882812-32.445312 72.328124-72.328124 72.328124zm0 0"/></svg>