<?xml version="1.0" standalone="no"?>
<!DOCTYPE svg PUBLIC "-//W3C//DTD SVG 20010904//EN"
 "http://www.w3.org/TR/2001/REC-SVG-20010904/DTD/svg10.dtd">
<svg version="1.0" xmlns="http://www.w3.org/2000/svg"
 width="294.000000pt" height="294.000000pt" viewBox="0 0 294.000000 294.000000"
 preserveAspectRatio="xMidYMid meet">
<metadata>
Created by potrace 1.11, written by Peter Selinger 2001-2013
</metadata>
<g transform="translate(0.000000,294.000000) scale(0.100000,-0.100000)"
fill="#000000" stroke="none">
<path d="M1364 2773 c-42 -29 -120 -91 -205 -165 -30 -25 -85 -67 -124 -92
-75 -49 -171 -138 -180 -166 -3 -10 -34 -30 -68 -45 -116 -51 -161 -84 -205
-149 -23 -33 -42 -66 -42 -71 0 -6 -13 -42 -29 -80 -16 -39 -32 -94 -36 -124
-6 -53 -5 -54 37 -93 70 -66 101 -86 141 -93 44 -9 50 -18 66 -105 7 -36 33
-112 58 -169 l45 -104 -54 -56 c-129 -134 -148 -155 -148 -163 0 -5 -20 -18
-45 -29 -93 -41 -118 -98 -92 -205 9 -32 18 -90 21 -128 7 -75 33 -201 48
-228 21 -42 74 -8 124 80 15 26 38 62 52 80 24 33 25 33 99 31 41 -1 112 -8
157 -16 86 -15 287 -19 307 -7 7 4 -5 -24 -26 -62 -89 -163 -103 -203 -87
-238 14 -32 84 -83 132 -96 20 -5 49 -23 65 -40 16 -16 34 -30 40 -30 6 0 45
-17 86 -37 82 -41 134 -47 155 -19 11 16 11 24 -3 55 -102 233 -99 250 72 386
51 41 114 99 141 129 44 52 55 58 141 86 155 50 229 94 286 171 51 70 35 112
-82 214 -107 93 -266 270 -283 315 -9 26 5 34 97 59 98 27 234 76 297 107 48
24 48 25 64 119 4 22 24 69 45 104 46 76 51 125 17 179 -30 49 -85 70 -185 73
-76 2 -85 0 -135 -31 -106 -67 -174 -106 -200 -118 l-28 -12 0 183 0 182 33
18 c54 30 117 95 117 121 0 14 -93 62 -218 112 -75 31 -166 69 -202 86 -79 36
-166 77 -201 94 -23 12 -30 10 -65 -13z"/>
</g>
</svg>
