<svg height="512pt" viewBox="0 0 512 512.00008" width="512pt" xmlns="http://www.w3.org/2000/svg"><path d="m465.835938 179.199219h20.5625c9.414062.027343 17.039062 7.652343 17.066406 17.066406v93.867187c-.050782 14.117188-11.480469 25.550782-25.597656 25.601563h-34.132813v-17.066406c0-4.714844-3.820313-8.535157-8.535156-8.535157h-68.265625c-4.714844 0-8.535156 3.820313-8.535156 8.535157v17.066406h-204.796876v-17.066406c0-4.714844-3.820312-8.535157-8.535156-8.535157h-68.265625c-4.714843 0-8.535156 3.820313-8.535156 8.535157v17.066406h-34.132813c-6.308593.011719-12.394531-2.332031-17.066406-6.570313-5.472656-4.804687-8.585937-11.75-8.53125-19.03125v-93.867187c.027344-9.414063 7.652344-17.039063 17.066406-17.066406zm0 0" fill="#a38976"/><path d="m494.933594 309.164062v160.167969c0 18.851563-15.28125 34.132813-34.132813 34.132813h-409.601562c-18.851563 0-34.132813-15.28125-34.132813-34.132813v-160.167969c4.671875 4.238282 10.757813 6.582032 17.066406 6.570313h34.132813v51.199219c0 4.710937 3.820313 8.53125 8.535156 8.53125h68.265625c4.714844 0 8.535156-3.820313 8.535156-8.53125v-51.199219h204.796876v51.199219c0 4.710937 3.820312 8.53125 8.535156 8.53125h68.265625c4.714843 0 8.535156-3.820313 8.535156-8.53125v-51.199219h34.132813c6.308593.011719 12.394531-2.332031 17.066406-6.570313zm0 0" fill="#937966"/><path d="m76.800781 179.199219h68.265625v110.933593h-68.265625zm0 0" fill="#f2a95a"/><path d="m76.800781 375.464844h68.265625v128h-68.265625zm0 0" fill="#f2a95a"/><path d="m76.800781 290.132812h68.265625c4.714844 0 8.535156 3.820313 8.535156 8.535157v68.265625c0 4.710937-3.820312 8.53125-8.535156 8.53125h-68.265625c-4.714843 0-8.535156-3.820313-8.535156-8.53125v-68.265625c0-4.714844 3.820313-8.535157 8.535156-8.535157zm0 0" fill="#fab864"/><path d="m435.199219 204.800781v85.332031h-68.265625v-110.933593h54.699218l-3.328124 15.359375c-.441407 2.617187.324218 5.292968 2.078124 7.277344 1.757813 1.988281 4.316407 3.078124 6.964844 2.964843zm0 0" fill="#f2a95a"/><path d="m366.933594 375.464844h68.265625v128h-68.265625zm0 0" fill="#f2a95a"/><path d="m366.933594 290.132812h68.265625c4.714843 0 8.535156 3.820313 8.535156 8.535157v68.265625c0 4.710937-3.820313 8.53125-8.535156 8.53125h-68.265625c-4.714844 0-8.535156-3.820313-8.535156-8.53125v-68.265625c0-4.714844 3.820312-8.535157 8.535156-8.535157zm0 0" fill="#fab864"/><path d="m443.734375 68.265625-17.066406 11.351563-59.734375 39.847656c-34.273438-17.628906-72.402344-26.425782-110.933594-25.597656-38.53125-.828126-76.660156 7.96875-110.933594 25.597656l-76.800781-51.199219 187.734375-59.730469 172.203125 54.78125zm0 0" fill="#6692aa"/><path d="m145.066406 179.199219v-59.734375c34.273438-17.628906 72.402344-26.425782 110.933594-25.597656 38.53125-.828126 76.660156 7.96875 110.933594 25.597656v59.734375zm0 0" fill="#4d7693"/><path d="m451.585938 204.800781h-32.769532c-2.648437.113281-5.210937-.976562-6.964844-2.964843-1.757812-1.984376-2.519531-4.660157-2.082031-7.277344l3.328125-15.359375 2.21875-10.238281c1.050782-4.113282 4.804688-6.945313 9.046875-6.828126h21.675781c4.238282-.117187 7.996094 2.714844 9.042969 6.828126l2.21875 10.238281 3.328125 15.359375c.441406 2.617187-.324218 5.292968-2.078125 7.277344-1.757812 1.988281-4.316406 3.078124-6.964843 2.964843zm0 0" fill="#ffc17d"/><path d="m512 196.265625c0-14.136719-11.460938-25.597656-25.601562-25.597656h-13.652344l-.757813-3.515625c-1.925781-8.035156-9.160156-13.660156-17.417969-13.550782h-2.304687v-85.335937c0-.144531-.074219-.273437-.085937-.417969.019531-.257812.019531-.515625 0-.777344-.105469-.613281-.273438-1.214843-.511719-1.789062-.050781-.136719-.066407-.28125-.125-.417969-.394531-.886719-.941407-1.695312-1.613281-2.390625-.179688-.195312-.394532-.351562-.589844-.527344-.550782-.492187-1.164063-.902343-1.828125-1.230468-.246094-.140625-.503907-.269532-.765625-.375-.152344-.058594-.273438-.152344-.425782-.207032l-51.203124-16.289062c-4.4375-1.257812-9.074219 1.238281-10.464844 5.636719-1.390625 4.398437.964844 9.105469 5.320312 10.628906l34.277344 10.90625-57.75 38.5-.257812-.125-.851563-.417969c-.769531-.386718-1.589844-.785156-2.492187-1.214844l-1.195313-.5625c-.929687-.4375-1.925781-.890624-2.996094-1.355468l-1.398437-.625c-1.246094-.535156-2.5625-1.089844-3.984375-1.707032l-1.09375-.441406c-1.859375-.75-3.832031-1.511718-5.972657-2.289062l-.402343-.082032c-1.917969-.710937-3.949219-1.410156-6.074219-2.117187-.632812-.214844-1.296875-.425781-1.953125-.632813-1.707031-.554687-3.414063-1.101562-5.277344-1.648437l-2.5-.730469c-1.808593-.523437-3.683593-1.027344-5.605469-1.527344-.851562-.230468-1.707031-.460937-2.609374-.683593-2.347657-.589844-4.769532-1.152344-7.273438-1.707031l-1.464844-.332032c-3.023437-.648437-6.152344-1.257812-9.386718-1.828125-.792969-.136719-1.621094-.253906-2.414063-.382812-2.460937-.410157-4.960937-.800781-7.527344-1.152344-1.171875-.164063-2.375-.308594-3.578125-.460937-2.3125-.28125-4.65625-.546876-7.054687-.777344-1.304688-.128906-2.621094-.253906-3.953125-.367188-2.558594-.210937-5.117188-.375-7.722656-.519531-1.21875-.066406-2.40625-.152344-3.640626-.203125-3.851562-.1875-7.785156-.292969-11.820312-.292969s-7.96875.105469-11.828125.265625c-1.238281.050782-2.421875.136719-3.644531.207032-2.609375.144531-5.195313.304687-7.722656.519531-1.328126.109375-2.644532.238281-3.949219.367187-2.398438.230469-4.746094.492188-7.058594.773438-1.203125.15625-2.40625.300781-3.574219.460937-2.558594.351563-5.070312.746094-7.527344 1.152344-.792968.128906-1.621093.25-2.414062.386719-3.226562.566406-6.355469 1.175781-9.386719 1.824218l-1.46875.332032c-2.5.554687-4.921875 1.121094-7.269531 1.707031-.894531.222656-1.707031.453125-2.609375.683594-1.921875.503906-3.796875 1.007812-5.609375 1.527343l-2.5.734376c-1.824219.546874-3.574219 1.09375-5.273438 1.648437-.65625.203125-1.320312.417969-1.953124.628906-2.125.710938-4.15625 1.410157-6.074219 2.117188l-.417969.144531c-2.109375.777344-4.082031 1.535156-5.976562 2.289062l-1.089844.441407c-1.398438.582031-2.738282 1.136719-3.984375 1.707031l-1.402344.625c-1.0625.464844-2.0625.917969-2.992187 1.355469l-1.195313.5625c-.90625.425781-1.707031.851562-2.492187 1.210937l-.855469.417969-.253907.128906-57.703124-38.535156 168.226562-53.523437 82.773438 26.328124c4.414062 1.1875 8.980468-1.320312 10.355468-5.679687 1.371094-4.363281-.9375-9.03125-5.234375-10.585937l-85.335937-27.152344c-1.679688-.535156-3.488282-.535156-5.167969 0l-187.734375 59.730468c-3.128906.996094-5.40625 3.691407-5.867188 6.941407-.457031 3.25.988282 6.472656 3.714844 8.292969l73.03125 48.664062v46.636719h-110.933594c-14.140624 0-25.601562 11.460937-25.601562 25.597656v93.867187c.0234375 8.230469 3.058594 16.167969 8.535156 22.316407v37.417969c0 4.710937 3.820313 8.53125 8.53125 8.53125 4.714844 0 8.535156-3.820313 8.535156-8.53125v-26.683594c.511719.128906 1.03125.1875 1.550782.296875.519531.113281.929687.199219 1.410156.273437 1.839844.320313 3.703125.492188 5.570312.511719h25.601563v42.667969c.015625 6.070312 3.269531 11.667968 8.53125 14.695312v113.304688h-17.066406c-14.136719 0-25.597657-11.460938-25.597657-25.601563v-68.265625c0-4.710937-3.820312-8.53125-8.535156-8.53125-4.710937 0-8.53125 3.820313-8.53125 8.53125v68.265625c.027344 23.554688 19.113282 42.640625 42.664063 42.667969h409.601562c23.550781-.027344 42.636719-19.113281 42.664063-42.667969v-156.902343c5.472656-6.140626 8.507812-14.070313 8.535156-22.296876zm-25.601562-8.53125c4.714843 0 8.535156 3.820313 8.535156 8.53125v93.867187c.035156 4.867188-2.058594 9.503907-5.726563 12.699219-3.105469 2.8125-7.148437 4.371094-11.339843 4.367188h-25.601563v-8.53125c-.015625-6.070313-3.269531-11.671875-8.53125-14.695313v-70.640625h16.382813c5.414062.035157 10.550781-2.378906 13.976562-6.570312 3.203125-3.910157 4.460938-9.0625 3.414062-14.011719l-1.082031-5.015625zm-85.332032 153.597656c-4.710937 0-8.53125 3.820313-8.53125 8.535157v17.066406h-25.601562v-68.265625h68.265625v68.265625h-25.597657v-17.066406c0-4.714844-3.820312-8.535157-8.535156-8.535157zm-290.132812 0c-4.714844 0-8.535156 3.820313-8.535156 8.535157v17.066406h-25.597657v-68.265625h68.265625v68.265625h-25.601562v-17.066406c0-4.714844-3.820313-8.535157-8.53125-8.535157zm42.667968-216.746093c.929688-.460938 2.011719-.988282 3.25-1.5625l.792969-.363282c.90625-.421875 1.894531-.855468 2.945313-1.324218l1.246094-.539063c1.082031-.460937 2.25-.945313 3.472656-1.441406l1.269531-.511719c3.363281-1.339844 7.203125-2.746094 11.476563-4.164062l1.8125-.582032c1.578124-.5 3.199218-1.003906 4.878906-1.507812l2.425781-.699219c1.640625-.46875 3.347656-.929687 5.117187-1.382813l2.5625-.667968c2.03125-.503906 4.136719-.996094 6.289063-1.464844.628906-.148438 1.226563-.292969 1.867187-.429688 2.808594-.597656 5.710938-1.167968 8.695313-1.707031l2.089844-.339843c2.328125-.390626 4.710937-.757813 7.152343-1.101563 1.074219-.144531 2.191407-.28125 3.292969-.417969 2.167969-.261718 4.371094-.503906 6.605469-.734375 1.210938-.117187 2.421875-.230469 3.660156-.332031 2.347656-.195312 4.746094-.359375 7.167969-.484375 1.136719-.070313 2.246094-.144531 3.414063-.199219 3.523437-.125 7.167968-.230468 10.914062-.230468s7.390625.105468 10.964844.25c1.152344.050781 2.261718.128906 3.414062.195312 2.421875.128906 4.820313.289062 7.167969.488281 1.238281.101563 2.449219.210938 3.660156.332031 2.234375.222657 4.445313.46875 6.605469.734376l3.292969.417968c2.441406.339844 4.824219.707032 7.152343 1.097656l2.089844.34375c2.988282.519532 5.886719 1.089844 8.695313 1.707032.640625.136718 1.238281.28125 1.867187.425781 2.152344.46875 4.269532.964844 6.289063 1.46875l2.5625.664063c1.738281.457031 3.445312.917968 5.121093 1.382812l2.421876.699219c1.707031.503906 3.300781 1.007812 4.882812 1.511719l1.808594.578124c4.265625 1.417969 8.113281 2.835938 11.484375 4.164063l1.253906.511719c1.222656.496094 2.390625.972656 3.480469 1.445312l1.246094.535156c1.050781.460938 2.039062.90625 2.945312 1.324219l.792969.367188c1.238281.570312 2.320312 1.101562 3.253906 1.5625v46.0625h-204.851563zm256.347657 68.265624c-1.03125 4.929688.222656 10.058594 3.414062 13.953126.824219 1.011718 1.761719 1.925781 2.789063 2.730468.34375.273438.734375.460938 1.101562.699219.695313.496094 1.421875.945313 2.175782 1.339844.453124.214843.9375.34375 1.410156.523437.734375.300782 1.492187.558594 2.261718.765625.5.121094 1.03125.144531 1.542969.222657.667969.117187 1.34375.199218 2.023438.246093v68.269531h-51.203125v-93.867187h35.585937zm-51.550781-5.117187v96.238281c-5.261719 3.023438-8.511719 8.625-8.53125 14.695313v8.53125h-187.734376v-8.53125c-.019531-6.070313-3.269531-11.671875-8.53125-14.695313v-96.238281zm-204.796876 193.894531c5.261719-3.027344 8.511719-8.625 8.53125-14.695312v-42.667969h187.734376v42.667969c.019531 6.070312 3.269531 11.667968 8.53125 14.695312v113.304688h-204.796876zm301.675782-210.859375 2.21875 10.035157v.203124l2.621094 15.257813-24.550782.078125c-.128906 0-.238281-.078125-.367187-.078125l-8.53125.105469 3.335937-15.363282 2.890625-10.339843zm-20.078125-86.5625v69.394531h-2.304688c-8.246093-.097656-15.464843 5.527344-17.390625 13.550782l-.785156 3.515625h-39.253906v-46.636719zm-298.664063 103.527344v93.867187h-51.203125v-93.867187zm-102.402344 119.464844c-4.242187-.011719-8.328124-1.601563-11.460937-4.460938-3.601563-3.195312-5.648437-7.789062-5.605469-12.605469v-93.867187c0-4.710937 3.820313-8.53125 8.535156-8.53125h42.664063v96.238281c-5.261719 3.023438-8.515625 8.625-8.53125 14.695313v8.53125zm51.199219 187.734375v-110.933594h51.203125v110.933594zm290.132813 0v-110.933594h51.203125v110.933594zm110.933594-25.601563c0 14.140625-11.460938 25.601563-25.597657 25.601563h-17.066406v-113.304688c5.261719-3.027344 8.515625-8.625 8.53125-14.695312v-42.667969h25.601563c1.863281-.019531 3.71875-.191406 5.554687-.511719.496094-.074218.972656-.179687 1.449219-.28125.480468-.101562 1.027344-.160156 1.527344-.289062zm0 0"/><path d="m196.265625 452.265625h-8.53125c-4.714844 0-8.535156 3.820313-8.535156 8.535156 0 4.710938 3.820312 8.53125 8.535156 8.53125h8.53125c4.714844 0 8.535156-3.820312 8.535156-8.53125 0-4.714843-3.820312-8.535156-8.535156-8.535156zm0 0"/><path d="m324.265625 452.265625h-93.867187c-4.710938 0-8.53125 3.820313-8.53125 8.535156 0 4.710938 3.820312 8.53125 8.53125 8.53125h93.867187c4.714844 0 8.535156-3.820312 8.535156-8.53125 0-4.714843-3.820312-8.535156-8.535156-8.535156zm0 0"/><path d="m315.734375 290.132812h8.53125c4.714844 0 8.535156-3.820312 8.535156-8.53125 0-4.714843-3.820312-8.535156-8.535156-8.535156h-8.53125c-4.714844 0-8.535156 3.820313-8.535156 8.535156 0 4.710938 3.820312 8.53125 8.535156 8.53125zm0 0"/><path d="m187.734375 290.132812h93.867187c4.710938 0 8.53125-3.820312 8.53125-8.53125 0-4.714843-3.820312-8.535156-8.53125-8.535156h-93.867187c-4.714844 0-8.535156 3.820313-8.535156 8.535156 0 4.710938 3.820312 8.53125 8.535156 8.53125zm0 0"/></svg>