<svg height="512pt" viewBox="0 -75 512 512" width="512pt" xmlns="http://www.w3.org/2000/svg"><path d="m10 10h269v205.433594h-269zm0 0" fill="#59acbf"/><path d="m279 10h223v68.476562h-223zm0 0" fill="#ef444b"/><path d="m279 78.476562h223v68.476563h-223zm0 0" fill="#e8e7e6"/><path d="m279 146.957031h223v68.476563h-223zm0 0" fill="#ef444b"/><path d="m10 283.910156v68.476563h492v-68.476563" fill="#ef444b"/><path d="m502 283.910156v-68.476562h-492v68.476562h383" fill="#e8e7e6"/><path d="m502 0h-222.925781c-.023438 0-.050781 0-.074219 0h-269c-5.523438 0-10 4.476562-10 10v342.390625c0 5.519531 4.476562 10 10 10h492c5.523438 0 10-4.480469 10-10v-342.390625c0-5.523438-4.476562-10-10-10zm-10 136.953125h-203v-48.476563h203zm-203 20.003906h203v48.476563h-203zm203-88.480469h-203v-48.476562h203zm-472-48.476562h249v185.433594h-249zm472 322.386719h-472v-48.476563h373c5.523438 0 10-4.480468 10-10 0-5.523437-4.476562-10-10-10h-373v-48.476562h472zm0 0"/><path d="m442.328125 293.902344c-.648437 0-1.308594-.058594-1.949219-.1875s-1.269531-.320313-1.867187-.570313c-.613281-.25-1.191407-.558593-1.730469-.917969-.550781-.371093-1.0625-.78125-1.519531-1.25-.460938-.460937-.882813-.972656-1.242188-1.511718-.359375-.550782-.667969-1.128906-.917969-1.730469-.25-.597656-.441406-1.230469-.570312-1.871094-.132812-.648437-.199219-1.296875-.199219-1.949219 0-.660156.066407-1.308593.199219-1.960937.128906-.636719.320312-1.269531.570312-1.867187.25-.601563.558594-1.179688.917969-1.730469.359375-.539063.78125-1.058594 1.242188-1.519531 2.316406-2.320313 5.769531-3.382813 9.027343-2.730469.632813.128906 1.261719.320312 1.871094.570312.601563.25 1.179688.558594 1.71875.917969.550782.359375 1.0625.78125 1.519532 1.242188.460937.460937.882812.980468 1.25 1.519531.363281.550781.671874 1.128906.921874 1.730469.25.601562.441407 1.230468.570313 1.867187.128906.652344.191406 1.300781.191406 1.960937 0 .652344-.0625 1.300782-.191406 1.949219-.128906.640625-.320313 1.273438-.570313 1.871094-.25.601563-.558593 1.179687-.921874 1.730469-.367188.539062-.789063 1.050781-1.25 1.511718-.457032.46875-.96875.878907-1.519532 1.25-.539062.359376-1.117187.667969-1.71875.917969-.609375.25-1.238281.441407-1.871094.570313-.648437.128906-1.308593.1875-1.960937.1875zm0 0"/><path d="m166.847656 58.476562h-8.230468v-8.230468c0-5.519532-4.476563-10-10-10-5.519532 0-10 4.480468-10 10v8.230468h-8.226563c-5.523437 0-10 4.476563-10 10 0 5.519532 4.476563 10 10 10h8.226563v8.226563c0 5.523437 4.480468 10 10 10 5.523437 0 10-4.476563 10-10v-8.226563h8.230468c5.519532 0 10-4.480468 10-10 0-5.523437-4.480468-10-10-10zm0 0"/><path d="m84.226562 58.476562h-8.226562v-8.230468c0-5.519532-4.476562-10-10-10s-10 4.480468-10 10v8.230468h-8.226562c-5.523438 0-10 4.476563-10 10 0 5.519532 4.476562 10 10 10h8.226562v8.226563c0 5.523437 4.476562 10 10 10s10-4.476563 10-10v-8.226563h8.226562c5.523438 0 10-4.480468 10-10 0-5.523437-4.476562-10-10-10zm0 0"/><path d="m213.007812 78.476562h8.226563v8.226563c0 5.523437 4.480469 10 10 10 5.523437 0 10-4.476563 10-10v-8.226563h8.230469c5.523437 0 10-4.480468 10-10 0-5.523437-4.476563-10-10-10h-8.230469v-8.230468c0-5.519532-4.476563-10-10-10-5.519531 0-10 4.480468-10 10v8.230468h-8.226563c-5.523437 0-10 4.476563-10 10 0 5.519532 4.476563 10 10 10zm0 0"/><path d="m166.847656 147.113281h-8.230468v-8.230469c0-5.519531-4.476563-10-10-10-5.519532 0-10 4.480469-10 10v8.230469h-8.226563c-5.523437 0-10 4.476563-10 10 0 5.519531 4.476563 10 10 10h8.226563v8.226563c0 5.523437 4.480468 10 10 10 5.523437 0 10-4.476563 10-10v-8.226563h8.230468c5.519532 0 10-4.480469 10-10 0-5.523437-4.480468-10-10-10zm0 0"/><path d="m84.226562 147.113281h-8.226562v-8.230469c0-5.519531-4.476562-10-10-10s-10 4.480469-10 10v8.230469h-8.226562c-5.523438 0-10 4.476563-10 10 0 5.519531 4.476562 10 10 10h8.226562v8.226563c0 5.523437 4.476562 10 10 10s10-4.476563 10-10v-8.226563h8.226562c5.523438 0 10-4.480469 10-10 0-5.523437-4.476562-10-10-10zm0 0"/><path d="m249.464844 147.113281h-8.230469v-8.230469c0-5.519531-4.476563-10-10-10-5.519531 0-10 4.480469-10 10v8.230469h-8.226563c-5.523437 0-10 4.476563-10 10 0 5.519531 4.476563 10 10 10h8.226563v8.226563c0 5.523437 4.480469 10 10 10 5.523437 0 10-4.476563 10-10v-8.226563h8.230469c5.519531 0 10-4.480469 10-10 0-5.523437-4.480469-10-10-10zm0 0"/></svg>