<svg height="512pt" viewBox="0 0 512 512.00128" width="512pt" xmlns="http://www.w3.org/2000/svg"><path d="m503.46875 256v238.933594c0 4.714844-3.820312 8.535156-8.535156 8.535156h-477.867188c-4.710937 0-8.53125-3.820312-8.53125-8.535156v-238.933594c0-5.714844.167969-11.433594.679688-17.066406.269531-5.714844.839844-11.410156 1.707031-17.066406 2.371094-17.476563 6.632813-34.644532 12.714844-51.199219 2.132812-5.800781 4.4375-11.519531 7.082031-17.066407 8.269531-18.304687 18.792969-35.503906 31.320312-51.199218 4.59375-5.988282 9.554688-11.6875 14.847657-17.066406 30.277343-31.914063 68.554687-55.132813 110.847656-67.242188 5.632813-1.625 11.347656-3.074219 17.066406-4.269531 16.835938-3.542969 33.996094-5.3125 51.199219-5.289063 17.210938-.042968 34.375 1.757813 51.199219 5.375 5.804687 1.109375 11.519531 2.558594 17.066406 4.183594 40.355469 11.539062 77.097656 33.183594 106.753906 62.890625 1.449219 1.449219 2.816407 2.898437 4.097657 4.351563 5.269531 5.425781 10.253906 11.121093 14.929687 17.066406 12.519531 15.6875 23.015625 32.886718 31.234375 51.199218 2.644531 5.546876 4.949219 11.265626 7.082031 17.066407 6.082031 16.554687 10.347657 33.722656 12.714844 51.199219.871094 5.65625 1.441406 11.351562 1.707031 17.066406.511719 5.632812.683594 11.351562.683594 17.066406zm0 0" fill="#74d7f1" fill-rule="evenodd"/><path d="m349.867188 358.402344v145.066406h-51.199219v-145.066406c0-23.566406-19.101563-42.667969-42.667969-42.667969-23.5625 0-42.667969 19.101563-42.667969 42.667969v145.066406h-51.199219v-145.066406c0-51.84375 42.027344-93.867188 93.867188-93.867188s93.867188 42.023438 93.867188 93.867188zm0 0" fill="#4ab1d9" fill-rule="evenodd"/><path d="m256 0c-39.390625-.125-78.269531 8.933594-113.550781 26.453125-2.746094 1.355469-4.558594 4.074219-4.757813 7.125-.195312 3.054687 1.25 5.984375 3.792969 7.679687 2.546875 1.699219 5.804687 1.910157 8.550781.558594 12.121094-6.023437 24.730469-11 37.699219-14.875v58.394532h-98.925781c6.003906-5.890626 12.308594-11.464844 18.890625-16.699219 3.695312-2.929688 4.316406-8.296875 1.390625-11.992188-2.925782-3.695312-8.292969-4.316406-11.988282-1.390625-54.316406 42.808594-88.875 105.878906-95.726562 174.695313 0 .160156-.09375.289062-.09375.453125 0 .160156.042969.117187.042969.1875-.828125 8.386718-1.324219 16.878906-1.324219 25.410156v238.933594c0 9.425781 7.640625 17.066406 17.066406 17.066406h196.265625c4.714844 0 8.535157-3.820312 8.535157-8.53125v-145.066406c0-18.851563 15.28125-34.132813 34.132812-34.132813s34.132812 15.28125 34.132812 34.132813v145.066406c0 4.710938 3.820313 8.53125 8.535157 8.53125h196.265625c9.425781 0 17.066406-7.640625 17.066406-17.066406 0-4.710938-3.820312-8.53125-8.53125-8.53125-4.714844 0-8.535156 3.820312-8.535156 8.53125h-59.734375v-51.199219h68.269531c4.710938 0 8.53125-3.820313 8.53125-8.53125v-179.203125c.03125-67.902344-26.933594-133.035156-74.949219-181.050781s-113.144531-74.9765628-181.050781-74.949219zm145.066406 426.667969v-51.199219h42.667969c4.710937 0 8.53125-3.820312 8.53125-8.535156 0-4.710938-3.820313-8.53125-8.53125-8.53125h-8.535156v-51.199219h59.734375v51.199219h-17.066406c-4.710938 0-8.535157 3.820312-8.535157 8.53125 0 4.714844 3.824219 8.535156 8.535157 8.535156h17.066406v51.199219zm-42.664062 0v-51.199219h25.597656v51.199219zm-178.511719-136.535157h-51.890625v-51.199218h8.535156c4.710938 0 8.53125-3.820313 8.53125-8.53125 0-4.714844-3.820312-8.535156-8.53125-8.535156h-42.667968v-51.199219h93.867187v51.199219h-17.066406c-4.714844 0-8.535157 3.820312-8.535157 8.535156 0 4.710937 3.820313 8.53125 8.535157 8.53125h76.800781v17.503906c-26.007812 2.179688-50.1875 14.238281-67.578125 33.695312zm-137.222656 128c-4.714844 0-8.535157 3.824219-8.535157 8.535157h-17.066406v-51.199219h17.066406v17.066406c0 4.710938 3.820313 8.53125 8.535157 8.53125 4.710937 0 8.53125-3.820312 8.53125-8.53125v-17.066406h59.734375v51.199219h-59.734375c0-4.710938-3.820313-8.535157-8.53125-8.535157zm-9.882813-247.464843h44.015625v51.199219h-57.226562c2.488281-17.503907 6.917969-34.675782 13.210937-51.199219zm40.21875-68.265625h37.929688v51.199218h-70.910156c8.746093-18.414062 19.828124-35.625 32.980468-51.199218zm174.464844 0v51.199218h-119.46875v-51.199218zm136.53125 0v51.199218h-8.53125c-4.714844 0-8.535156 3.820313-8.535156 8.53125 0 4.714844 3.820312 8.535157 8.535156 8.535157h42.664062v51.199219h-93.867187v-51.199219h17.066406c4.714844 0 8.535157-3.820313 8.535157-8.535157 0-4.710937-3.820313-8.53125-8.535157-8.53125h-76.796875v-51.199218zm110.933594 153.597656v34.132812h-93.867188v-51.199218h93.203125c.390625 5.660156.664063 11.34375.664063 17.066406zm-290.132813-34.132812v-51.199219h102.398438v51.199219zm-93.867187 17.066406v51.199218h-59.734375v-17.066406c0-4.710937-3.820313-8.53125-8.53125-8.53125-4.714844 0-8.535157 3.820313-8.535157 8.53125v17.066406h-17.066406v-34.132812c0-5.722656.273438-11.40625.667969-17.066406zm-59.734375 119.46875v-51.199219h25.601562v51.199219zm-17.066407 0h-17.066406v-51.199219h17.066406zm119.46875 17.066406v51.199219h-25.601562v-51.199219zm0 68.265625v51.199219h-59.734374v-51.199219zm0-85.332031h-59.734374v-51.199219h73.582031c-9.066407 15.539063-13.84375 33.207031-13.847657 51.199219zm110.933594-119.46875h119.464844v51.199218h-51.890625c-17.386719-19.457031-41.570313-31.515624-67.574219-33.695312zm153.597656 68.269531v51.199219h-59.730468c-.003906-17.992188-4.785156-35.660156-13.851563-51.199219zm17.066407-85.335937v-51.199219h44.058593c6.3125 16.519531 10.757813 33.691406 13.246094 51.199219zm-34.132813-68.265626v-51.199218h37.964844c13.152344 15.578125 24.246094 32.789062 33.007812 51.199218zm-76.800781-68.265624v-58.402344c37.28125 11.066406 71.273437 31.121094 98.988281 58.402344zm-119.464844-62.738282c33.734375-7.375 68.664063-7.375 102.398438 0v62.738282h-102.398438zm-187.734375 421.136719h17.066406c0 4.714844 3.820313 8.535156 8.535157 8.535156 4.710937 0 8.53125-3.820312 8.53125-8.535156h25.601562v51.199219h-59.734375zm238.933594-136.53125c-28.265625.027344-51.171875 22.933594-51.199219 51.199219v136.53125h-34.132812v-136.53125c0-47.128906 38.203125-85.335938 85.332031-85.335938s85.332031 38.207032 85.332031 85.335938v136.53125h-34.132812v-136.53125c-.027344-28.265625-22.933594-51.171875-51.199219-51.199219zm162.132812 187.730469h-59.730468v-51.199219h59.730468zm0 0" fill="#232323"/></svg>