<?xml version="1.0"?>
<svg xmlns="http://www.w3.org/2000/svg" viewBox="0 0 48 48" width="512" height="512"><g id="_27-disco_ball" data-name="27-disco ball"><path d="M27,10v1H21V10a3,3,0,0,1,6,0Z" style="fill:#fff"/><path d="M33.39,19.61C31.46,14.44,27.98,11,24,11A18,18,0,0,1,42,29C42,25.02,38.56,21.54,33.39,19.61Z" style="fill:#58abfb"/><path d="M42,29c0-1.65-2.86-3.11-7.28-4.02a24.828,24.828,0,0,0-1.33-5.37C38.56,21.54,42,25.02,42,29Z" style="fill:#fff"/><path d="M42,29c0,1.65-2.86,3.11-7.28,4.02a29,29,0,0,0,0-8.04C39.14,25.89,42,27.35,42,29Z" style="fill:#58abfb"/><path d="M34.72,33.02C39.14,32.11,42,30.65,42,29c0,3.98-3.44,7.46-8.61,9.39A24.828,24.828,0,0,0,34.72,33.02Z" style="fill:#fff"/><path d="M33.39,38.39C38.56,36.46,42,32.98,42,29A18,18,0,0,1,24,47C27.98,47,31.46,43.56,33.39,38.39Z" style="fill:#58abfb"/><path d="M33.39,38.39C31.46,43.56,27.98,47,24,47c1.65,0,3.11-2.86,4.02-7.28A24.828,24.828,0,0,0,33.39,38.39Z" style="fill:#fff"/><path d="M34.72,33.02a24.828,24.828,0,0,1-1.33,5.37,24.828,24.828,0,0,1-5.37,1.33,48.489,48.489,0,0,0,.8-5.9A48.489,48.489,0,0,0,34.72,33.02Z" style="fill:#58abfb"/><path d="M34.72,24.98a29,29,0,0,1,0,8.04,48.489,48.489,0,0,1-5.9.8c.12-1.53.18-3.15.18-4.82s-.06-3.29-.18-4.82A48.489,48.489,0,0,1,34.72,24.98Z" style="fill:#fff"/><path d="M33.39,19.61a24.828,24.828,0,0,1,1.33,5.37,48.489,48.489,0,0,0-5.9-.8,48.489,48.489,0,0,0-.8-5.9A24.828,24.828,0,0,1,33.39,19.61Z" style="fill:#58abfb"/><path d="M24,11c3.98,0,7.46,3.44,9.39,8.61a24.828,24.828,0,0,0-5.37-1.33C27.11,13.86,25.65,11,24,11Z" style="fill:#fff"/><path d="M24,11c-3.98,0-7.46,3.44-9.39,8.61C9.44,21.54,6,25.02,6,29A18,18,0,0,1,24,11Z" style="fill:#58abfb"/><path d="M13.28,24.98C8.86,25.89,6,27.35,6,29c0-3.98,3.44-7.46,8.61-9.39A24.828,24.828,0,0,0,13.28,24.98Z" style="fill:#fff"/><path d="M6,29c0-1.65,2.86-3.11,7.28-4.02a29,29,0,0,0,0,8.04C8.86,32.11,6,30.65,6,29Z" style="fill:#58abfb"/><path d="M6,29c0,1.65,2.86,3.11,7.28,4.02a24.828,24.828,0,0,0,1.33,5.37C9.44,36.46,6,32.98,6,29Z" style="fill:#fff"/><path d="M14.61,38.39C16.54,43.56,20.02,47,24,47A18,18,0,0,1,6,29C6,32.98,9.44,36.46,14.61,38.39Z" style="fill:#58abfb"/><path d="M24,47c-3.98,0-7.46-3.44-9.39-8.61a24.828,24.828,0,0,0,5.37,1.33C20.89,44.14,22.35,47,24,47Z" style="fill:#fff"/><path d="M19.18,33.82a48.489,48.489,0,0,0,.8,5.9,24.828,24.828,0,0,1-5.37-1.33,24.828,24.828,0,0,1-1.33-5.37A48.489,48.489,0,0,0,19.18,33.82Z" style="fill:#58abfb"/><path d="M19.18,24.18C19.06,25.71,19,27.33,19,29s.06,3.29.18,4.82a48.489,48.489,0,0,1-5.9-.8,29,29,0,0,1,0-8.04A48.489,48.489,0,0,1,19.18,24.18Z" style="fill:#fff"/><path d="M19.98,18.28a48.489,48.489,0,0,0-.8,5.9,48.489,48.489,0,0,0-5.9.8,24.828,24.828,0,0,1,1.33-5.37A24.828,24.828,0,0,1,19.98,18.28Z" style="fill:#58abfb"/><path d="M14.61,19.61C16.54,14.44,20.02,11,24,11c-1.65,0-3.11,2.86-4.02,7.28A24.828,24.828,0,0,0,14.61,19.61Z" style="fill:#fff"/><path d="M19.98,18.28C20.89,13.86,22.35,11,24,11s3.11,2.86,4.02,7.28a29,29,0,0,0-8.04,0Z" style="fill:#58abfb"/><path d="M28.02,18.28a48.489,48.489,0,0,1,.8,5.9C27.29,24.06,25.67,24,24,24s-3.29.06-4.82.18a48.489,48.489,0,0,1,.8-5.9,29,29,0,0,1,8.04,0Z" style="fill:#fff"/><path d="M28.02,39.72C27.11,44.14,25.65,47,24,47s-3.11-2.86-4.02-7.28a29,29,0,0,0,8.04,0Z" style="fill:#58abfb"/><path d="M28.82,33.82a48.489,48.489,0,0,1-.8,5.9,29,29,0,0,1-8.04,0,48.489,48.489,0,0,1-.8-5.9c1.53.12,3.15.18,4.82.18S27.29,33.94,28.82,33.82Z" style="fill:#fff"/><path d="M28.82,24.18c.12,1.53.18,3.15.18,4.82s-.06,3.29-.18,4.82c-1.53.12-3.15.18-4.82.18s-3.29-.06-4.82-.18C19.06,32.29,19,30.67,19,29s.06-3.29.18-4.82C20.71,24.06,22.33,24,24,24S27.29,24.06,28.82,24.18Z" style="fill:#58abfb"/><rect x="8" y="9" width="2" height="2" style="fill:#fff"/><rect x="3" y="43" width="2" height="2" style="fill:#fff"/><rect x="43" y="8" width="2" height="2" style="fill:#fff"/><rect x="25" y="26" width="2" height="2" style="fill:#107be8"/><rect x="21" y="30" width="2" height="2" style="fill:#107be8"/><rect x="24" y="42" width="2" height="2" style="fill:#107be8"/><rect x="9" y="28" width="2" height="2" style="fill:#107be8"/><rect x="21" y="20" width="2" height="2" style="fill:#107be8"/><rect x="37" y="28" width="2" height="2" style="fill:#107be8"/><path d="M42.959,28.2A19.015,19.015,0,0,0,28,10.432V10a4,4,0,0,0-3-3.858V1H23V6.142A4,4,0,0,0,20,10v.432A19.015,19.015,0,0,0,5.041,28.2a7.9,7.9,0,0,0,0,1.608A18.992,18.992,0,0,0,23.2,47.959a7.9,7.9,0,0,0,1.608,0A18.992,18.992,0,0,0,42.959,29.8a7.9,7.9,0,0,0,0-1.608Zm-15.5,16.718a21.748,21.748,0,0,0,1.4-4.317,26.281,26.281,0,0,0,2.736-.589A12.315,12.315,0,0,1,27.456,44.914ZM16.411,40.008a26.192,26.192,0,0,0,2.736.59,21.76,21.76,0,0,0,1.4,4.316A12.315,12.315,0,0,1,16.411,40.008ZM34,29a27.174,27.174,0,0,1-.194,3.173c-1.211.225-2.522.408-3.921.545.069-1.2.115-2.436.115-3.718s-.046-2.517-.115-3.718c1.4.137,2.71.32,3.921.545A27.092,27.092,0,0,1,34,29Zm-4.737,9.5c.2-1.174.354-2.438.476-3.763,1.326-.123,2.59-.279,3.765-.477a23.229,23.229,0,0,1-.9,3.339A23.217,23.217,0,0,1,29.263,38.5ZM15.4,37.6a23.349,23.349,0,0,1-.9-3.339c1.175.2,2.439.354,3.765.477.122,1.325.279,2.589.476,3.764A23.264,23.264,0,0,1,15.4,37.6ZM14,29a27.174,27.174,0,0,1,.194-3.173c1.211-.225,2.522-.408,3.921-.545C18.046,26.483,18,27.718,18,29s.046,2.517.115,3.718c-1.4-.137-2.71-.32-3.921-.545A27.092,27.092,0,0,1,14,29Zm4.737-9.5c-.2,1.174-.354,2.438-.476,3.763-1.326.123-2.59.279-3.765.477a23.229,23.229,0,0,1,.9-3.339A23.217,23.217,0,0,1,18.737,19.5Zm8.437-.3c.224,1.211.406,2.521.544,3.921a66.832,66.832,0,0,0-7.436,0c.138-1.4.321-2.711.545-3.921A28.359,28.359,0,0,1,27.174,19.2ZM20.127,32.873C20.05,31.628,20,30.339,20,29s.05-2.628.127-3.873a64.993,64.993,0,0,1,7.746,0C27.95,26.372,28,27.661,28,29s-.05,2.628-.127,3.873A64.993,64.993,0,0,1,20.127,32.873Zm9.612-9.613c-.122-1.325-.279-2.589-.476-3.764a23.264,23.264,0,0,1,3.339.9,23.349,23.349,0,0,1,.9,3.339C32.329,23.539,31.065,23.383,29.739,23.26ZM28.853,17.4a21.76,21.76,0,0,0-1.4-4.316,12.315,12.315,0,0,1,4.133,4.906A26.192,26.192,0,0,0,28.853,17.4Zm-2.122-.264a30.754,30.754,0,0,0-5.462,0C22.211,13.4,23.384,12,24,12S25.789,13.4,26.731,17.138Zm-6.187-4.052a21.748,21.748,0,0,0-1.4,4.317,26.281,26.281,0,0,0-2.736.589A12.315,12.315,0,0,1,20.544,13.086ZM12.4,24.147a21.728,21.728,0,0,0-4.315,1.4,12.328,12.328,0,0,1,4.9-4.132A26.449,26.449,0,0,0,12.4,24.147Zm0,9.706a26.542,26.542,0,0,0,.589,2.736,12.32,12.32,0,0,1-4.9-4.132A21.728,21.728,0,0,0,12.4,33.853Zm8.424,4.952c-.224-1.211-.406-2.521-.544-3.92,1.2.069,2.434.115,3.718.115s2.518-.046,3.718-.115c-.138,1.4-.321,2.71-.545,3.92A28.359,28.359,0,0,1,20.826,38.805ZM35.6,33.853a21.728,21.728,0,0,0,4.315-1.4,12.328,12.328,0,0,1-4.9,4.132A26.449,26.449,0,0,0,35.6,33.853Zm0-9.706a26.542,26.542,0,0,0-.589-2.736,12.32,12.32,0,0,1,4.9,4.132A21.728,21.728,0,0,0,35.6,24.147Zm3.866-2.168a18.043,18.043,0,0,0-5.3-3.137,18.05,18.05,0,0,0-3.138-5.306A17.084,17.084,0,0,1,39.464,21.979ZM24,8a2,2,0,0,1,2,2H22A2,2,0,0,1,24,8Zm-7.021,5.536a18.05,18.05,0,0,0-3.138,5.306,18.043,18.043,0,0,0-5.3,3.137A17.084,17.084,0,0,1,16.979,13.536ZM12.137,26.269C12.056,27.154,12,28.059,12,29s.056,1.848.136,2.731C8.4,30.789,7,29.617,7,29S8.4,27.211,12.137,26.269Zm-3.6,9.752a18.043,18.043,0,0,0,5.305,3.137,18.05,18.05,0,0,0,3.138,5.306A17.084,17.084,0,0,1,8.536,36.021Zm12.733,4.842c.885.081,1.79.137,2.731.137s1.848-.056,2.731-.136C25.788,44.6,24.616,46,24,46S22.211,44.6,21.269,40.863Zm9.752,3.6a18.05,18.05,0,0,0,3.138-5.306,18.043,18.043,0,0,0,5.305-3.137A17.084,17.084,0,0,1,31.021,44.464Zm4.842-12.733c.081-.885.137-1.79.137-2.731s-.056-1.848-.136-2.731C39.6,27.211,41,28.383,41,29S39.6,30.789,35.863,31.731Z" style="fill:#107be8"/><rect x="43" y="6" width="2" height="2" style="fill:#107be8"/><rect x="43" y="10" width="2" height="2" style="fill:#107be8"/><rect x="45" y="8" width="2" height="2" style="fill:#107be8"/><rect x="41" y="8" width="2" height="2" style="fill:#107be8"/><rect x="8" y="7" width="2" height="2" style="fill:#107be8"/><rect x="8" y="11" width="2" height="2" style="fill:#107be8"/><rect x="10" y="9" width="2" height="2" style="fill:#107be8"/><rect x="6" y="9" width="2" height="2" style="fill:#107be8"/><rect x="3" y="41" width="2" height="2" style="fill:#107be8"/><rect x="3" y="45" width="2" height="2" style="fill:#107be8"/><rect x="5" y="43" width="2" height="2" style="fill:#107be8"/><rect x="1" y="43" width="2" height="2" style="fill:#107be8"/><rect x="2" y="16" width="2" height="2" style="fill:#107be8"/><rect x="2" y="32" width="2" height="2" style="fill:#107be8"/><rect x="45" y="40" width="2" height="2" style="fill:#107be8"/><rect x="42" y="15" width="2" height="2" style="fill:#107be8"/></g></svg>
