<svg height="512pt" viewBox="0 0 512 512.00006" width="512pt" xmlns="http://www.w3.org/2000/svg"><path d="m332.6875 503.464844h-255.914062c-24.492188-.007813-47.097657-13.136719-59.246094-34.398438-12.152344-21.265625-11.976563-47.410156.449218-68.511718l133.207032-225.878907c1.550781-2.636719 2.375-5.640625 2.390625-8.703125v-108.882812c.007812-3.816406-1.285157-7.519532-3.671875-10.496094l-28.671875-24.238281c-2.03125-2.570313-2.410157-6.082031-.972657-9.027344 1.4375-2.949219 4.4375-4.8125 7.714844-4.792969h153.515625c3.277344-.019531 6.277344 1.84375 7.714844 4.792969 1.4375 2.945313 1.058594 6.457031-.972656 9.027344l-28.671875 24.238281c-2.324219 3.003906-3.585938 6.695312-3.585938 10.496094v81.148437c-19.886718 20.191407-31.898437 46.824219-33.875 75.09375h-44.289062c-6.03125-.015625-11.617188 3.167969-14.679688 8.363281l-115.710937 196.183594c-6.21875 10.554688-6.300781 23.636719-.214844 34.273438 6.085937 10.632812 17.402344 17.191406 29.65625 17.179687h255.828125c12.253906.011719 23.570312-6.546875 29.65625-17.179687 6.085938-10.636719 6.003906-23.71875-.214844-34.273438l-46.847656-79.363281c8.515625 1.894531 17.214844 2.835937 25.941406 2.816406 4.933594-.007812 9.863282-.320312 14.761719-.9375l35.496094 60.160157c12.429687 21.101562 12.605469 47.246093.453125 68.511718-12.148438 21.261719-34.753906 34.390625-59.246094 34.398438zm0 0" fill="#6ca4ea"/><path d="m362.382812 452.097656c-5.988281 10.753906-17.382812 17.371094-29.695312 17.234375h-255.828125c-12.253906.011719-23.570313-6.546875-29.65625-17.179687-6.085937-10.636719-6.003906-23.71875.214844-34.273438l115.710937-196.183594c3.0625-5.195312 8.648438-8.378906 14.679688-8.363281h44.289062c-.257812 2.816407-.34375 5.632813-.34375 8.535157.03125 55.980468 38.890625 104.449218 93.527344 116.648437l46.847656 79.363281c6.3125 10.507813 6.410156 23.617188.253906 34.21875zm0 0" fill="#a3d274"/><path d="m460.6875 221.867188c.039062 28.726562-10.328125 56.492187-29.183594 78.164062-3.734375 4.332031-7.785156 8.382812-12.117187 12.117188-17.851563 15.515624-39.929688 25.351562-63.402344 28.246093-4.898437.617188-9.828125.929688-14.761719.9375-31.699218.046875-62.113281-12.523437-84.527344-34.941406-22.414062-22.414063-34.984374-52.824219-34.941406-84.523437 0-2.902344.085938-5.71875.34375-8.535157 4.835938-63.949219 59.304688-112.667969 123.394532-110.378906 64.089843 2.292969 114.9375 54.78125 115.195312 118.914063zm0 0" fill="#5ec4e8"/><path d="m136.480469 426.667969h-44.707031l22.605468-38.332031c2.394532-4.0625 1.042969-9.292969-3.015625-11.6875-4.058593-2.394532-9.292969-1.042969-11.6875 3.015624l-22.605469 38.332032c-3.109374 5.277344-3.15625 11.8125-.117187 17.132812 3.035156 5.320313 8.6875 8.601563 14.8125 8.605469h44.714844c4.714843 0 8.535156-3.820313 8.535156-8.535156 0-4.710938-3.820313-8.53125-8.535156-8.53125zm0 0"/><path d="m179.148438 426.667969h-8.535157c-4.710937 0-8.53125 3.820312-8.53125 8.53125 0 4.714843 3.820313 8.535156 8.53125 8.535156h8.535157c4.710937 0 8.53125-3.820313 8.53125-8.535156 0-4.710938-3.820313-8.53125-8.53125-8.53125zm0 0"/><path d="m122.820312 357.214844c4.054688 2.390625 9.285157 1.042968 11.679688-3.011719l5.035156-8.535156c1.640625-2.628907 1.726563-5.941407.226563-8.652344-1.503907-2.710937-4.355469-4.394531-7.457031-4.398437-3.097657-.003907-5.957032 1.675781-7.464844 4.382812l-5.03125 8.53125c-2.394532 4.058594-1.046875 9.289062 3.011718 11.683594zm0 0"/><path d="m187.679688 128c4.714843 0 8.535156-3.820312 8.535156-8.535156v-59.730469c0-4.714844-3.820313-8.535156-8.535156-8.535156-4.710938 0-8.53125 3.820312-8.53125 8.535156v59.730469c0 4.714844 3.820312 8.535156 8.53125 8.535156zm0 0"/><path d="m179.148438 162.132812c0 4.714844 3.820312 8.535157 8.53125 8.535157 4.714843 0 8.535156-3.820313 8.535156-8.535157v-8.53125c0-4.714843-3.820313-8.535156-8.535156-8.535156-4.710938 0-8.53125 3.820313-8.53125 8.535156zm0 0"/><path d="m331.835938 128.46875c-4.714844.234375-8.34375 4.246094-8.109376 8.960938.238282 4.710937 4.25 8.34375 8.960938 8.105468h.855469c2.546875-.285156 5.113281-.441406 7.679687-.46875 4.710938 0 8.53125-3.820312 8.53125-8.53125 0-4.714844-3.820312-8.535156-8.53125-8.535156-3.175781 0-6.300781.164062-9.386718.46875zm0 0"/><path d="m294.289062 140.613281c-28.980468 16.8125-46.851562 47.75-46.933593 81.253907 0 4.710937 3.820312 8.53125 8.53125 8.53125 4.714843 0 8.535156-3.820313 8.535156-8.53125.074219-27.414063 14.695313-52.726563 38.398437-66.492188 2.777344-1.453125 4.535157-4.3125 4.578126-7.445312.042968-3.132813-1.636719-6.039063-4.375-7.566407-2.734376-1.527343-6.089844-1.433593-8.734376.25zm0 0"/><path d="m437.570312 306.152344c12.117188-13.824219 21.101563-30.101563 26.34375-47.71875 1.171876-4.457032-1.402343-9.039063-5.820312-10.351563-4.414062-1.316406-9.078125 1.113281-10.53125 5.484375-12.535156 42.226563-48.90625 73.003906-92.621094 78.378906-3.410156.429688-6.746094.710938-10 .855469-9.34375.378907-18.695312-.484375-27.808594-2.5625-50.640624-11.515625-86.640624-56.441406-86.84375-108.371093 0-2.636719.074219-5.1875.3125-7.9375 4.195313-58.011719 52.457032-102.945313 110.621094-102.996094 55.070313.199218 101.730469 40.601562 109.804688 95.078125.667968 4.667969 4.996094 7.910156 9.664062 7.242187 4.667969-.671875 7.910156-4.996094 7.242188-9.664062-9.320313-62.863282-63.164063-109.488282-126.710938-109.722656-27.699218-.035157-54.648437 9.007812-76.714844 25.746093v-62.523437c-.007812-1.652344.46875-3.273438 1.363282-4.660156l27.871094-23.554688c.4375-.371094.839843-.789062 1.195312-1.242188 4.050781-5.144531 4.804688-12.148437 1.941406-18.035156-2.867187-5.886718-8.84375-9.613281-15.390625-9.597656h-153.515625c-6.53125-.015625-12.5 3.699219-15.371094 9.566406-2.871093 5.867188-2.140624 12.855469 1.878907 18.003906.367187.476563.785156.914063 1.238281 1.304688l27.9375 23.605469c.910156 1.363281 1.394531 2.96875 1.382812 4.609375v108.882812c-.011718 1.539063-.425781 3.042969-1.203124 4.371094l-31.828126 53.972656c-2.128906 4.03125-.710937 9.023438 3.21875 11.335938 3.929688 2.3125 8.984376 1.125 11.476563-2.691406l31.90625-54c2.296875-3.945313 3.511719-8.421876 3.53125-12.988282v-108.882812c0-5.757813-1.957031-11.339844-5.546875-15.839844-.34375-.425781-.726562-.820312-1.144531-1.175781l-27.261719-23.007813h153.070312l-27.214843 23.039063c-.460938.390625-.878907.832031-1.246094 1.316406-3.464844 4.5-5.351563 10.019531-5.355469 15.699219v77.707031c-1.09375 1.167969-2.082031 2.421875-3.125 3.625-.851562 1.015625-1.773437 2.003906-2.621094 3.046875-1.609374 1.996094-3.121093 4.0625-4.605468 6.144531-.574219.800781-1.195313 1.570313-1.75 2.386719-1.953125 2.875-3.78125 5.820312-5.488282 8.832031-.605468 1.070313-1.117187 2.167969-1.707031 3.253907-1.066406 2.003906-2.125 4.019531-3.078125 6.082031-.65625 1.425781-1.238281 2.878906-1.84375 4.328125-.742187 1.765625-1.476562 3.539062-2.132812 5.339844-.582032 1.589843-1.101563 3.183593-1.621094 4.789062-.523438 1.605469-1.085938 3.414062-1.570312 5.214844-.488282 1.800781-.855469 3.308594-1.265626 4.992187-.40625 1.679688-.773437 3.574219-1.117187 5.375-.304687 1.636719-.613281 3.277344-.851563 4.933594-.085937.542969-.214843 1.082031-.28125 1.628906h-36.574218c-9.0625-.054687-17.460938 4.738281-22.027344 12.570313l-115.710938 196.171875c-7.773437 13.195312-7.878906 29.542969-.273437 42.839843 7.601563 13.292969 21.746094 21.492188 37.0625 21.484376h255.828125c2.628906.003906 5.25-.214844 7.84375-.65625 12.363281-2.269532 23.082031-9.910157 29.257812-20.855469v-.050781c7.6875-13.253907 7.5625-29.640626-.332031-42.769532l-37.792969-64c3.039063.21875 6.09375.316406 9.171876.324219l.386718.007813h.101563.851562c2.714844 0 5.453125-.144532 8.234375-.351563h1l32.714844 55.46875c10.824219 18.457031 10.949219 41.292969.328125 59.867187-10.621094 18.574219-30.367187 30.050782-51.765625 30.082032h-255.914062c-21.429688-.007813-41.210938-11.496094-51.839844-30.101563-10.632813-18.605469-10.480469-41.476562.390625-59.941406l80.214843-136.023437c1.546876-2.625 1.578126-5.878907.078126-8.53125-1.5-2.65625-4.300782-4.308594-7.351563-4.335938-3.046875-.027344-5.882813 1.570312-7.429687 4.199219l-80.214844 136.027343c-13.980469 23.742188-14.171875 53.152344-.503906 77.074219 13.667968 23.921875 39.105468 38.691407 66.65625 38.699219h255.914062c27.550781-.011719 52.984375-14.78125 66.648438-38.703125 13.667968-23.921875 13.472656-53.328125-.507813-77.070313l-29.269531-49.621093c20.71875-4.660157 39.945312-14.425781 55.929687-28.40625l71.832031 71.832031c3.347657 3.234375 8.671876 3.191406 11.964844-.101562 3.289063-3.292969 3.335938-8.613282.101563-11.960938zm-360.710937 154.648437c-9.191406.007813-17.679687-4.910156-22.242187-12.882812-4.566407-7.976563-4.503907-17.785157.15625-25.707031l115.703124-196.171876c1.523438-2.597656 4.316407-4.191406 7.332032-4.171874h35.414062c0 3.6875.160156 7.339843.484375 10.964843.101563 1.210938.324219 2.40625.460938 3.609375.28125 2.390625.539062 4.789063.949219 7.132813.246093 1.445312.621093 2.851562.917968 4.269531.445313 2.082031.855469 4.179688 1.382813 6.226562.402343 1.503907.914062 2.972657 1.367187 4.457032.578125 1.917968 1.117188 3.847656 1.792969 5.734375.542969 1.535156 1.203125 3.019531 1.800781 4.519531.714844 1.785156 1.378906 3.585938 2.175782 5.328125.679687 1.515625 1.476562 2.984375 2.21875 4.46875.851562 1.707031 1.628906 3.355469 2.558593 4.984375.851563 1.484375 1.707031 2.910156 2.636719 4.371094.929688 1.457031 1.851562 3.121094 2.859375 4.632812 1.007813 1.507813 2.003906 2.816406 3.011719 4.207032 1.007812 1.390624 2.082031 2.925781 3.191406 4.324218 1.109375 1.402344 2.226562 2.65625 3.355469 3.976563 1.125 1.324219 2.300781 2.722656 3.515625 4.027343 1.210937 1.308594 2.445312 2.484376 3.683594 3.714844 1.238281 1.226563 2.5 2.507813 3.808593 3.703125 1.304688 1.195313 2.660157 2.304688 4.007813 3.414063s2.6875 2.292968 4.097656 3.410156c1.40625 1.121094 2.832031 2.074219 4.265625 3.089844s2.894531 2.074218 4.386719 3.046875c1.492187.972656 2.996094 1.835937 4.503906 2.722656 1.511719.886719 3.089844 1.84375 4.6875 2.695313 1.59375.855468 3.105469 1.570312 4.675781 2.332031 1.570313.757812 3.308594 1.601562 5.007813 2.328125 1.699218.726562 3.199218 1.289062 4.8125 1.902344 1.765625.683593 3.523437 1.347656 5.324218 1.945312 1.621094.539062 3.261719 1 4.910157 1.476562 1.253906.359376 2.464843.792969 3.734375 1.117188l45.007812 76.222656c.769532 1.304688 1.433594 2.671875 1.988282 4.085938.1875.476562.269531.929687.417968 1.398437.269532.855469.578125 1.707031.757813 2.5625 1.175781 5.949219.167969 12.121094-2.832031 17.390625l-.128907.238282c-1.789062 3.128906-4.191406 5.867187-7.058593 8.054687-.109376.085937-.1875.171875-.289063.246094-.683594.488281-1.441406.929687-2.210937 1.375-.261719.152343-.476563.324219-.75.460937-.828126.421875-1.683594.792969-2.558594 1.109375-.300782.121094-.554688.265625-.855469.375-1.019531.316407-2.054687.574219-3.105469.769531-.296875.058594-.5625.160157-.851562.210938-1.539063.226562-3.097656.328125-4.652344.300781zm0 0"/></svg>