<svg height="512pt" viewBox="0 0 512 512" width="512pt" xmlns="http://www.w3.org/2000/svg"><g fill-rule="evenodd"><path d="m502 256c0 135.863281-110.136719 246-246 246s-246-110.136719-246-246 110.136719-246 246-246 246 110.136719 246 246zm0 0" fill="#898998"/><path d="m461.101562 391.847656-12.242187-76.519531-103.710937-23.28125-88.878907 64.570313v98.636718l62.96875 38.527344c58.863281-15.617188 109.054688-52.5 141.863281-101.933594zm0 0" fill="#fff"/><path d="m448.859375 315.328125 53.066406-53.527344c.046875-1.929687.074219-3.863281.074219-5.800781 0-57.835938-19.96875-110.996094-53.371094-152.996094l-73.332031-14.078125-64.097656 98.636719 33.949219 104.480469zm0 0" fill="#fff"/><path d="m53.730469 396.019531c34.125 49.203125 85.730469 85.359375 145.839843 99.46875l56.136719-40.234375v-98.636718l-88.878906-64.574219-103.710937 23.285156zm0 0" fill="#fff"/><path d="m10 256c0 1.621094.03125 3.234375.0625 4.847656l53.054688 54.480469 103.710937-23.285156 33.949219-104.480469-64.097656-98.636719-73.019532 13.714844c-33.574218 42.058594-53.660156 95.359375-53.660156 153.359375zm0 0" fill="#fff"/><path d="m311.199219 187.5625 64.097656-98.636719-37.484375-64.972656c-25.59375-9.027344-53.125-13.953125-81.8125-13.953125-28.699219 0-56.242188 4.929688-81.847656 13.964844l-37.472656 64.960937 64.097656 98.636719zm0 0" fill="#fff"/><path d="m254.5625 168.925781h-65.332031l-41.433594 127.519531 108.472656 78.808594 32.667969-23.734375-75.804688-55.074219zm0 0" fill="#fff"/></g><path d="m323.3125 168.925781h-68.75l-41.429688 127.519531 75.804688 55.074219 75.804688-55.074219zm0 0" fill="#898998"/><path d="m437.019531 74.980469c-48.351562-48.351563-112.640625-74.980469-181.019531-74.980469s-132.667969 26.628906-181.019531 74.980469c-48.351563 48.351562-74.980469 112.640625-74.980469 181.019531s26.628906 132.667969 74.980469 181.019531c48.351562 48.351563 112.640625 74.980469 181.019531 74.980469s132.667969-26.628906 181.019531-74.980469c48.351563-48.351562 74.980469-112.640625 74.980469-181.019531s-26.628906-132.667969-74.980469-181.019531zm29.523438 287.566406-7.003907-43.785156 30.25-30.515625c-3.625 26.398437-11.621093 51.417968-23.246093 74.300781zm25.4375-104.917969-46.328125 46.730469-73.160156-16.425781-38.195313-117.558594 45.71875-70.359375 62.886719 12.070313c30.765625 39.859374 49.097656 89.78125 49.097656 143.914062 0 .546875-.015625 1.085938-.019531 1.628906zm-110.304688-177.660156-20.222656-35.054688c22.070313 11.070313 42.175781 25.5 59.640625 42.621094zm-50.558593-47.707031c.132812.289062.277343.574219.4375.851562l32.015624 55.5-45.6875 70.3125h-51.550781c-5.523437 0-10 4.476563-10 10 0 5.523438 4.476563 10 10 10h49.710938l36.945312 113.699219-96.71875 70.269531-96.71875-70.269531 39-120.03125c.933594-2.871094.519531-6.007812-1.125-8.539062l-49.023437-75.441407 32.015625-55.5c.160156-.273437.300781-.558593.429687-.84375 23.617188-7.953125 48.890625-12.269531 75.152344-12.269531 26.25 0 51.511719 4.3125 75.117188 12.261719zm-309 255.296875 30.519531 31.339844-5.460938 46.941406c-12.660156-23.964844-21.3125-50.355469-25.058593-78.28125zm108.199218-207.609375-39.171875 7.355469c17.398438-17.007813 37.410157-31.351563 59.371094-42.371094zm-60.960937 31.796875 62.589843-11.753906 46.113282 70.960937-37.964844 116.847656-71.003906 15.9375-2.707032.609375-46.375-47.621094c0-.242187-.007812-.484374-.007812-.726562 0-54.285156 18.433594-104.335938 49.355469-144.253906zm-5.234375 281.496094 8.109375-69.710938 73.214843-16.4375 100.261719 72.847656v70.175782l-48.195312 34.542968c-54.511719-13.949218-101.480469-46.933594-133.390625-91.417968zm160.417968 96.65625 31.863282-22.839844 36.136718 22.109375c-11.910156 1.859375-24.113281 2.832031-36.539062 2.832031-10.667969 0-21.164062-.726562-31.460938-2.101562zm96.195313-6.925782-54.464844-33.324218v-69.300782l100.695313-73.15625 5.707031 1.28125 67.382813 15.128906 10.523437 65.785157c-30.734375 44.699219-76.445313 78.335937-129.84375 93.585937zm0 0"/><path d="m230.328125 178.929688c2.640625 0 5.210937-1.070313 7.070313-2.929688 1.871093-1.859375 2.929687-4.441406 2.929687-7.070312 0-2.640626-1.058594-5.21875-2.929687-7.078126-1.859376-1.859374-4.429688-2.921874-7.070313-2.921874-2.628906 0-5.207031 1.0625-7.066406 2.921874-1.863281 1.867188-2.933594 4.4375-2.933594 7.078126 0 2.628906 1.070313 5.210937 2.933594 7.070312 1.859375 1.859375 4.4375 2.929688 7.066406 2.929688zm0 0"/></svg>