<?xml version="1.0" encoding="iso-8859-1"?>
<!-- Generator: Adobe Illustrator 19.0.0, SVG Export Plug-In . SVG Version: 6.00 Build 0)  -->
<svg version="1.1" id="Capa_1" xmlns="http://www.w3.org/2000/svg" xmlns:xlink="http://www.w3.org/1999/xlink" x="0px" y="0px"
	 viewBox="0 0 512.001 512.001" style="enable-background:new 0 0 512.001 512.001;" xml:space="preserve">
<path style="fill:#CDEDFA;" d="M490.03,244.28L375.75,136l-77.59,77.59c10.86,10.87,17.59,25.87,17.59,42.41h182.41
	C496.19,251.69,493.46,247.71,490.03,244.28z"/>
<path style="fill:#47516E;" d="M315.75,256c0,33.092-26.919,60-60,60c-33.092,0-60-26.919-60-60c0-33.092,26.919-60,60-60
	C288.842,196,315.75,222.919,315.75,256z"/>
<g>
	<path style="fill:#CDEDFA;" d="M275.75,256c0-11.03-8.96-20-20-20c-11.04,0-20,8.97-20,20c0,11.03,8.96,20,20,20
		C266.79,276,275.75,267.03,275.75,256z"/>
	<path style="fill:#CDEDFA;" d="M244.03,21.72L135.75,136l77.59,77.59c10.87-10.86,25.87-17.59,42.41-17.59V13.59
		C251.44,15.56,247.46,18.29,244.03,21.72z"/>
</g>
<path style="fill:#FF4949;" d="M501.75,272.57V502l-126-126l-77.59-77.59c10.86-10.87,17.59-25.87,17.59-42.41
	c56.06-25.42,126.35-25.42,182.41,0C500.5,261.16,501.75,266.8,501.75,272.57z"/>
<path style="fill:#FFE469;" d="M501.75,10l-126,126l-77.59,77.59C287.29,202.73,272.29,196,255.75,196
	c-25.42-56.06-25.42-126.35,0-182.41c5.16-2.34,10.8-3.59,16.57-3.59C272.32,10,501.75,10,501.75,10z"/>
<path style="fill:#CDEDFA;" d="M298.16,298.41C287.29,309.27,272.29,316,255.75,316v182.41c4.31-1.97,8.29-4.7,11.72-8.13
	L375.75,376L298.16,298.41z"/>
<path style="fill:#00AADF;" d="M255.75,316c25.42,56.06,25.42,126.35,0,182.41c-5.16,2.34-10.8,3.59-16.57,3.59H9.75l126-126
	l77.59-77.59C224.21,309.27,239.21,316,255.75,316z"/>
<path style="fill:#CDEDFA;" d="M195.75,256H13.34c1.97,4.31,4.7,8.29,8.13,11.72L135.75,376l77.59-77.59
	C202.48,287.54,195.75,272.54,195.75,256z"/>
<path style="fill:#ABDD80;" d="M213.34,213.59c-10.86,10.87-17.59,25.87-17.59,42.41c-56.06,25.42-126.35,25.42-182.41,0
	c-2.34-5.16-3.59-10.8-3.59-16.57V10C18.483,18.732,204.082,204.331,213.34,213.59z"/>
<path d="M462,286c-5.52,0-10,4.48-10,10s4.48,10,10,10s10-4.48,10-10S467.52,286,462,286z"/>
<path d="M50,226c5.52,0,10-4.48,10-10s-4.48-10-10-10s-10,4.48-10,10S44.48,226,50,226z"/>
<path d="M14.649,274.792c0.064,0.063,0.128,0.126,0.193,0.188l106.822,101.214L2.929,494.929c-2.86,2.86-3.715,7.161-2.167,10.898
	S5.956,512,10,512h229.43c13.168,0,25.906-5.193,35.361-14.649c0.063-0.063,0.126-0.128,0.188-0.193l101.214-106.822
	l118.736,118.736c2.86,2.86,7.159,3.715,10.898,2.167c3.736-1.548,6.173-5.194,6.173-9.239V272.57
	c0-13.604-5.524-26.234-14.648-35.361c-0.063-0.063-0.128-0.126-0.193-0.188L390.336,135.807L509.072,17.071
	c2.859-2.86,3.715-7.161,2.168-10.898C509.692,2.437,506.045,0,502,0H272.57c-13.747,0-26.33,5.617-35.362,14.649
	c-0.063,0.063-0.125,0.128-0.188,0.193L135.807,121.664L17.072,2.929C14.21,0.069,9.91-0.786,6.174,0.761C2.437,2.309,0,5.956,0,10
	v229.43C0,253.176,5.617,265.759,14.649,274.792z M47.262,278.145c18.694,4.628,38.11,6.961,57.533,6.961
	c28.316,0,56.626-4.933,82.683-14.77c2.074,9.981,6.306,19.357,12.474,27.568l-64.141,64.141L47.262,278.145z M255.979,206.001
	c0.009,0,0.018,0.002,0.027,0.002c0.01,0,0.02-0.002,0.03-0.002C283.586,206.02,306,228.434,306,256c0,27.461-22.319,50-50,50
	c-27.568,0-50-22.426-50-50C206,228.449,228.405,206.012,255.979,206.001z M34.142,492l179.953-179.952
	c10.273,7.718,22.373,12.415,35.201,13.631c21.401,51.465,21.131,113.71-0.794,164.911c-2.932,0.932-5.97,1.41-9.072,1.41
	L34.142,492L34.142,492z M278.145,464.738c11.374-45.947,8.774-96.285-7.809-140.216c9.981-2.074,19.357-6.307,27.568-12.475
	l64.142,64.142L278.145,464.738z M492,477.858L312.048,297.905c7.718-10.273,12.416-22.373,13.631-35.201
	c51.463-21.401,113.709-21.131,164.911,0.794c0.932,2.932,1.41,5.969,1.41,9.072L492,477.858L492,477.858z M464.739,233.856
	c-45.948-11.375-96.286-8.774-140.218,7.808c-2.074-9.981-6.307-19.357-12.475-27.568l64.141-64.141L464.739,233.856z M477.858,20
	L297.905,199.953c-10.273-7.718-22.373-12.416-35.201-13.631c-21.401-51.465-21.131-113.71,0.794-164.911
	c2.932-0.932,5.97-1.41,9.072-1.41h205.288V20z M233.855,47.263c-11.375,45.947-8.774,96.285,7.809,140.215
	c-9.981,2.074-19.357,6.307-27.568,12.474l-64.141-64.141L233.855,47.263z M20,34.142l179.952,179.953
	c-7.718,10.273-12.415,22.373-13.631,35.201c-51.465,21.401-113.71,21.131-164.911-0.794c-0.932-2.932-1.41-5.969-1.41-9.072
	C20,239.43,20,34.142,20,34.142z"/>
<path d="M256,286c16.542,0,30-13.458,30-30s-13.458-30-30-30s-30,13.458-30,30S239.458,286,256,286z M256,246
	c5.514,0,10,4.486,10,10c0,5.514-4.486,10-10,10c-5.514,0-10-4.486-10-10C246,250.486,250.487,246,256,246z"/>
<path d="M462,326c-5.522,0-10,4.477-10,10v60c0,5.523,4.478,10,10,10s10-4.477,10-10v-60C472,330.477,467.523,326,462,326z"/>
<path d="M50,186c5.523,0,10-4.477,10-10v-60c0-5.523-4.477-10-10-10s-10,4.477-10,10v60C40,181.523,44.477,186,50,186z"/>
<g>
</g>
<g>
</g>
<g>
</g>
<g>
</g>
<g>
</g>
<g>
</g>
<g>
</g>
<g>
</g>
<g>
</g>
<g>
</g>
<g>
</g>
<g>
</g>
<g>
</g>
<g>
</g>
<g>
</g>
</svg>
