<svg height="512pt" viewBox="0 0 512 512" width="512pt" xmlns="http://www.w3.org/2000/svg"><g fill="#ffc15a"><path d="m39.9375 369.597656h142.375v131.96875h-142.375zm0 0"/><path d="m182.3125 369.597656h142.375v131.96875h-142.375zm0 0"/><path d="m324.691406 369.601562h142.375v131.964844h-142.375zm0 0"/><path d="m39.9375 208.398438h142.375v161.199218h-142.375zm0 0"/><path d="m324.691406 208.398438h-142.375v161.199218h142.375zm0 0"/><path d="m324.691406 288.480469v81.117187h142.375v-161.199218h-142.375zm0 0"/><path d="m39.9375 41.496094h142.375v166.902344h-142.375zm0 0"/><path d="m324.691406 41.496094h142.375v166.902344h-142.375zm0 0"/></g><path d="m343.632812 10h104.488282v31.5h-104.488282zm0 0" fill="#ffd89e"/><path d="m58.882812 10h104.488282v31.5h-104.488282zm0 0" fill="#ffd89e"/><path d="m253.785156 401.035156c-20.914062 14.832032-33.339844 38.878906-33.339844 64.515625v35.957031h66.679688v-35.957031c0-25.636719-12.425781-49.683593-33.339844-64.515625zm0 0" fill="#ff9357"/><path d="m110.757812 411.035156c-20.914062 14.832032-33.339843 38.878906-33.339843 64.515625v25.957031h66.679687v-25.957031c0-25.636719-12.425781-49.683593-33.339844-64.515625zm0 0" fill="#ff9357"/><path d="m395.878906 411.035156c-20.914062 14.832032-33.339844 38.878906-33.339844 64.515625v25.957031h66.679688v-25.957031c0-25.636719-12.429688-49.683593-33.339844-64.515625zm0 0" fill="#ff9357"/><path d="m279.625 267.636719c0 14.425781-11.695312 26.121093-26.121094 26.121093-14.429687 0-26.125-11.695312-26.125-26.121093 0-14.429688 11.695313-26.125 26.125-26.125 14.425782 0 26.121094 11.695312 26.121094 26.125zm0 0" fill="#8690a6"/><path d="m110.589844 267.636719c-12.753906 0-23.09375 10.339843-23.09375 23.09375v36.234375h46.191406v-36.234375c0-12.753907-10.339844-23.09375-23.097656-23.09375zm0 0" fill="#ff9357"/><path d="m110.589844 74.105469c-12.753906 0-23.09375 10.339843-23.09375 23.09375v57.855469h46.191406v-57.855469c0-12.753907-10.339844-23.09375-23.097656-23.09375zm0 0" fill="#ff9357"/><path d="m395.878906 74.105469c-12.757812 0-23.097656 10.339843-23.097656 23.09375v57.855469h46.191406v-57.855469c0-12.753907-10.339844-23.09375-23.09375-23.09375zm0 0" fill="#ff9357"/><path d="m395.878906 267.636719c-12.757812 0-23.097656 10.339843-23.097656 23.09375v36.234375h46.191406v-36.234375c0-12.753907-10.339844-23.09375-23.09375-23.09375zm0 0" fill="#ff9357"/><path d="m502 491.507812h-24.9375l.003906-111.910156h3.671875c5.523438 0 10-4.476562 10-10 0-5.523437-4.476562-10-10-10h-3.671875v-141.199218h3.671875c5.523438 0 10-4.476563 10-10 0-5.523438-4.476562-10-10-10h-3.671875v-33.34375h3.671875c5.523438 0 10-4.476563 10-10 0-5.523438-4.476562-10-10-10h-3.671875v-103.558594c0-5.519532-4.480468-10-10-10h-8.945312v-21.496094c0-5.523438-4.476563-10-10-10h-104.488282c-5.519531 0-10 4.476562-10 10v21.5h-8.941406c-5.523437 0-10 4.476562-10 10v103.554688h-51.1875v-29.574219h13.09375c5.523438 0 10-4.476563 10-10 0-5.523438-4.476562-10-10-10h-13.09375v-9.261719c0-5.523438-4.480468-10-10-10-5.523437 0-10 4.476562-10 10v9.261719h-13.097656c-5.519531 0-10 4.476562-10 10 0 5.523437 4.480469 10 10 10h13.097656v29.574219h-51.191406v-103.558594c0-5.519532-4.476562-10-10-10h-8.941406v-21.496094c0-5.523438-4.480469-10-10-10h-104.488282c-5.519531 0-10 4.476562-10 10v21.5h-8.941406c-5.523437 0-10 4.476562-10 10v103.652344c-4.898437.648437-8.679687 4.828125-8.679687 9.902344 0 5.074218 3.78125 9.253906 8.679687 9.90625v33.535156c-4.898437.648437-8.679687 4.828125-8.679687 9.902344 0 5.074218 3.78125 9.253906 8.679687 9.902343v141.398438c-4.898437.648437-8.679687 4.828125-8.679687 9.902343 0 5.074219 3.78125 9.253907 8.679687 9.902344v112.007813h-19.941406c-5.523438 0-10 4.476562-10 10 0 5.519531 4.476562 10 10 10h28.875c.351562.035156.703125.054687 1.066406.054687h427.125c.359375 0 .71875-.019531 1.070313-.058594h33.863281c5.523438 0 10-4.476562 10-10 0-5.523437-4.476562-10-10-10zm-367.902344 0h-46.683594v-15.957031c0-19.878906 8.613282-38.742187 23.34375-51.769531 14.726563 13.027344 23.339844 31.890625 23.339844 51.769531zm-36.601562-131.910156v-22.632812h26.191406v22.632812zm-47.558594 0v-22.632812h27.558594v22.632812zm122.375-194.542968v33.34375h-17.789062v-33.34375zm91.191406 33.34375v-33.34375h13.941406v33.34375zm-20 0h-13.941406v-33.34375h13.941406zm81.183594 20h132.378906v98.566406h-28.09375v-26.234375c0-18.25-14.847656-33.09375-33.097656-33.09375-18.246094 0-33.09375 14.84375-33.09375 33.09375v26.234375h-28.089844v-28.484375c0-5.523438-4.480468-10-10-10-5.523437 0-10 4.476562-10 10v28.484375h-122.378906v-98.566406zm81.734375-20v-33.34375h13.941406v33.34375zm2.550781-53.34375h-26.191406v-47.855469c0-7.21875 5.875-13.09375 13.097656-13.09375 7.21875 0 13.09375 5.875 13.09375 13.09375zm-36.191406 20h13.640625v33.34375h-13.941406v-33.34375zm-20.300781 33.34375h-17.792969v-33.34375h17.792969zm-86.199219 138.566406v22.632812h-26.191406v-22.632812zm48.410156 0v22.632812h-28.410156v-22.632812zm94.28125-20h-26.191406v-26.234375c0-7.222657 5.875-13.09375 13.097656-13.09375 7.21875 0 13.09375 5.871093 13.09375 13.09375zm-46.191406 42.632812h-28.089844v-22.632812h28.089844zm-142.691406 0h-27.773438v-22.632812h27.773438zm162.691406 0v-22.632812h26.191406v22.632812zm46.191406-22.632812h28.09375v22.632812h-28.09375zm-305.285156-20h-26.191406v-26.234375c0-7.222657 5.875-13.09375 13.097656-13.09375 7.21875 0 13.09375 5.871093 13.09375 13.09375zm-13.097656-59.328125c-18.246094 0-33.09375 14.84375-33.09375 33.09375v26.234375h-27.558594v-98.566406h122.375v98.566406h-28.625v-26.234375c0-18.25-14.847656-33.09375-33.097656-33.09375zm23.933594-59.238281h-13.941407v-33.34375h13.941407zm-10.835938-53.34375h-26.191406v-47.855469c0-7.21875 5.875-13.09375 13.097656-13.09375 7.21875 0 13.09375 5.875 13.09375 13.09375zm-36.191406 20h13.085937v33.34375h-13.941406v-33.34375zm-20.855469 33.34375h-16.703125v-33.34375h16.703125zm77.046875 138.566406h28.628906v22.632812h-28.628906zm48.625 42.632812h122.378906v111.910156h-17.566406v-25.957031c0-28.828125-14.039062-55.996093-37.554688-72.671875-3.464843-2.457031-8.105468-2.457031-11.566406 0-23.519531 16.675782-37.558594 43.84375-37.558594 72.671875v25.957031h-18.128906v-111.910156zm84.8125 111.910156h-46.679688v-25.957031c0-19.878906 8.609376-38.742187 23.339844-51.769531 14.730469 13.027344 23.339844 31.890625 23.339844 51.769531zm142.09375 0h-46.683594v-15.957031c0-19.878906 8.613282-38.742187 23.34375-51.769531 14.726563 13.027344 23.339844 31.890625 23.339844 51.769531zm20 0v-15.957031c0-28.828125-14.039062-55.996093-37.558594-72.671875-3.464844-2.457031-8.101562-2.457031-11.566406 0-23.515625 16.675782-37.558594 43.84375-37.558594 72.671875v15.957031h-17.847656v-111.910156h122.375v111.910156zm17.847656-293.109374h-16.703125v-33.34375h16.703125zm-103.433594-178.398438h84.488282v11.5h-84.488282zm-18.945312 31.496094h122.375v93.558594h-28.089844v-47.855469c0-18.25-14.847656-33.09375-33.097656-33.09375-18.246094 0-33.09375 14.84375-33.09375 33.09375v47.855469h-28.09375zm-20 146.902344h-17.242188v-33.34375h17.242188zm-105.125-33.34375v33.34375h-17.246094v-33.34375zm-65.875-20v-47.855469c0-18.25-14.847656-33.09375-33.097656-33.09375-18.246094 0-33.09375 14.84375-33.09375 33.09375v47.855469h-27.558594v-93.558594h122.375v93.558594zm-74.804688-125.054688h84.488282v11.5h-84.488282zm-18.945312 359.597656h122.375v111.910156h-18.214844v-15.957031c0-28.828125-14.039062-55.996093-37.558594-72.671875-3.464843-2.457031-8.101562-2.457031-11.566406 0-23.519531 16.675782-37.558594 43.84375-37.558594 72.671875v15.957031h-17.476562zm0 0"/><path d="m253.503906 303.761719c19.917969 0 36.121094-16.207031 36.121094-36.125s-16.203125-36.125-36.121094-36.125c-19.921875 0-36.125 16.207031-36.125 36.125s16.203125 36.125 36.125 36.125zm0-52.25c8.890625 0 16.121094 7.234375 16.121094 16.125s-7.230469 16.125-16.121094 16.125c-8.894531 0-16.125-7.234375-16.125-16.125s7.230469-16.125 16.125-16.125zm0 0"/><path d="m315.460938 252.253906c1.609374 3.863282 5.535156 6.351563 9.71875 6.15625 4.113281-.195312 7.769531-3.011718 9.03125-6.929687 1.273437-3.96875-.109376-8.457031-3.433594-10.988281-3.378906-2.570313-8.097656-2.71875-11.636719-.378907-3.945313 2.605469-5.460937 7.792969-3.679687 12.140625zm0 0"/></svg>