<svg height="512pt" viewBox="-47 0 512 512.00119" width="512pt" xmlns="http://www.w3.org/2000/svg"><path d="m271.386719 319.148438c-27.304688 47.785156 13.65625 40.957031 20.480469 75.089843 5.71875 28.84375-33.535157 57.6875-26.792969 94.722657-21.648438 9.628906-45.085938 14.570312-68.78125 14.503906 9.304687-95.144532-51.199219-68.265625-51.199219-119.464844 0-59.304688-47.273438-48.8125-79.785156-60.84375-16.46875-6.144531-26.796875-23.292969-32.683594-38.570312h-.085938c9.304688-31.699219 27.660157-59.996094 52.820313-81.40625v.9375c14.578125-7.863282 30.128906-13.777344 46.253906-17.578126 4.695313 19.695313 4.667969 40.222657-.085937 59.902344-10.496094 53.164063 51.457031 77.910156 91.136718 14.765625 16.210938-25.773437 49.152344-31.746093 82.429688-29.699219 10.484375.578126 20.921875 1.859376 31.234375 3.839844 11.707031 16.714844 20.265625 35.425782 25.257813 55.210938-16.726563-3.667969-67.5-11.09375-90.199219 28.589844zm0 0" fill="#6ca4ea"/><g fill="#54ceaf"><path d="m366.960938 332.800781c.0625 67.667969-39.925782 128.960938-101.886719 156.160157-6.742188-37.035157 32.511719-65.878907 26.792969-94.722657-6.824219-34.132812-47.785157-27.304687-20.480469-75.089843 22.699219-39.683594 73.472656-32.257813 90.199219-28.589844h.085937c3.546875 13.800781 5.324219 27.992187 5.289063 42.242187zm0 0"/><path d="m336.328125 235.347656c-10.3125-1.980468-20.75-3.261718-31.234375-3.839844-33.277344-2.046874-66.21875 3.925782-82.429688 29.699219-39.679687 63.144531-101.632812 38.398438-91.136718-14.765625 4.753906-19.679687 4.78125-40.207031.085937-59.902344 21.140625-5.359374 42.871094-8.054687 64.679688-8.023437 38.53125-.828125 76.664062 7.972656 110.933593 25.601563v-.9375c11.046876 9.421874 20.828126 20.234374 29.101563 32.167968zm0 0"/><path d="m196.292969 503.464844c-53.785157-.035156-104.410157-25.40625-136.628907-68.476563-32.21875-43.066406-42.269531-98.792969-27.125-150.402343h.085938c4.109375 11.601562 10.859375 22.085937 19.710938 30.636718 3.785156 3.4375 8.1875 6.128906 12.972656 7.933594 1.109375.429688 2.21875.769531 3.328125 1.109375 32.253906 10.328125 76.457031 2.390625 76.457031 59.734375 0 51.199219 60.503906 24.320312 51.199219 119.464844zm0 0"/></g><path d="m384.027344 68.265625-17.066406 11.351563-59.734376 39.847656c-34.269531-17.628906-72.402343-26.425782-110.933593-25.597656-38.53125-.828126-76.660157 7.96875-110.933594 25.597656l-76.796875-51.199219 187.730469-59.730469 172.203125 54.78125zm0 0" fill="#6692aa"/><path d="m307.226562 119.464844v84.652344c-34.269531-17.628907-72.402343-26.429688-110.933593-25.601563-21.808594-.03125-43.539063 2.664063-64.679688 8.023437-16.125 3.800782-31.675781 9.714844-46.253906 17.578126v-84.652344c34.273437-17.628906 72.402344-26.425782 110.933594-25.597656 38.53125-.828126 76.664062 7.96875 110.933593 25.597656zm0 0" fill="#4d7693"/><path d="m391.878906 204.800781h-32.769531c-2.648437.113281-5.207031-.976562-6.964844-2.964843-1.753906-1.984376-2.519531-4.660157-2.078125-7.277344l5.546875-25.597656c1.046875-4.113282 4.804688-6.945313 9.042969-6.828126h21.675781c4.242188-.117187 7.996094 2.714844 9.046875 6.828126l5.542969 25.597656c.441406 2.617187-.320313 5.292968-2.078125 7.277344-1.757812 1.988281-4.316406 3.078124-6.964844 2.964843zm0 0" fill="#ffc17d"/><path d="m3.824219 75.367188 73.003906 48.664062v75.402344c-24.914063 22.121094-43.097656 50.804687-52.480469 82.773437-4.835937 16.429688-7.277344 33.46875-7.253906 50.59375 0 4.710938 3.820312 8.53125 8.535156 8.53125 4.710938 0 8.53125-3.820312 8.53125-8.53125 0-7.882812.570313-15.753906 1.707032-23.550781.332031.476562.734374.902344 1.066406 1.371094.972656 1.335937 1.996094 2.652344 3.0625 3.941406.691406.855469 1.382812 1.632812 2.117187 2.425781 1.128907 1.238281 2.332031 2.40625 3.566407 3.550781.777343.722657 1.539062 1.449219 2.355468 2.132813 1.136719.945313 2.347656 1.792969 3.566406 2.644531-.125 2.492188-.355468 4.976563-.355468 7.484375.105468 46.738281 22.640625 90.582031 60.585937 117.871094 2.476563 1.777344 5.714844 2.101563 8.492188.84375 2.78125-1.253906 4.679687-3.898437 4.980469-6.933594.300781-3.035156-1.039063-6-3.515626-7.777343-33.410156-24.003907-53.300781-62.566407-53.496093-103.707032 6.898437 1.882813 13.886719 3.40625 20.941406 4.566406 27.476563 4.984376 47.328125 8.585938 47.328125 46.335938 0 25.488281 13.445312 35.585938 25.316406 44.5.921875.691406 1.851563 1.390625 2.773438 2.101562l.589844.453126c.726562.5625 1.441406 1.117187 2.160156 1.703124l.902344.753907c.605468.503906 1.210937 1.003906 1.808593 1.527343.34375.289063.667969.605469 1 .910157.554688.496093 1.101563 1 1.636719 1.527343.351562.34375.691406.710938 1.035156 1.058594.5.523438 1.015625 1.050782 1.5 1.605469.351563.394531.683594.800781 1.023438 1.210937.460937.5625.929687 1.128907 1.375 1.707032.339844.453125.664062.929687 1 1.398437.417968.609375.851562 1.214844 1.234375 1.851563.324219.515625.632812 1.050781.941406 1.597656.304687.546875.75 1.339844 1.109375 2.039062.355469.699219.578125 1.1875.851562 1.792969.273438.605469.664063 1.492188.972657 2.277344.265625.648437.511719 1.324219.757812 2.003906.292969.855469.566407 1.707031.855469 2.5625.222656.734375.433594 1.484375.640625 2.261719.238281.902344.460937 1.859375.664063 2.824219.179687.851562.359374 1.644531.511718 2.515625.1875 1.015625.34375 2.089844.496094 3.167968.128906.910157.265625 1.824219.367188 2.789063.128906 1.136719.210937 2.339844.308593 3.542969.066407 1.015625.152344 2.011718.203125 3.078125.058594 1.265625.078125 2.621093.09375 3.960937 0 1.109375.050782 2.199219 0 3.414063 0 1.425781-.078125 2.941406-.128906 4.445312-.042969 1.21875-.066406 2.390625-.136719 3.652344v.570313c-67.949219-3.066407-126.679687-48.40625-146.847656-113.363282-1.414063-4.5-6.207031-7-10.707031-5.585937-4.496094 1.414062-7 6.207031-5.585938 10.703125 23.273438 74.828125 92.644532 125.714844 171.007813 125.441406 24.863281.085938 49.464843-5.097656 72.175781-15.214844 65.050781-28.585937 107.042969-92.929687 107.027344-163.984375.027344-14.96875-1.84375-29.878906-5.566406-44.375-.066407-.253906-.210938-.46875-.296876-.707031-5.242187-20.484375-14.144531-39.855469-26.273437-57.171875-7.9375-11.429687-17.203125-21.878906-27.597656-31.132813v-75.382812l59.734375-39.824219v69.394531h-2.339844c-8.253906-.109374-15.476562 5.527344-17.375 13.558594l-5.527344 25.691406c-1.035156 4.933594.222656 10.070313 3.414063 13.972657 3.433593 4.160156 8.5625 6.550781 13.957031 6.507812h32.804688c5.398437.03125 10.527343-2.375 13.953124-6.550781 3.191407-3.902344 4.445313-9.039062 3.410157-13.96875v-.054688l-5.511719-25.597656c-1.902344-8.035156-9.125-13.671875-17.382812-13.558594h-2.335938v-85.335937c0-.144531-.078125-.273437-.085938-.417969.015626-.257812.015626-.515625 0-.777344-.105468-.613281-.28125-1.214843-.519531-1.789062-.054687-.136719-.0625-.28125-.121093-.410156-.390626-.890625-.9375-1.703125-1.613282-2.398438-.179687-.195312-.382812-.351562-.578125-.527344-.5625-.492187-1.179687-.90625-1.84375-1.238281-.257812-.128906-.488281-.265625-.753906-.367187-.261719-.101563-.28125-.152344-.433594-.207032l-42.667969-13.574218c-4.4375-1.261719-9.074218 1.234375-10.464843 5.632812-1.390625 4.402344.964843 9.109375 5.320312 10.632813l25.746094 8.191406-57.753906 38.5-.195313-.101563-1.101562-.546874-2.183594-1.066407-1.445312-.664062c-.851563-.402344-1.765626-.8125-2.730469-1.246094l-1.601563-.707031c-1.144531-.496094-2.375-1.007813-3.644531-1.527344l-1.433594-.589844c-1.816406-.734375-3.746093-1.476562-5.8125-2.238281l-.777343-.269531c-1.808594-.65625-3.707032-1.320313-5.699219-1.988282l-2.140625-.691406c-1.648438-.539062-3.335938-1.058594-5.121094-1.589844l-2.621094-.765624c-1.765625-.503907-3.589844-1-5.460937-1.496094-.910157-.238282-1.800781-.476563-2.738281-.707032-2.277344-.570312-4.632813-1.117187-7.054688-1.65625l-1.707031-.382812c-3.011719-.636719-6.121094-1.242188-9.335938-1.808594-.855469-.144531-1.707031-.273437-2.492187-.410156-2.433594-.402344-4.90625-.785156-7.441406-1.136719-1.195313-.160156-2.40625-.304687-3.625-.460937-2.304688-.289063-4.648438-.546875-7.023438-.773438-1.316406-.128906-2.621094-.257812-3.960938-.367187-2.558593-.214844-5.121093-.375-7.722656-.519531-1.21875-.070313-2.40625-.15625-3.644531-.207032-3.8125-.160156-7.746094-.265625-11.785156-.265625-4.035157 0-7.960938.105469-11.824219.265625-1.238281.050782-2.433594.136719-3.652344.207032-2.613281.144531-5.191406.304687-7.679687.519531-1.351563.109375-2.664063.238281-3.988281.367187-2.371094.230469-4.691407.484375-6.980469.773438-1.226563.148437-2.464844.300781-3.667969.460937-2.507812.351563-4.941406.726563-7.347656 1.128907l-2.558594.417968c-3.199219.566406-6.296875 1.171875-9.292969 1.808594l-1.859375.417969c-2.339844.519531-4.636718 1.058593-6.828125 1.613281-.980469.238281-1.917969.496094-2.875.742188-1.816406.476562-3.585937.957031-5.292969 1.449218l-2.773437.855469c-1.703125.503906-3.308594 1.007813-4.886719 1.519531l-2.332031.75c-1.875.632813-3.660156 1.253906-5.382813 1.875l-1.074218.386719c-2.03125.742187-3.925782 1.476563-5.71875 2.199219-.589844.230468-1.109375.453125-1.707032.683594-1.1875.488281-2.328124.964843-3.414062 1.425781l-1.707031.769531c-.921875.40625-1.78125.800781-2.558594 1.183594-.527344.25-1.039063.480468-1.527344.71875-.757812.355468-1.433593.691406-2.089843 1.015625l-1.167969.578125-.191407.09375-57.847656-38.542969 168.226563-53.53125 91.308593 29.015625c2.972657 1.1875 6.359376.613281 8.773438-1.492188 2.414062-2.101562 3.449219-5.378906 2.675781-8.484374-.769531-3.109376-3.214843-5.523438-6.328125-6.253907l-93.867187-29.867187c-1.683594-.535156-3.488281-.535156-5.171875 0l-187.734375 59.730468c-3.125.996094-5.40625 3.691407-5.8632815 6.941407-.4609375 3.25.9843745 6.472656 3.7148435 8.292969zm391.757812 95.394531 5.511719 25.386719-34.132812.210937 6.195312-25.691406zm-301.550781-46.242188.726562-.351562 2.191407-1.058594 1.3125-.597656c.753906-.34375 1.554687-.703125 2.410156-1.074219l1.621094-.707031c.953125-.410157 1.988281-.855469 3.042969-1.265625l1.625-.65625c1.703124-.664063 3.410156-1.339844 5.332031-2.03125l.222656-.074219c1.808594-.660156 3.746094-1.324219 5.75-1.988281.683594-.230469 1.40625-.453125 2.117187-.683594 1.476563-.464844 3-.9375 4.5625-1.410156.855469-.253906 1.707032-.511719 2.621094-.757813 1.570313-.453125 3.191406-.851562 4.839844-1.324219.921875-.238281 1.832031-.484374 2.78125-.714843 1.953125-.488281 3.984375-.957031 6.058594-1.417969l2.046875-.46875c2.789062-.566406 5.671875-1.136719 8.652343-1.707031.71875-.125 1.46875-.230469 2.195313-.347657 2.292969-.394531 4.632813-.753906 7.039063-1.085937 1.101562-.152344 2.234374-.289063 3.355468-.425781 2.148438-.273438 4.332032-.511719 6.558594-.734375 1.214844-.117188 2.441406-.230469 3.679688-.332031 2.339843-.195313 4.734374-.359376 7.152343-.488282 1.132813-.066406 2.25-.144531 3.410157-.195312 3.570312-.117188 7.210937-.222656 10.957031-.222656 3.746093 0 7.390625.105468 10.96875.25 1.148437.050781 2.257812.128906 3.410156.195312 2.425781.128906 4.824219.289062 7.167969.488281 1.238281.101563 2.449218.210938 3.660156.332031 2.238281.222657 4.429688.460938 6.582031.734376 1.117188.136718 2.242188.273437 3.34375.425781 2.40625.332031 4.753907.699219 7.058594 1.082031.714844.121094 1.464844.222656 2.175781.351562 2.976563.519532 5.871094 1.089844 8.660156 1.707032l2.023438.460937c2.074219.460938 4.113281.929688 6.074219 1.425781.949219.230469 1.859375.476563 2.78125.714844 1.648437.433594 3.269531.851563 4.832031 1.3125l2.636719.769532c1.5625.460937 3.0625.929687 4.53125 1.398437l2.15625.691406c1.949219.648438 3.824219 1.296875 5.582031 1.929688l.488281.179687c1.84375.664063 3.558594 1.332032 5.1875 1.96875l1.765625.71875c1 .410156 1.980469.808594 2.882813 1.195313l1.757812.765625c.777344.34375 1.511719.667968 2.203125.992187l1.519532.691407c.65625.304687 1.246093.597656 1.816406.851562l1.09375.53125h.058594v65.757812l-.230469-.09375c-1.980469-.855468-4.207031-1.800781-6.605469-2.757812l-1.507812-.589844c-2.5625-.980468-5.230469-1.988281-8.183594-3.003906-.28125-.101562-.589844-.195312-.855469-.289062-2.804687-.957032-5.808594-1.902344-8.976563-2.839844l-1.707031-.511719c-3.351562-.964844-6.902343-1.894531-10.625-2.800781l-2.3125-.539063c-3.90625-.902343-7.941406-1.773437-12.226562-2.558593l-.757813-.128907c-4.105468-.734375-8.398437-1.371093-12.800781-1.945312l-2.5625-.339844c-4.550781-.542969-9.269531-.976563-14.164063-1.304687-.964843-.070313-1.945312-.113282-2.925781-.171876-5.121093-.289062-10.410156-.496093-15.890625-.496093-5.6875 0-11.355468.175781-16.996094.519531-16.804687 1.023438-33.476562 3.621094-49.792968 7.765625-3.457032.855469-6.683594 1.800781-9.789063 2.730469-.929687.273437-1.800781.546875-2.695312.855468-2.261719.699219-4.421875 1.40625-6.496094 2.117188-.742187.253906-1.492187.503906-2.207031.757812-2.5625.914063-5.019532 1.816407-7.253906 2.695313l-1.316407.539063c-1.789062.714843-3.460937 1.414062-5.007812 2.089843-.253907.113281-.578125.230469-.851563.34375v-65.777343zm179.105469 351.035157v-.128907c.351562-2.769531.921875-5.511719 1.707031-8.191406.179688-.640625.375-1.289063.570312-1.921875.796876-2.582031 1.71875-5.121094 2.765626-7.609375l.128906-.324219c1.160156-2.714844 2.464844-5.402344 3.824218-8.082031.324219-.648437.648438-1.296875.988282-1.945313 1.28125-2.480468 2.582031-4.949218 3.910156-7.40625 8.121094-15.128906 16.511719-30.71875 13.226562-47.378906-2.796874-12.261718-9.6875-23.203125-19.542968-31.015625-10.292969-9.617187-15.460938-14.441406-1.902344-38.171875 1.386719-2.394531 2.960938-4.679687 4.710938-6.828125.511718-.636719 1.046874-1.21875 1.585937-1.816406 1.222656-1.390625 2.519531-2.714844 3.890625-3.957031.605469-.546875 1.203125-1.09375 1.835938-1.605469 1.539062-1.257813 3.152343-2.425781 4.828124-3.492187.402344-.253907.785157-.5625 1.195313-.800782 2.042969-1.214844 4.164063-2.292968 6.347656-3.234375.675781-.289062 1.359375-.519531 2.042969-.785156 1.550781-.605469 3.121094-1.160156 4.699219-1.636719.855469-.25 1.707031-.488281 2.5-.699218 1.546875-.402344 3.097656-.746094 4.660156-1.042969.75-.136719 1.5-.308594 2.253906-.425781 2.167969-.351563 4.34375-.613282 6.492188-.785157.792969-.070312 1.5625-.078125 2.347656-.128906 1.457031-.078125 2.910156-.144531 4.335937-.152344h3.265626l2.125.058594c1.144531.042969 2.253906.101563 3.355468.179687l2.105469.160157c1.027344.09375 2.039063.1875 3.03125.300781.714844.078125 1.425781.164062 2.125.253906.902344.113282 1.792969.230469 2.644531.359375l2.066406.332031 1.425782.242188c15.507812 70.773438-17.757813 143.261719-81.53125 177.652344zm71.238281-196.097657-.855469-.050781c-1.707031-.117188-3.414062-.210938-5.203125-.273438h-1.078125c-1.824219-.039062-3.6875-.039062-5.589843 0h-.851563c-7.023437.148438-14.015625 1.003907-20.863281 2.5625-.375.082032-.75.1875-1.117188.28125-1.941406.476563-3.871094 1.027344-5.796875 1.644532l-1.484375.496094c-1.949218.675781-3.886718 1.433593-5.808594 2.269531-.34375.152343-.691406.28125-1.042968.445312-2.320313 1.050781-4.582032 2.226563-6.773438 3.523438-2.105468 1.265625-4.136718 2.644531-6.085937 4.128906-.570313.4375-1.117188.914063-1.707031 1.367187-1.417969 1.152344-2.808594 2.371094-4.164063 3.675782-.632813.609375-1.253906 1.234375-1.867187 1.871094-1.296876 1.355468-2.5625 2.804687-3.765626 4.316406-.527343.65625-1.066406 1.28125-1.578124 1.964844-1.726563 2.292968-3.308594 4.6875-4.746094 7.175781-18.773438 32.835937-9.28125 45.695312 5.0625 59.101562 7.195312 5.421875 12.316406 13.148438 14.507812 21.886719.257813 1.328125.390625 2.675781.398438 4.027344-1.4375 11.429687-5.53125 22.363281-11.945313 31.933594-1.058593 1.980468-2.132812 3.984374-3.199219 5.972656-.332031.640625-.65625 1.289062-.980468 1.929687-.761719 1.476563-1.511719 2.941407-2.246094 4.445313-.382812.792968-.75 1.601562-1.125 2.414062-.648438 1.382813-1.28125 2.773438-1.886719 4.191406-.375.851563-.726562 1.765626-1.074219 2.652344-.546874 1.382813-1.078124 2.773438-1.5625 4.179688-.324218.933594-.625 1.871094-.921874 2.816406-.4375 1.417969-.855469 2.84375-1.1875 4.269531-.238282.953125-.46875 1.917969-.664063 2.898438-.308594 1.484375-.539063 2.996093-.742187 4.515625-.128907.964844-.273438 1.917968-.359376 2.902344-.136718 1.621093-.160156 3.285156-.171874 4.949218 0 .902344-.050782 1.789063 0 2.710938v.855468c-16.0625 6.425782-33.070313 10.171876-50.34375 11.09375 0-.207031 0-.375 0-.574218.074218-1.464844.082031-2.824219.117187-4.265625.050781-1.835938.121094-3.6875.113281-5.425781 0-1.390626-.0625-2.679688-.105468-4.011719-.050782-1.613281-.082032-3.234375-.1875-4.761719-.074219-1.289062-.203126-2.5-.324219-3.730469-.125-1.433593-.261719-2.875-.441407-4.265625-.15625-1.167968-.34375-2.269531-.523437-3.414062-.21875-1.296875-.433594-2.558594-.679687-3.8125-.222657-1.058594-.46875-2.066406-.710938-3.074219-.289062-1.160156-.578125-2.3125-.894531-3.410156-.28125-.957031-.570313-1.871094-.851563-2.773438-.351562-1.050781-.71875-2.082031-1.09375-3.074219-.324218-.851562-.664062-1.707031-1.007812-2.472656-.410156-.957031-.851563-1.878906-1.269532-2.773437-.359374-.753907-.734374-1.496094-1.121093-2.210938-.457031-.855469-.9375-1.707031-1.421875-2.5-.394532-.667969-.796875-1.324219-1.214844-1.964843-.511719-.773438-1.03125-1.527344-1.558594-2.269532-.429687-.578125-.855468-1.167968-1.273437-1.707031-.5625-.714844-1.125-1.398437-1.707031-2.070313-.425782-.511718-.851563-1.035156-1.296876-1.519531-.605468-.667969-1.210937-1.296875-1.824218-1.929687-.4375-.433594-.855469-.851563-1.296875-1.3125-.648438-.632813-1.296875-1.230469-1.964844-1.828125-.410156-.375-.851563-.757813-1.238281-1.125-.707032-.617188-1.414063-1.203125-2.132813-1.792969-.367187-.308594-.722656-.621094-1.089843-.914062-.855469-.671876-1.707032-1.3125-2.492188-1.953126l-.734375-.570312c-1.066406-.855469-2.125-1.613281-3.175781-2.398438-11.167969-8.210937-18.523438-13.738281-18.523438-30.695312 0-52.003906-34.007812-58.164062-61.339844-63.148438-7.6875-1.207031-15.277343-2.992187-22.699218-5.339843 1.382812-10.535157 4.078125-20.855469 8.023437-30.71875 1.167969-2.832031.726563-6.070313-1.152343-8.492188-1.878907-2.417969-4.90625-3.644531-7.941407-3.210937-3.03125.433594-5.597656 2.453125-6.726562 5.300781-3.433594 8.488281-6.050781 17.285156-7.816407 26.265625-.375-.441406-.742187-.851562-1.109374-1.339844-.71875-.851562-1.425782-1.707031-2.082032-2.636718-.480468-.664063-.929687-1.332032-1.382812-2.003907-.597656-.90625-1.195313-1.800781-1.75-2.707031-.417969-.691406-.851563-1.390625-1.210938-2.082031-.503906-.851563-.992187-1.773438-1.441406-2.644531-.359375-.683594-.710938-1.363282-1.035156-2.039063-.417969-.851563-.808594-1.707031-1.175782-2.5-.289062-.640625-.582031-1.28125-.855468-1.894531-.117188-.273438-.210938-.519532-.324219-.785156 8.679687-27.671876 24.691406-52.480469 46.335937-71.78125.621094-.203126 1.214844-.472657 1.777344-.804688l.683594-.390625.65625-.351563c.375-.203124.800781-.433593 1.347656-.714843l1.296875-.648438c.597657-.308593 1.246094-.625 1.980469-.980469l1.875-.855468c.855469-.382813 1.707031-.785156 2.65625-1.203125l2.378906-1.03125c1.066406-.453125 2.210938-.921875 3.414063-1.398438.894531-.367187 1.816406-.734375 2.789062-1.109375 1.332031-.515625 2.765625-1.035156 4.21875-1.554687 1.011719-.367188 2.011719-.734375 3.085938-1.101563 1.707031-.578125 3.5-1.160156 5.324219-1.707031 1.015624-.324219 1.980468-.640625 3.039062-.964844l.75-.203125c0 .152344.054688.28125.078125.445313.078125.460937.136719.960937.203125 1.449219.164062 1.1875.316406 2.421874.445312 3.71875.058594.625.121094 1.246093.171876 1.886718.109374 1.398438.1875 2.867188.246093 4.386719 0 .554687.058594 1.074219.078125 1.648437.050782 2.105469.050782 4.316407 0 6.644532 0 .4375-.050781.914062-.070312 1.359375-.074219 1.9375-.195313 3.941406-.367188 6.03125-.058594.855469-.144531 1.707031-.230468 2.5-.1875 1.914062-.417969 3.882812-.691407 5.914062-.109375.855469-.21875 1.707031-.347656 2.558594-.4375 2.902344-.929687 5.890625-1.554687 9.039063-5.273438 26.734374 5.8125 50.5 27.589843 59.152343 7.632813 2.921875 15.878907 3.871094 23.976563 2.765625.484375-.0625.972656-.132812 1.460937-.207031 4.789063-.75 9.464844-2.097656 13.917969-4.007813.570312-.234374 1.113281-.472656 1.636719-.71875 5.070312-2.351562 9.847656-5.289062 14.234375-8.753906.574218-.445312 1.144531-.90625 1.707031-1.375 2.472656-2.011718 4.832031-4.160156 7.066406-6.433594 2.304688-2.355468 4.566407-5.015624 6.828125-7.824218.5625-.699219 1.117188-1.417969 1.703125-2.152344 2.253907-2.941406 4.472657-6.039062 6.640625-9.480469 12.175782-19.371093 37.324219-28.046875 74.785156-25.71875 4.421876.214844 8.996094.632813 13.722657 1.195313 1.519531.179687 3.15625.46875 4.71875.691406 2.6875.375 5.425781.792969 8.242187 1.289062 7.628906 11.40625 13.746094 23.757813 18.195313 36.742188-1.699219-.210938-3.441407-.375-5.230469-.511719zm-38.75-56.464843c-44.085938-2.710938-74.421875 8.621093-90.191406 33.671874-20.265625 32.257813-44.125 37.121094-58.390625 31.414063-14.109375-5.589844-20.832031-21.335937-17.144531-39.980469.699218-3.539062 1.253906-6.910156 1.707031-10.1875.152343-1.050781.273437-2.046875.398437-3.074218.292969-2.222657.535156-4.386719.734375-6.492188.101563-1.050781.195313-2.082031.273438-3.097656.152343-2.089844.265625-4.105469.332031-6.066406 0-.792969.078125-1.621094.09375-2.398438.0625-2.644531.050781-5.1875 0-7.585938 0-.375 0-.707031-.058594-1.074218-.085937-2.03125-.207031-3.976563-.367187-5.839844-.066407-.730469-.144531-1.414062-.222657-2.125-.152343-1.433594-.324218-2.8125-.519531-4.128906-.09375-.683594-.195312-1.355469-.308593-2.003906-.050782-.324219-.09375-.691407-.152344-1.007813 1.382812-.308594 2.757812-.640625 4.148437-.914063 1.910157-.390624 3.828125-.757812 5.75-1.101562 3.03125-.535156 6.078125-.996094 9.132813-1.421875 1.867187-.257813 3.734375-.539063 5.613281-.753906 3.328125-.390625 6.683594-.671875 10.035156-.929688 1.613281-.117187 3.21875-.289062 4.832031-.382812 4.964844-.289063 9.957032-.460938 14.964844-.460938 36.980469-.703125 73.566406 7.667969 106.554688 24.386719.5625.335938 1.15625.605469 1.777344.804688 4.074218 3.648437 7.960937 7.503906 11.640624 11.554687-3.632812-.367187-7.175781-.632813-10.632812-.804687zm0 0"/><path d="m150.964844 470.613281c.859375.289063 1.757812.433594 2.664062.425781 4.191406 0 7.761719-3.046874 8.421875-7.183593.664063-4.140625-1.777343-8.148438-5.761719-9.457031-2.703124-.851563-5.367187-1.875-7.996093-2.933594-2.828125-1.167969-6.070313-.730469-8.488281 1.148437-2.417969 1.878907-3.644532 4.910157-3.210938 7.941407.429688 3.035156 2.453125 5.601562 5.300781 6.730468 2.976563 1.195313 6 2.320313 9.070313 3.328125zm0 0"/><path d="m91 233.054688c-2.773438 2.917968-5.417969 5.9375-7.925781 9.0625-2.953125 3.671874-2.371094 9.046874 1.300781 12 3.675781 2.957031 9.046875 2.375 12.003906-1.300782 2.210938-2.757812 4.542969-5.425781 6.988282-8.003906 2.171874-2.195312 2.984374-5.394531 2.132812-8.359375-.855469-2.96875-3.246094-5.242187-6.253906-5.949219-3.007813-.703125-6.160156.269532-8.246094 2.550782zm0 0"/></svg>